<svg width="405" height="228" viewBox="0 0 405 228" fill="none" xmlns="http://www.w3.org/2000/svg">
<g clip-path="url(#clip0_233_580)">
<path opacity="0.3" d="M173 111C198.957 111 220 87.9427 220 59.5C220 31.0573 198.957 8 173 8C147.043 8 126 31.0573 126 59.5C126 87.9427 147.043 111 173 111Z" fill="#9DBC78"/>
<path d="M172.677 60L138.507 74.2168L126 170.951H142.733C142.733 191.996 142.733 202.519 142.733 202.519C142.733 202.519 152.841 191.996 173.057 170.951H220.387" stroke="#808080" stroke-width="5.53445"/>
<path d="M304 99.2642L328.087 99.265L342 196.326H323.386C323.386 217.442 323.386 228 323.386 228C323.386 228 312.141 217.442 289.652 196.326H237" stroke="#808080" stroke-width="5.53445"/>
<path d="M188.5 38L271.452 19.5L289.675 134.85H271.452V171.422L234.866 134.836L173.135 134.85L188.5 38Z" stroke="#808080" stroke-width="6"/>
<path d="M225.128 60H236.488L234.952 94.336H226.696L225.128 60ZM225 97.824H236.232V108.576H225V97.824Z" fill="#808080"/>
</g>
<defs>
<clipPath id="clip0_233_580">
<rect width="405" height="228" fill="white"/>
</clipPath>
</defs>
</svg>
