<svg width="20" height="21" viewBox="0 0 20 21" fill="none" xmlns="http://www.w3.org/2000/svg">
<path fill-rule="evenodd" clip-rule="evenodd" d="M7.429 7.02132H11.143V8.88521C11.678 7.81322 13.05 6.85005 15.111 6.85005C19.062 6.85005 20 8.98395 20 12.8991V20.1502H16V13.7908C16 11.5612 15.465 10.3038 14.103 10.3038C12.214 10.3038 11.429 11.6589 11.429 13.7898V20.1502H7.429V7.02132ZM0.57 19.9789H4.57V6.85005H0.57V19.9789ZM5.143 2.56914C5.14315 2.90694 5.07666 3.24139 4.94739 3.55306C4.81812 3.86474 4.62865 4.14742 4.39 4.38467C3.9064 4.86891 3.25181 5.13996 2.57 5.13829C1.88939 5.13783 1.23631 4.86747 0.752 4.38568C0.514211 4.14762 0.325386 3.86462 0.196344 3.55291C0.0673015 3.24119 0.000579132 2.90689 0 2.56914C0 1.88706 0.27 1.2342 0.753 0.752608C1.23689 0.270172 1.89024 -0.000301457 2.571 2.52143e-07C3.253 2.52143e-07 3.907 0.27102 4.39 0.752608C4.872 1.2342 5.143 1.88706 5.143 2.56914Z" fill="#333333"/>
</svg>
