<svg width="92" height="96" viewBox="0 0 92 96" fill="none" xmlns="http://www.w3.org/2000/svg">
<g clip-path="url(#clip0_772_1962)">
<path d="M29.0015 72H78.6009V61.5669H29.0015V72ZM47.6956 41.1165H78.6023V30.6835H47.6956V41.1165ZM13.3984 0V25.6769H23.6886V10.4331H78.6009V0H13.3984ZM42.3868 30.7501H13.3984V71.9376H23.6886V41.1832H42.3868V30.7501Z" fill="#9DBC78"/>
<path d="M0 95.4674V84.4727H8.09024V86.471H2.12306V89.4754H7.76808V91.3945H2.12306V95.4674H0Z" fill="#9DBC78"/>
<path d="M17.9504 95.4675H9.52344V84.457H17.9504V86.471H11.6305V89.0026H17.7254V90.9377H11.6305V93.4231H17.9504V95.4675Z" fill="#9DBC78"/>
<path d="M22.8359 95.4674V84.4727H30.9261V86.471H24.959V89.4754H30.604V91.3945H24.959V95.4674H22.8359Z" fill="#9DBC78"/>
<path d="M32.5625 95.4675V84.457H34.6697V95.4675H32.5625Z" fill="#9DBC78"/>
<path d="M44.0651 84.4414H46.1882V95.4674H44.869V95.4834L38.9512 88.0435V95.4674H36.8281V84.457H38.5492L44.0651 91.2834V84.4414Z" fill="#9DBC78"/>
<path d="M56.1275 93.3911H50.2417L49.2767 95.4675H46.9766L52.0266 84.457H54.3426L59.3926 95.4675H57.0766L56.1275 93.3911ZM53.1846 86.7691L51.0934 91.4569H55.2742L53.1832 86.7691H53.1846Z" fill="#9DBC78"/>
<path d="M67.7525 84.4414H69.8756V95.4674H68.5565V95.4834L62.6387 88.0435V95.4674H60.5156V84.457H62.2367L67.7525 91.2834V84.4414Z" fill="#9DBC78"/>
<path d="M81.7453 94.0841C80.5873 95.2006 79.0912 95.7206 77.4672 95.7206C73.2865 95.7206 71.5161 92.9046 71.5001 90.0415C71.4841 87.1634 73.3982 84.2383 77.4672 84.2383C78.9953 84.2383 80.4421 84.8046 81.6002 85.9216L80.1853 87.2585C79.4452 86.5503 78.4482 86.221 77.4672 86.221C74.7492 86.221 73.5753 88.2024 73.5912 90.0433C73.6072 91.8681 74.6854 93.7713 77.4672 93.7713C78.4482 93.7713 79.5584 93.3784 80.2971 92.6548L81.7439 94.085L81.7453 94.0841Z" fill="#9DBC78"/>
<path d="M91.3333 95.4675H82.9062V84.457H91.3333V86.471H85.0133V89.0026H91.1082V90.9377H85.0133V93.4231H91.3333V95.4675Z" fill="#9DBC78"/>
</g>
<defs>
<clipPath id="clip0_772_1962">
<rect width="92" height="96" fill="white"/>
</clipPath>
</defs>
</svg>
