<svg width="78" height="49" viewBox="0 0 78 49" fill="none" xmlns="http://www.w3.org/2000/svg">
<path d="M53.5684 48.3015C53.5757 45.3247 53.5744 41.8932 53.5684 38.9164H55.0196C56.2076 40.4198 59.4583 44.5244 59.5943 44.6898C59.5943 42.8147 59.6023 40.6984 59.5862 38.9164H61.3743C61.3663 41.8818 61.3683 45.3361 61.3743 48.3015H60.2566C58.8623 46.5067 55.4495 42.0947 55.3524 41.9742C55.3444 42.155 55.3524 42.3191 55.3524 42.4329C55.3524 44.2833 55.3451 46.4511 55.3584 48.3015H53.5684Z" fill="#020202"/>
<path d="M6.95573 40.8907C6.90416 40.8506 6.85527 40.8104 6.79969 40.7628C5.95922 40.0302 4.91785 39.9833 3.87112 40.3456C3.74643 40.3943 3.63007 40.4621 3.52623 40.5465C2.87998 41.0334 2.96704 41.8759 3.69968 42.2114C4.1611 42.4223 4.65935 42.4846 5.15693 42.5462C5.79783 42.6279 6.43538 42.7264 7.04747 42.9434C8.29377 43.3847 8.91926 44.183 8.94404 45.363C8.97217 46.7278 8.37079 47.6647 7.14659 48.1589C6.44408 48.4429 5.70876 48.5373 4.95669 48.5373C3.96555 48.5199 3.0032 48.3893 2.1547 47.8167C1.63435 47.4658 1.26803 46.9863 1.00015 46.4244V46.4197C0.933181 46.2778 2.48754 45.6161 2.48888 45.6161C3.06414 46.6675 4.04926 46.9287 5.1422 46.9374C5.56686 46.9477 5.9885 46.8633 6.37644 46.6903C6.87068 46.4613 7.18543 46.1043 7.18007 45.5331C7.17605 44.9873 6.83384 44.6913 6.37644 44.4877C5.75564 44.2097 5.07858 44.1964 4.42228 44.0859C3.83027 43.9928 3.24563 43.8628 2.70251 43.5909C0.987426 42.7337 0.822012 40.3724 2.41253 39.2989C3.42511 38.6158 4.56961 38.508 5.75028 38.6352C6.6557 38.731 7.48679 39.0136 8.13706 39.6974C8.24154 39.8065 8.32927 39.8983 8.39958 39.9793L6.95573 40.8907Z" fill="#020202"/>
<path d="M46.121 38.9165C46.1083 39.8755 46.1156 41.1184 46.1156 42.0774H46.0929C46.0929 42.9353 46.1203 43.7945 46.0875 44.6517C45.9844 47.3546 44.0563 48.6947 41.5724 48.469C40.0449 48.3351 38.8629 47.6426 38.224 46.1847C37.9946 45.6511 37.8781 45.0758 37.8818 44.495C37.8771 42.7445 37.8871 40.6644 37.873 38.9138H39.6491C39.639 40.5753 39.6451 42.563 39.643 44.2245C39.643 44.8486 39.7288 45.454 40.1118 45.9657C40.7594 46.8363 41.6695 46.9943 42.6567 46.7994C43.5942 46.6139 44.0804 45.9516 44.2686 45.0482C44.3221 44.7747 44.3472 44.4964 44.3436 44.2178C44.3403 42.5563 44.3476 40.574 44.3363 38.9125L46.121 38.9165Z" fill="#020202"/>
<path d="M76.0389 48.3015C75.2352 46.4705 74.3258 44.3811 73.5242 42.5488C73.2971 42.0305 73.0714 41.5121 72.8103 40.9154C72.3736 41.92 71.9731 42.8448 71.5673 43.769C70.9425 45.1927 70.1978 46.875 69.579 48.3015H67.6309C67.9316 47.6244 68.2202 46.9681 68.5135 46.3131C69.581 43.931 70.7597 41.3012 71.8225 38.9164H73.7954C75.1301 41.9092 76.6583 45.3113 77.999 48.3015H76.0389Z" fill="#020202"/>
<path d="M31.5731 48.3015C29.7455 48.2907 27.6253 48.3015 25.7977 48.3015H24.9632C24.9559 47.0083 24.9599 44.8746 24.9599 43.5821C24.9599 42.1443 24.9706 40.3542 24.9512 38.9164H26.7513C26.7419 41.2791 26.7513 44.2833 26.7392 46.6453H27.0801C28.4731 46.6299 30.1801 46.658 31.5731 46.6453V48.3015Z" fill="#020202"/>
<path d="M15.9447 48.3084C15.9534 46.8351 15.9494 45.0885 15.9494 43.6206C15.9494 42.1526 15.9554 40.39 15.9434 38.9193H17.7073C17.6986 41.8941 17.7 45.337 17.7073 48.3111L15.9447 48.3084Z" fill="#020202"/>
<path d="M19.0371 21.1757C22.1545 24.6119 26.0019 26.3263 30.6456 25.9874C34.4199 25.7115 37.5816 24.0808 40.0119 21.175C42.7369 17.917 43.7434 14.1386 42.9974 9.95633C42.2513 5.7741 39.9168 2.65668 36.3004 0.462769C36.9747 0.593766 37.6319 0.801144 38.2593 1.08089C43.3094 3.31298 46.38 7.12286 47.3584 12.5775C47.6226 14.0958 47.6293 15.6477 47.3785 17.1682C47.3551 17.3149 47.3711 17.4113 47.491 17.5152C47.9526 17.9114 48.2579 18.4591 48.3522 19.0601C48.3924 19.2992 48.5009 19.3354 48.7125 19.32C49.5878 19.253 50.3359 19.5316 50.9279 20.1906C51.0009 20.2716 51.0852 20.3459 51.0986 20.504C50.8361 20.2642 50.6104 20.0231 50.3131 19.8705C49.7104 19.5604 49.0768 19.478 48.438 19.7044C48.1493 19.8068 48.0823 19.7178 48.0422 19.4633C47.9865 19.0635 47.8274 18.6852 47.5807 18.3657C46.5092 17.0062 44.2068 17.3564 43.4735 18.9871C43.2056 19.5899 43.1387 20.21 43.3536 20.8395C43.4454 21.1074 43.3925 21.1168 43.1306 21.0793C42.3411 20.9667 41.5756 21.1067 40.995 21.6666C40.4378 22.2023 40.111 22.8908 40.1693 23.7058C40.1753 23.7935 40.1693 23.8819 40.1693 23.9958C39.7366 23.8859 39.3167 23.7949 38.8788 23.8002C37.0632 23.8143 35.4667 25.2675 35.2946 27.0817C35.2852 27.1815 35.2356 27.2913 35.2631 27.3784C35.4406 27.9496 35.0963 28.182 34.6831 28.4787C33.3042 29.4718 33.3263 31.2459 34.6831 32.2691C34.9684 32.4848 35.2919 32.6328 35.5953 32.8183C35.0054 32.7077 34.458 32.4353 34.0141 32.0314C33.751 31.8045 33.5409 31.5226 33.3984 31.2057C33.256 30.8888 33.1848 30.5445 33.1897 30.1971C33.1897 29.9172 33.0919 29.869 32.8435 29.871C30.087 29.8978 27.4987 29.2535 25.1139 27.8619C22.4284 26.2995 20.4194 24.1029 19.076 21.2962C19.0603 21.257 19.0473 21.2167 19.0371 21.1757Z" fill="url(#paint0_linear_1396_4)"/>
<path d="M49.0216 21.5458L49.26 22.2784H50.0301L49.4073 22.7311L49.645 23.4638L49.0216 23.0111L48.3987 23.4638L48.6365 22.7311L48.0137 22.2784H48.7838L49.0216 21.5458Z" fill="url(#paint1_linear_1396_4)"/>
<path d="M40.1707 25.851L40.4084 26.5836H41.1786L40.5557 27.0363L40.7935 27.769L40.1707 27.3162L39.5472 27.769L39.7849 27.0363L39.1621 26.5836H39.9323L40.1707 25.851Z" fill="url(#paint2_linear_1396_4)"/>
<path d="M37.7655 29.7699L37.8914 30.157H38.2986L37.9691 30.3967L38.095 30.7838L37.7655 30.5447L37.436 30.7838L37.5619 30.3967L37.2324 30.157H37.6396L37.7655 29.7699Z" fill="url(#paint3_linear_1396_4)"/>
<path d="M42.3827 22.9061L42.5086 23.2939H42.9158L42.5863 23.533L42.7122 23.92L42.3827 23.681L42.0532 23.92L42.1791 23.533L41.8496 23.2939H42.2568L42.3827 22.9061Z" fill="url(#paint4_linear_1396_4)"/>
<path d="M45.9374 18.995L46.0633 19.3827H46.4705L46.1416 19.6218L46.2669 20.0096L45.9374 19.7698L45.6079 20.0096L45.7338 19.6218L45.4043 19.3827H45.8121L45.9374 18.995Z" fill="url(#paint5_linear_1396_4)"/>
<defs>
<linearGradient id="paint0_linear_1396_4" x1="19.8146" y1="23.1339" x2="47.6645" y2="11.9246" gradientUnits="userSpaceOnUse">
<stop stop-color="#F7941E"/>
<stop offset="1" stop-color="#FDBE38"/>
</linearGradient>
<linearGradient id="paint1_linear_1396_4" x1="48.0137" y1="22.5048" x2="50.0301" y2="22.5048" gradientUnits="userSpaceOnUse">
<stop stop-color="#F7941E"/>
<stop offset="1" stop-color="#FDBE38"/>
</linearGradient>
<linearGradient id="paint2_linear_1396_4" x1="39.1621" y1="26.81" x2="41.1786" y2="26.81" gradientUnits="userSpaceOnUse">
<stop stop-color="#F7941E"/>
<stop offset="1" stop-color="#FDBE38"/>
</linearGradient>
<linearGradient id="paint3_linear_1396_4" x1="37.2324" y1="30.2769" x2="38.2986" y2="30.2769" gradientUnits="userSpaceOnUse">
<stop stop-color="#F7941E"/>
<stop offset="1" stop-color="#FDBE38"/>
</linearGradient>
<linearGradient id="paint4_linear_1396_4" x1="41.8496" y1="23.4131" x2="42.9158" y2="23.4131" gradientUnits="userSpaceOnUse">
<stop stop-color="#F7941E"/>
<stop offset="1" stop-color="#FDBE38"/>
</linearGradient>
<linearGradient id="paint5_linear_1396_4" x1="45.4043" y1="19.502" x2="46.4705" y2="19.502" gradientUnits="userSpaceOnUse">
<stop stop-color="#F7941E"/>
<stop offset="1" stop-color="#FDBE38"/>
</linearGradient>
</defs>
</svg>
