<svg width="73" height="62" viewBox="0 0 73 62" fill="none" xmlns="http://www.w3.org/2000/svg">
<path d="M31.0762 59.5238C25.4208 59.5238 19.8925 57.8509 15.1902 54.7167C10.488 51.5824 6.82302 47.1276 4.65882 41.9156C2.49461 36.7035 1.92836 30.9683 3.03166 25.4352C4.13496 19.9022 6.85827 14.8197 10.8572 10.8306C14.8561 6.84145 19.9511 4.12481 25.4978 3.02422C31.0444 1.92362 36.7937 2.48848 42.0186 4.64739C47.2434 6.80629 51.7092 10.4623 54.8511 15.153C57.9931 19.8437 59.6701 25.3585 59.6701 31C59.6615 38.5623 56.6462 45.8126 51.2857 51.16C45.9251 56.5074 38.6571 59.5153 31.0762 59.5238ZM31.0762 0C24.9299 0 18.9216 1.81812 13.8112 5.22444C8.70073 8.63076 4.71762 13.4723 2.36554 19.1368C0.0134648 24.8013 -0.601946 31.0344 0.597133 37.0478C1.79621 43.0612 4.75593 48.5848 9.102 52.9203C13.4481 57.2557 18.9853 60.2081 25.0135 61.4043C31.0417 62.6004 37.2901 61.9865 42.9685 59.6402C48.6469 57.2939 53.5003 53.3205 56.915 48.2226C60.3297 43.1247 62.1523 37.1312 62.1523 31C62.1523 22.7783 58.8782 14.8933 53.0503 9.07968C47.2224 3.26606 39.3181 0 31.0762 0Z" fill="#2A363B"/>
<path d="M31.0735 51.7097C26.9661 51.7161 22.9491 50.5069 19.5308 48.2351C16.1126 45.9634 13.4466 42.7313 11.8704 38.9477C10.2941 35.1641 9.87842 30.9991 10.6758 26.9797C11.4732 22.9603 13.4479 19.2672 16.35 16.3677C19.2521 13.4682 22.9512 11.4926 26.9792 10.691C31.0072 9.88926 35.1831 10.2975 38.9784 11.864C42.7738 13.4305 46.018 16.0849 48.3006 19.4912C50.5833 22.8976 51.8016 26.9028 51.8017 31.0002C51.8017 36.4871 49.6188 41.7498 45.7325 45.6327C41.8461 49.5155 36.5739 51.7012 31.0735 51.7097ZM31.0735 8.52197C26.6104 8.52197 22.2476 9.84218 18.5367 12.3157C14.8258 14.7891 11.9335 18.3048 10.2255 22.418C8.51759 26.5312 8.07071 31.0573 8.94142 35.4239C9.81212 39.7905 11.9613 43.8014 15.1172 46.9495C18.273 50.0977 22.2938 52.2416 26.6711 53.1101C31.0484 53.9787 35.5856 53.5329 39.709 51.8292C43.8323 50.1254 47.3566 47.2402 49.8361 43.5384C52.3157 39.8366 53.6391 35.4845 53.6391 31.0323C53.6391 25.0622 51.2617 19.3366 47.0298 15.1151C42.7979 10.8936 37.0583 8.52197 31.0735 8.52197Z" fill="#2A363B"/>
<path d="M33.8811 47.4006L14.5391 27.4629L23.3074 19.3591L34.6225 31.3861L63.6355 1.92969L71.6946 10.2907L33.8811 47.4006Z" fill="#2A363B"/>
<path d="M33.8811 47.4006L14.5391 27.4629L23.3074 19.3591L34.6225 31.3861L63.6355 1.92969L71.6946 10.2907L33.8811 47.4006Z" stroke="white" stroke-miterlimit="10"/>
</svg>
