<svg width="56" height="72" viewBox="0 0 56 72" fill="none" xmlns="http://www.w3.org/2000/svg">
<path d="M27.7101 71.0304L26.4099 67.9936C26.1934 67.5056 25.9218 67.0468 25.601 66.627C23.0582 64.0155 20.1315 61.8519 16.9336 60.2194C13.9135 58.5567 11.0163 56.6585 8.26613 54.5406C5.62506 52.1756 3.51457 49.2256 2.08599 45.9021C0.657416 42.5787 -0.0538558 38.9642 0.00317797 35.3178C-0.0129264 32.3482 0.537208 29.4053 1.6211 26.663C2.63518 24.2837 3.16652 21.7084 3.18123 19.1014C3.24371 17.0167 2.86888 14.9431 2.08336 13.0278L1.6211 12.1471L2.40117 11.3879L14.4489 0L15.4023 0.819932C19.0371 3.50758 23.3817 4.93067 27.8256 4.88922C32.2301 4.90535 36.5308 3.48345 40.1334 0.819932L41.0868 0L53.799 12.1471L53.3367 13.1796C52.5512 15.095 52.1764 17.1685 52.2389 19.2532C52.2536 21.8603 52.7849 24.4355 53.799 26.8148C54.8829 29.5572 55.433 32.5001 55.4169 35.4696C55.4711 39.0862 54.7696 42.6711 53.3618 45.9716C51.9541 49.272 49.8744 52.2075 47.2696 54.571C44.5151 56.6821 41.6183 58.58 38.6021 60.2498C35.4105 61.8934 32.4854 64.0559 29.9347 66.6574V66.8092C29.6082 67.2137 29.336 67.6632 29.1257 68.1454L27.7101 71.0304Z" fill="#2A363B"/>
<path d="M52.0069 40.8447C52.4226 39.0346 52.636 37.1798 52.6425 35.3177C52.6428 32.7569 52.1719 30.2201 51.2557 27.8472C50.0899 25.0934 49.48 22.1154 49.4645 19.1013C49.453 16.9751 49.7752 14.8615 50.4179 12.8455L40.9415 3.94775C36.9791 6.53781 32.4042 7.90572 27.7381 7.89557C23.0422 7.92617 18.4341 6.55735 14.4481 3.94775L5.08724 12.8455C5.72997 14.8615 6.05209 16.9751 6.04066 19.1013C6.02511 22.1154 5.41518 25.0934 4.24939 27.8472C3.32942 30.218 2.86781 32.7575 2.89149 35.3177C2.89806 37.1798 3.11138 39.0346 3.5271 40.8447H52.0069Z" fill="white"/>
<path d="M28.111 37.1094C25.6376 37.0872 23.2364 36.2315 21.2601 34.6681C19.2839 33.1047 17.837 30.9162 17.1322 28.4242H14.4453V26.1466H16.7566C16.7126 25.5401 16.7126 24.931 16.7566 24.3245C16.7566 23.9601 16.7566 23.5957 16.7566 23.2313H14.4453V20.9537H17.0166C17.6296 18.3239 19.0471 15.9783 21.0515 14.2776C23.0558 12.5768 25.536 11.6149 28.111 11.5396C29.8808 11.5324 31.6303 11.937 33.2338 12.7246C34.8372 13.5122 36.2549 14.6631 37.3851 16.0948L35.9116 19.1316C35.0768 17.7479 33.9255 16.6061 32.5629 15.8104C31.2003 15.0147 29.6697 14.5905 28.111 14.5764C26.3229 14.6233 24.5952 15.2663 23.1775 16.4126C21.7598 17.5589 20.7253 19.1491 20.2236 20.9537H35.1027L34.0337 23.2313H19.588C19.5592 23.595 19.5592 23.9607 19.588 24.3245C19.5439 24.931 19.5439 25.5401 19.588 26.1466H32.4736L31.7802 28.4242H20.5414C21.1616 30.0121 22.2069 31.3768 23.5506 32.3525C24.8943 33.3282 26.4785 33.873 28.111 33.9207C29.2706 33.9031 30.4129 33.6227 31.46 33.0986C32.5071 32.5745 33.4342 31.8191 34.1782 30.884H37.8763C36.9374 32.7562 35.5339 34.3263 33.8146 35.4277C32.0953 36.5291 30.1243 37.1207 28.111 37.1397" fill="#2A363B"/>
<path d="M17.1343 50.1676V44.094C17.1343 44.094 17.1343 43.7904 16.932 43.7904H16.0075C15.9724 43.769 15.9325 43.7578 15.8919 43.7578C15.8514 43.7578 15.8115 43.769 15.7764 43.7904C15.5897 44.1647 15.3229 44.4884 14.9971 44.7361C14.6712 44.9837 14.2951 45.1486 13.8984 45.2177C13.8984 45.2177 13.8984 45.2176 13.8984 45.3999V46.3413C13.8984 46.4931 13.8984 46.5538 14.1007 46.5538H15.1119C15.3719 46.5538 15.4297 46.5538 15.4008 46.8879V51.0179C15.4008 52.6274 15.4008 54.2673 15.4008 55.9071C15.4008 56.1501 15.4008 56.2108 15.7186 56.2108H16.932C17.1632 56.2108 17.2498 56.2108 17.2498 55.9071C17.2498 53.9028 17.2498 51.9289 17.2498 49.8336" fill="white"/>
<path d="M33.8629 56.6359C34.094 56.6359 34.354 56.6359 34.5274 56.3322C34.8452 55.4819 35.2497 54.6923 35.6252 53.9028L37.561 49.9246L39.5834 45.5213L40.479 43.5777V43.3955C39.6123 43.3955 39.6123 43.3955 39.2656 44.094L37.3876 48.1633L35.5386 51.6252L33.5451 55.9982C33.3139 56.5144 33.285 56.5144 33.8629 56.5144" fill="white"/>
<path d="M34.6763 46.7056V45.005C34.6886 44.9205 34.6837 44.8341 34.662 44.7517C34.6404 44.6693 34.6024 44.5926 34.5506 44.5266C34.4987 44.4607 34.4342 44.407 34.3613 44.3691C34.2884 44.3311 34.2087 44.3098 34.1274 44.3065C33.8095 44.3065 33.5784 44.5495 33.5495 44.9746V48.3758C33.5414 48.5481 33.597 48.7171 33.7047 48.8473C33.8124 48.9775 33.9639 49.0588 34.1274 49.0743C34.2072 49.0667 34.2848 49.0425 34.3556 49.0032C34.4265 48.9639 34.4893 48.9103 34.5403 48.8453C34.5914 48.7804 34.6297 48.7055 34.653 48.6249C34.6763 48.5443 34.6843 48.4596 34.6763 48.3758V46.7056ZM35.6297 46.7056C35.6297 47.313 35.6297 47.9203 35.6297 48.5277C35.6221 48.9412 35.4605 49.3351 35.1796 49.6247C34.8987 49.9143 34.5208 50.0765 34.1274 50.0764C33.9314 50.0805 33.7367 50.0434 33.5546 49.9674C33.3725 49.8913 33.2066 49.7779 33.0667 49.6337C32.9268 49.4895 32.8157 49.3174 32.7399 49.1274C32.664 48.9375 32.625 48.7336 32.625 48.5277V44.8835C32.625 44.6776 32.664 44.4737 32.7399 44.2837C32.8157 44.0938 32.9268 43.9217 33.0667 43.7775C33.2066 43.6333 33.3725 43.5199 33.5546 43.4438C33.7367 43.3678 33.9314 43.3307 34.1274 43.3348C34.5212 43.3498 34.8951 43.521 35.1738 43.814C35.4525 44.1069 35.6154 44.4999 35.6297 44.9139C35.6006 45.5006 35.6006 46.0885 35.6297 46.6752" fill="white"/>
<path d="M28.3109 54.6619C28.0758 54.7405 27.8217 54.7286 27.5942 54.6285C27.3666 54.5284 27.1803 54.3465 27.0685 54.1153C27.0257 53.9359 27.0257 53.7481 27.0685 53.5687V46.7359C27.0428 46.5899 27.0483 46.4398 27.0846 46.2963C27.1208 46.1528 27.187 46.0196 27.2782 45.9062C27.3694 45.7929 27.4835 45.7023 27.6121 45.641C27.7408 45.5796 27.8807 45.5491 28.022 45.5516C28.161 45.5467 28.2994 45.5729 28.4281 45.6285C28.5568 45.6841 28.6727 45.7677 28.7683 45.874C28.8639 45.9802 28.937 46.1065 28.9826 46.2447C29.0283 46.3828 29.0455 46.5295 29.0332 46.6752C29.0332 48.9224 29.0332 51.2 29.0332 53.4472C29.0856 53.7086 29.0397 53.9811 28.905 54.2076C28.7703 54.4341 28.5574 54.597 28.3109 54.6619ZM30.9111 46.7663C30.9111 45.9609 30.6067 45.1885 30.0649 44.6189C29.5231 44.0494 28.7882 43.7295 28.022 43.7295C27.2557 43.7295 26.5208 44.0494 25.979 44.6189C25.4372 45.1885 25.1328 45.9609 25.1328 46.7663C25.1328 49.1046 25.1328 51.4429 25.1328 53.7812C25.1787 54.0905 25.2766 54.3887 25.4217 54.6619C25.5876 55.0596 25.8327 55.4152 26.1405 55.7048C26.4483 55.9945 26.8116 56.2114 27.2059 56.3409C27.6002 56.4704 28.0163 56.5095 28.4262 56.4556C28.8361 56.4017 29.2303 56.2561 29.5821 56.0285C30.0008 55.7675 30.345 55.393 30.5788 54.9443C30.8126 54.4955 30.9274 53.9889 30.9111 53.4776V50.1371C30.9111 48.9831 30.9111 47.8292 30.9111 46.6752" fill="white"/>
<path d="M21.1244 54.6623C20.8586 54.6244 20.6171 54.48 20.4502 54.2593C20.2833 54.0386 20.204 53.7587 20.2288 53.478V46.7363C20.2288 46.4464 20.3383 46.1683 20.5334 45.9633C20.7285 45.7583 20.993 45.6431 21.2689 45.6431C21.5447 45.6431 21.8093 45.7583 22.0043 45.9633C22.1994 46.1683 22.3089 46.4464 22.3089 46.7363V53.478C22.3128 53.6255 22.2889 53.7725 22.2387 53.9103C22.1885 54.0482 22.113 54.1743 22.0164 54.2815C21.9198 54.3887 21.8041 54.4748 21.6758 54.5349C21.5475 54.595 21.4093 54.628 21.2689 54.632M24.158 46.6452C24.1189 46.2629 24.011 45.892 23.8402 45.552C23.6145 44.9518 23.2128 44.4427 22.6933 44.0987C22.1738 43.7547 21.5635 43.5936 20.9511 43.6388C20.2805 43.7302 19.6617 44.066 19.2024 44.5876C18.7431 45.1092 18.4724 45.7836 18.4375 46.4934C18.4375 47.6777 18.4375 48.8621 18.4375 50.016C18.4375 51.17 18.4375 52.324 18.4375 53.478C18.4455 54.1337 18.6553 54.7692 19.0355 55.2892C19.4157 55.8092 19.9458 56.1859 20.5466 56.3629C20.9604 56.4711 21.3919 56.4816 21.81 56.3937C22.2282 56.3058 22.6227 56.1218 22.9651 55.8547C23.3076 55.5876 23.5896 55.2442 23.7908 54.849C23.9921 54.4538 24.1076 54.0167 24.1291 53.5691C24.1291 51.2308 24.1291 48.8924 24.1291 46.5541" fill="white"/>
<path d="M40.0771 53.1435V54.8441C40.0852 54.9248 40.0771 55.0064 40.0531 55.0836C40.0292 55.1608 39.9901 55.2318 39.9383 55.2919C39.8865 55.3521 39.8231 55.4002 39.7525 55.4329C39.6818 55.4656 39.6054 55.4823 39.5282 55.4818C39.4523 55.4868 39.3764 55.4742 39.3057 55.445C39.235 55.4158 39.1712 55.3706 39.1189 55.3127C39.0666 55.2548 39.0269 55.1856 39.0028 55.1099C38.9787 55.0342 38.9706 54.9538 38.9792 54.8745V51.3822C38.9753 51.3024 38.9864 51.2226 39.0119 51.1473C39.0374 51.0721 39.0768 51.0028 39.1278 50.9436C39.1788 50.8843 39.2404 50.8363 39.3091 50.8021C39.3778 50.7679 39.4522 50.7483 39.5282 50.7444C39.6788 50.7723 39.8158 50.8541 39.9158 50.9758C40.0158 51.0975 40.0728 51.2518 40.0771 51.4125C40.0771 51.9895 40.0771 52.5665 40.0771 53.1435ZM39.4704 49.803C39.0946 49.8185 38.7387 49.9843 38.4755 50.2666C38.2123 50.5489 38.0618 50.9262 38.0547 51.3214V54.9959C38.0696 55.3961 38.2314 55.7746 38.5062 56.052C38.7809 56.3295 39.1472 56.4843 39.5282 56.484C39.7165 56.4921 39.9044 56.4606 40.081 56.3914C40.2576 56.3221 40.4192 56.2165 40.5565 56.0808C40.6937 55.945 40.8038 55.7818 40.8802 55.6007C40.9567 55.4196 40.9979 55.2244 41.0016 55.0263C41.0016 53.7812 41.0016 52.5361 41.0016 51.2911C40.9792 50.8775 40.8031 50.4898 40.5113 50.2114C40.2194 49.9331 39.8352 49.7864 39.4415 49.803" fill="white"/>
</svg>
