<svg width="71" height="72" viewBox="0 0 71 72" fill="none" xmlns="http://www.w3.org/2000/svg">
<path d="M35.2188 35.9831L64.485 53.0109C68.9561 45.1876 70.1651 35.897 67.8468 27.1768C65.5285 18.4566 59.8721 11.0189 52.1184 6.49521C47.0028 3.45135 41.1596 1.87209 35.2188 1.92769V35.9831Z" fill="white"/>
<path d="M36.6697 3.42551C41.871 3.58181 46.9435 5.09244 51.3934 7.81034C58.6159 12.0115 63.9514 18.858 66.2889 26.924C68.6263 34.99 67.7854 43.6536 63.9413 51.1105L36.6697 35.1424V3.42551ZM64.993 54.9837L65.7183 53.7413C70.3861 45.5896 71.6521 35.9045 69.2383 26.813C66.8244 17.7215 60.928 9.96701 52.844 5.25252C47.5115 2.07294 41.4149 0.429792 35.219 0.5023H33.8047V36.8232L64.993 54.9837Z" fill="#2A363B"/>
<path d="M35.2115 35.9829L5.94531 53.0106C10.435 60.823 17.8168 66.5223 26.4714 68.8581C35.126 71.194 44.3468 69.9759 52.1112 65.4708C57.2816 62.5282 61.5573 58.2202 64.4777 53.0106L35.2115 35.9829Z" fill="#2A363B"/>
<path d="M62.4883 53.5222C59.7733 58.0002 55.9491 61.6898 51.3911 64.2285C44.168 68.4473 35.6057 69.6888 27.495 67.6934C19.3843 65.6981 12.3533 60.6203 7.87259 53.5222L35.1442 37.6638L62.4883 53.5222ZM35.2893 71.5C41.4572 71.4958 47.5137 69.8441 52.8417 66.7132C58.2154 63.638 62.6638 59.1559 65.716 53.7415L66.4413 52.4991L35.2167 34.229L3.99219 52.4991L4.7175 53.7415C7.02497 57.7816 10.1038 61.3212 13.7762 64.1559C17.4486 66.9907 21.642 69.0645 26.1141 70.2576C29.1027 71.0875 32.1892 71.5055 35.2893 71.5Z" fill="#2A363B"/>
<path d="M35.2149 35.9827V1.92725C26.2537 1.93692 17.6622 5.528 11.3257 11.9125C4.98915 18.2971 1.42507 26.9536 1.41547 35.9827C1.36029 41.9685 2.92767 47.856 5.94865 53.0104L35.2149 35.9827Z" fill="white"/>
<path d="M33.8017 35.1423L6.4938 51.0373C4.03637 46.4106 2.78833 41.2297 2.86725 35.9827C2.86863 27.5859 6.08613 19.5136 11.8491 13.4483C17.6121 7.38294 25.476 3.79254 33.8017 3.42541V35.1423ZM5.4421 54.9836L36.6666 36.7135V0.502197H35.216C25.8827 0.521508 16.937 4.26582 10.3373 10.9155C3.73761 17.5652 0.0214478 26.5786 0.00228268 35.9827C-0.0696802 42.2255 1.56111 48.3683 4.71679 53.7412L5.4421 54.9836Z" fill="#2A363B"/>
<path d="M20.7109 35.9828C20.7109 38.8736 21.5617 41.6994 23.1557 44.103C24.7496 46.5066 27.0152 48.38 29.6658 49.4863C32.3165 50.5925 35.2332 50.882 38.0471 50.318C40.8611 49.754 43.4458 48.362 45.4745 46.3179C47.5033 44.2738 48.8848 41.6695 49.4446 38.8342C50.0043 35.999 49.717 33.0602 48.6191 30.3894C47.5211 27.7187 45.6618 25.436 43.2763 23.83C40.8908 22.2239 38.0862 21.3667 35.2171 21.3667C31.3698 21.3667 27.6801 22.9066 24.9597 25.6476C22.2393 28.3887 20.7109 32.1063 20.7109 35.9828Z" fill="white"/>
<path d="M35.2174 22.8282C37.7996 22.8282 40.3237 23.5997 42.4707 25.0451C44.6177 26.4905 46.291 28.545 47.2792 30.9486C48.2673 33.3523 48.5259 35.9972 48.0221 38.5489C47.5184 41.1007 46.2749 43.4446 44.4491 45.2842C42.6232 47.1239 40.2969 48.3768 37.7644 48.8843C35.2319 49.3919 32.6068 49.1314 30.2213 48.1358C27.8357 47.1401 25.7967 45.4541 24.3621 43.2909C22.9275 41.1276 22.1618 38.5843 22.1618 35.9826C22.1618 32.4939 23.5373 29.148 25.9857 26.681C28.4341 24.2141 31.7549 22.8282 35.2174 22.8282ZM35.2174 52.0603C38.3646 52.0603 41.4413 51.1204 44.0586 49.3594C46.6759 47.5984 48.7165 45.0953 49.9226 42.1663C51.1286 39.2373 51.446 36.0138 50.8346 32.9031C50.2233 29.7924 48.7106 26.9341 46.4877 24.6893C44.2648 22.4444 41.4314 20.9138 38.3455 20.2907C35.2596 19.6677 32.0597 19.9801 29.15 21.1886C26.2402 22.3971 23.7513 24.4475 21.9976 27.0806C20.2439 29.7138 19.304 32.8116 19.2969 35.9826C19.3065 40.234 20.9869 44.3086 23.9705 47.3148C26.9541 50.321 30.998 52.0141 35.2174 52.0238" fill="#2A363B"/>
</svg>
