<svg width="59" height="79" viewBox="0 0 59 79" fill="none" xmlns="http://www.w3.org/2000/svg">
<path d="M51.8155 28.3974H47.3907V22.7179C47.4934 20.0353 47.0559 17.3594 46.1044 14.8506C45.1529 12.3418 43.7071 10.0516 41.8535 8.11725C39.9998 6.18285 37.7765 4.64402 35.3167 3.5929C32.8568 2.54178 30.211 2 27.5378 2C24.8645 2 22.2187 2.54178 19.7589 3.5929C17.299 4.64402 15.0757 6.18285 13.2221 8.11725C11.3684 10.0516 9.9226 12.3418 8.97115 14.8506C8.01969 17.3594 7.58218 20.0353 7.68483 22.7179V28.3974H3.40656C3.03084 28.4051 2.67311 28.5604 2.41014 28.83C2.14717 29.0996 1.99992 29.4619 2 29.8393V65.4465C2 66.9606 2.59894 68.4127 3.66505 69.4833C4.73116 70.5539 6.17712 71.1554 7.68483 71.1554H47.3907C48.8984 71.1554 50.3444 70.5539 51.4105 69.4833C52.4766 68.4127 53.0755 66.9606 53.0755 65.4465V29.8393C53.0782 29.4856 52.9513 29.1432 52.719 28.8774C52.4866 28.6115 52.1651 28.4407 51.8155 28.3974" fill="#2A363B"/>
<path d="M10.5254 22.7179C10.5254 18.1834 12.3192 13.8347 15.512 10.6283C18.7048 7.42192 23.0353 5.62061 27.5506 5.62061C32.066 5.62061 36.3964 7.42192 39.5892 10.6283C42.7821 13.8347 44.5758 18.1834 44.5758 22.7179V28.4268H41.6455V22.7179C41.4794 19.0486 39.9111 15.5849 37.2668 13.0473C34.6224 10.5097 31.1056 9.09354 27.4481 9.09354C23.7905 9.09354 20.2737 10.5097 17.6294 13.0473C14.985 15.5849 13.4167 19.0486 13.2506 22.7179V28.4268H10.3203L10.5254 22.7179Z" fill="white"/>
<path d="M38.8965 22.718V28.4269H16.1865V22.718C16.1083 21.1718 16.344 19.6258 16.8793 18.1739C17.4146 16.722 18.2384 15.3946 19.3005 14.2724C20.3626 13.1503 21.6409 12.2567 23.0576 11.6461C24.4743 11.0356 25.9999 10.7207 27.5415 10.7207C29.0832 10.7207 30.6088 11.0356 32.0255 11.6461C33.4422 12.2567 34.7205 13.1503 35.7826 14.2724C36.8447 15.3946 37.6684 16.722 38.2038 18.1739C38.7391 19.6258 38.9748 21.1718 38.8965 22.718" fill="white"/>
<path d="M50.2364 65.4466C50.2364 66.2271 49.9277 66.9756 49.3782 67.5274C48.8286 68.0793 48.0833 68.3893 47.3061 68.3893H7.68814C6.91097 68.3893 6.16563 68.0793 5.61608 67.5274C5.06654 66.9756 4.75781 66.2271 4.75781 65.4466V31.252H50.2364V65.4466Z" fill="white"/>
<path d="M24.1879 50.0854L23.3088 58.178C23.278 58.379 23.2937 58.5844 23.3547 58.7783C23.4157 58.9723 23.5203 59.1495 23.6605 59.2962C23.7931 59.4452 23.9558 59.5642 24.1376 59.6453C24.3195 59.7265 24.5164 59.768 24.7154 59.7671H30.3709C30.5739 59.7729 30.7756 59.7346 30.9624 59.6547C31.1492 59.5748 31.3165 59.4553 31.453 59.3043C31.5894 59.1533 31.6917 58.9745 31.7527 58.7801C31.8138 58.5856 31.8322 58.3802 31.8068 58.178L30.8984 50.0854C31.6221 49.5623 32.2101 48.8723 32.613 48.0734C33.0158 47.2746 33.2217 46.3902 33.2133 45.4948C33.2182 44.5167 32.9728 43.5539 32.5006 42.6984C32.0284 41.843 31.3453 41.1238 30.5168 40.6097C29.6883 40.0956 28.7422 39.8038 27.7691 39.7624C26.7961 39.7211 25.8288 39.9314 24.9599 40.3733C24.0911 40.8153 23.3499 41.4739 22.8074 42.2862C22.2649 43.0984 21.9393 44.037 21.8618 45.012C21.7843 45.9869 21.9575 46.9655 22.3648 47.8539C22.7722 48.7423 23.3999 49.5107 24.1879 50.0854" fill="#2A363B"/>
<path d="M27.5534 42.6694C28.3305 42.6694 29.0759 42.9795 29.6254 43.5313C30.1749 44.0832 30.4837 44.8317 30.4837 45.6122C30.4714 46.1455 30.3149 46.6655 30.031 47.1165C29.7471 47.5674 29.3465 47.9324 28.872 48.1724C28.612 48.3061 28.3978 48.5149 28.2568 48.7718C28.1158 49.0287 28.0545 49.3221 28.0808 49.6143L28.9013 57.03H26.2933L27.1138 49.6143C27.1401 49.3221 27.0788 49.0287 26.9378 48.7718C26.7969 48.5149 26.5826 48.3061 26.3226 48.1724C25.8481 47.9324 25.4475 47.5674 25.1636 47.1165C24.8797 46.6655 24.7232 46.1455 24.7109 45.6122C24.7109 44.8317 25.0197 44.0832 25.5692 43.5313C26.1188 42.9795 26.8641 42.6694 27.6413 42.6694" fill="white"/>
</svg>
