<svg width="157" height="70" viewBox="0 0 157 70" fill="none" xmlns="http://www.w3.org/2000/svg">
<path d="M35.8387 46.5996H37.5485V69.2839H33.5742V46.5996H35.8387Z" fill="#F8D100"/>
<path d="M35.8387 23.748H37.5485V46.6H33.5742V23.748H35.8387Z" fill="#E3000F"/>
<path d="M23.1964 9.0975C24.3484 10.9353 25.2901 10.8926 26.6555 10.8926C25.5035 10.0393 24.7751 8.88416 24.3911 8.32947L22.2546 4.91296C22.0413 3.84625 21.4866 2.86183 20.6728 2.13646C20.9288 2.05113 21.1848 1.92312 21.3128 1.83779C19.9444 1.83779 18.5364 1.15509 17.811 1.15509C17.3416 1.15509 17.0003 1.45377 17.0003 1.83779C17.043 2.26447 17.4696 2.69116 18.2803 2.69116C18.451 2.69116 18.707 2.64848 18.963 2.60581C19.3897 3.20317 19.7737 3.75786 19.7737 4.57161C19.7737 6.06805 17.9786 7.22009 16.1865 7.22009C16.1012 7.22009 15.9732 7.22009 15.8879 7.22009C15.7172 6.83608 15.2052 6.23872 15.2052 5.51031C15.2052 4.3156 15.9732 3.37385 15.9732 2.17913C15.9732 1.45377 15.6319 0.984417 15.4612 0.810695C15.6745 0.597354 15.9305 0.341346 15.9732 0.170673C15.8452 0.213341 15.6745 0.213341 15.4612 0.213341C14.6078 0.213341 13.8794 0 13.1967 0C12.8127 0 12.6847 0.128004 12.6847 0.256009C12.6847 0.298677 12.6847 0.341345 12.6847 0.341345C12.5567 0.298677 12.386 0.256009 12.258 0.213341C12.0447 0.170673 11.8313 0.170673 11.618 0.170673C10.8073 0.170673 10.5086 0.512017 10.5086 0.810695C10.5086 1.06671 10.722 1.53606 10.9353 1.8774C11.2766 1.70673 11.6607 1.6214 11.8313 1.6214C12.258 1.6214 12.6847 2.04808 12.8554 2.5601C12.5567 2.60277 12.514 2.60277 12.2153 2.60277C11.4046 2.60277 10.8469 2.30409 10.7189 2.30409L10.6762 2.34676C10.6762 2.47476 10.8896 2.77344 11.3589 2.94411C11.9563 3.15746 12.8554 3.2428 12.9834 3.28546C12.9834 3.32813 12.8127 3.58414 12.642 3.62681C12.5994 3.62681 12.5994 3.62681 12.5567 3.62681C11.9167 3.4988 11.746 3.45614 10.9749 3.15746C10.9322 3.15746 10.9322 3.15746 10.9322 3.20013C10.9322 3.49881 11.7429 4.1815 12.4714 4.48018C11.874 5.24821 11.1029 6.06195 10.7616 7.25667C10.6762 7.25667 10.5482 7.25667 10.4629 7.25667C8.66777 7.25667 6.8757 6.10462 6.8757 4.60818C6.8757 3.79748 7.21705 3.23975 7.6864 2.64239C7.94241 2.68506 8.19842 2.72773 8.36909 2.72773C9.17979 2.72773 9.60648 2.30104 9.64915 1.87436C9.64915 1.49034 9.35047 1.19166 8.83845 1.19166C8.07042 1.19166 6.70198 1.87436 5.33659 1.87436C5.4646 1.9597 5.72061 2.0877 5.97662 2.17304C5.16592 2.8984 4.60818 3.88282 4.39484 4.94953L2.26447 8.36909C1.92312 8.92378 1.15509 10.0362 0 10.9322C1.36844 10.9322 2.26447 10.9749 3.45918 9.13712L4.52589 7.38467C4.61123 7.59801 4.69657 7.81136 4.82457 8.06737L2.64544 11.5266C2.30409 12.0812 1.53606 13.1937 0.380968 14.0897C1.7494 14.0897 2.64544 14.1324 3.84015 12.2946L5.72061 9.30475C5.84861 9.43276 6.01929 9.60343 6.14729 9.73143L3.49881 13.9617C3.15746 14.5164 2.38943 15.6288 1.23433 16.5248C2.60277 16.5248 3.54147 16.5675 4.69352 14.7297L7.25667 10.6275C7.42734 10.7128 7.59802 10.8408 7.76869 10.9261L4.65085 15.9244C4.3095 16.5218 3.54147 17.5916 2.38638 18.4876C3.75482 18.4876 4.69352 18.5303 5.84557 16.6925L9.04874 11.5235C9.21941 11.6088 9.43276 11.6515 9.6461 11.7368L6.01624 17.5458C5.67489 18.1005 4.90686 19.2556 3.75177 20.109C5.1202 20.109 6.01624 20.1517 7.21095 18.3139L11.0968 12.1209C11.1395 12.1209 11.1822 12.1209 11.2248 12.1635C11.3102 12.5049 11.3955 12.8036 11.3955 13.1449C11.3955 15.1107 10.1154 16.8174 8.57634 18.1432C8.66168 18.1859 8.83235 18.1859 9.00302 18.1859C9.3017 18.1859 9.51504 18.1859 9.68572 18.1432C9.34437 18.9539 8.57634 19.981 8.18928 20.5357C7.67726 20.4503 6.9519 20.365 6.4795 20.365C5.96748 20.365 5.92481 20.6637 5.92481 20.9197C5.92481 21.389 6.13815 21.7304 6.39416 21.9437C6.4795 21.7304 6.69284 21.389 7.58887 21.389C7.58887 21.389 7.63154 21.389 7.67421 21.389C7.4182 21.6877 6.56483 22.3704 6.56483 22.9281C6.56483 23.3122 6.94885 23.8242 7.50354 23.8242C7.46087 23.6962 7.46087 23.6108 7.46087 23.5255C7.46087 23.0988 7.84488 22.5441 8.18623 22.2028C8.18623 22.3308 8.18623 22.2881 8.18623 22.4161C8.18623 23.4828 8.27157 23.9552 8.95426 23.9552C9.29561 23.9552 9.50895 23.7846 9.59429 23.7419C9.1676 23.3579 9.12493 23.0165 9.12493 22.4192C9.12493 22.2485 9.12493 22.1205 9.12493 21.9072C9.12493 21.7791 9.12493 21.6085 9.08227 21.4805C9.33828 21.4378 9.42361 21.4378 9.59429 21.4378C9.59429 21.4378 10.533 21.3525 10.789 21.8645C11.045 21.6085 11.429 21.3098 11.429 20.9258C11.429 20.6698 11.301 20.4138 10.8317 20.4138C10.661 20.4138 10.0636 20.5418 9.55162 20.5418C9.67962 20.2431 10.277 19.3897 10.789 18.7893C10.8743 19.0453 11.0023 19.3013 11.2584 19.5147C11.301 19.1307 11.5144 17.8476 12.1544 17.1222C12.2397 17.6342 12.3251 18.1462 12.3251 19.216C12.3251 21.8645 11.685 23.7876 10.3593 24.1716C10.5299 24.4703 10.914 24.769 11.298 24.769C11.7673 24.769 12.066 24.2143 12.322 23.7023C12.45 24.0863 12.8767 25.025 13.2607 25.025C13.6447 25.025 14.0287 24.0863 14.1994 23.7023C14.4554 24.2143 14.7541 24.769 15.2235 24.769C15.6075 24.769 15.9915 24.513 16.1622 24.1716C14.8394 23.7876 14.1964 21.8645 14.1964 19.216C14.1964 18.1493 14.2817 17.6342 14.367 17.1222C15.0071 17.8476 15.2204 19.1307 15.2631 19.5147C15.5191 19.3013 15.6471 19.0453 15.7324 18.7893C16.2445 19.4293 16.8418 20.2858 16.9698 20.5418C16.5005 20.5418 15.9031 20.4138 15.6898 20.4138C15.2204 20.4138 15.0924 20.6698 15.0924 20.9258C15.0924 21.3098 15.4764 21.6085 15.7324 21.8645C15.9458 21.3525 16.9271 21.4378 16.9271 21.4378C17.0978 21.4378 17.2258 21.4378 17.4392 21.4805C17.3965 21.6085 17.3965 21.7791 17.3965 21.9072C17.3965 22.1205 17.3965 22.2485 17.3965 22.4192C17.3965 23.0165 17.3538 23.3152 16.9271 23.7419C17.0125 23.7846 17.2258 23.9552 17.5672 23.9552C18.2499 23.9552 18.3352 23.4859 18.3352 22.4161C18.3352 22.2881 18.3352 22.2881 18.3352 22.2028C18.6766 22.5868 19.0606 23.0988 19.0606 23.5255C19.0606 23.6108 19.0606 23.6962 19.0179 23.8242C19.5299 23.8242 19.9566 23.2695 19.9566 22.9281C19.9566 22.3735 19.1032 21.6908 18.8472 21.389C18.8899 21.389 18.9326 21.389 18.9326 21.389C19.8713 21.389 20.0419 21.6877 20.1273 21.9437C20.3833 21.7304 20.5966 21.389 20.5966 20.9197C20.5966 20.6637 20.554 20.365 20.0419 20.365C19.5726 20.365 18.8472 20.4503 18.3322 20.5357C17.9481 19.981 17.1801 18.9539 16.8357 18.1432C16.9637 18.1859 17.1771 18.1859 17.5184 18.1859C17.6891 18.1859 17.8598 18.1859 17.9451 18.1432C16.406 16.8205 15.1259 15.068 15.1259 13.1449C15.1259 12.8462 15.2113 12.5049 15.2966 12.1635C15.3393 12.1635 15.3819 12.1635 15.4246 12.1209L19.3105 18.3139C20.4625 20.1517 21.4043 20.109 22.7697 20.109C21.6603 19.2556 20.8892 18.1005 20.5052 17.5458L16.8753 11.7368C17.0887 11.6942 17.2594 11.6088 17.4727 11.5235L20.6759 16.6925C21.8279 18.5303 22.7697 18.4876 24.1351 18.4876C22.983 17.5916 22.2546 16.5218 21.8706 15.9244L18.7527 10.9261C18.9234 10.8408 19.0941 10.7128 19.2648 10.6275L21.8279 14.7297C22.98 16.5675 23.9217 16.5248 25.2871 16.5248C24.1351 15.6288 23.4066 14.5591 23.0226 13.9617L20.3741 9.73143C20.5448 9.60343 20.6728 9.43276 20.8008 9.30475L22.6813 12.2946C23.8333 14.1324 24.7751 14.0897 26.1405 14.0897C24.9884 13.1937 24.26 12.1239 23.876 11.5266L21.6969 8.06737C21.8249 7.85403 21.9102 7.64068 21.9955 7.38467L23.1964 9.0975ZM5.80899 5.08058C5.80899 3.80053 6.7477 2.77344 7.08904 2.47476C7.17438 2.47476 7.25972 2.51743 7.34505 2.51743C7.00371 2.94412 6.36368 3.66948 6.36368 4.61123C6.36368 6.49168 8.37214 8.15575 10.6793 8.15575C10.6793 8.32642 10.6366 8.4971 10.6366 8.66777C10.6366 8.96645 10.6366 9.22246 10.6793 9.4358C8.11613 9.48152 5.80899 7.38772 5.80899 5.08058ZM9.35351 20.6301V20.6728H9.39618C10.1215 20.6728 10.4629 20.6301 10.7189 20.5875C10.8469 20.5875 10.9322 20.5448 11.0176 20.5448C11.1883 20.5448 11.3589 20.5448 11.3589 20.8008C11.3589 20.9715 11.1883 21.1848 11.0176 21.3555C10.7616 21.0995 10.3776 21.0568 9.82287 21.0568C9.56686 21.0568 9.22551 21.0995 9.05484 21.1422H9.01217H8.9695V21.2275C8.9695 21.3982 9.01217 21.5689 9.01217 21.8249V22.0382V22.3369C9.01217 22.9342 9.0975 23.3183 9.31085 23.5743C9.26818 23.5743 9.18284 23.6169 9.0975 23.6169C8.71349 23.6169 8.58548 23.4463 8.58548 22.3369C8.58548 22.1235 8.58548 21.9102 8.58548 21.7822V21.5689L8.54282 21.6115C7.98813 22.0382 7.39077 22.8062 7.3481 23.4066C7.17743 23.2786 7.00675 23.0653 7.00675 22.852C7.00675 22.5533 7.47611 22.0413 8.0308 21.5292L8.32947 21.2306L8.37214 21.1879L8.28681 21.1452C8.1588 21.1026 7.94546 21.0599 7.77479 21.0599C7.17743 21.0599 6.75074 21.1879 6.5374 21.4439C6.45207 21.3159 6.36673 21.0172 6.36673 20.8465C6.36673 20.7185 6.4094 20.6759 6.45207 20.6332C6.49473 20.5905 6.58007 20.5905 6.66541 20.5905C7.3481 20.5905 8.16185 20.7185 8.46053 20.7612C8.50319 20.6759 9.82896 18.9661 10.1703 18.0274C10.2556 17.9847 10.2983 17.9847 10.469 17.9847C10.725 17.9847 10.8103 18.1554 10.853 18.4114C10.0393 19.3471 9.52724 20.1181 9.35351 20.6301ZM16.3603 17.8963C16.4883 17.8963 16.5736 17.939 16.6589 17.939C17.0003 18.8777 18.2834 20.5875 18.3687 20.6728C18.6674 20.6302 19.5208 20.5021 20.1639 20.5021C20.2492 20.5021 20.3345 20.5021 20.3772 20.5448C20.4199 20.5875 20.4625 20.6728 20.4625 20.7582C20.4625 20.9288 20.3772 21.2275 20.2919 21.3555C20.0358 21.0995 19.6518 20.9715 19.0545 20.9715C18.8838 20.9715 18.6278 21.0142 18.5425 21.0568H18.4998H18.4541L18.7954 21.3982C19.3501 21.9529 19.8195 22.4222 19.8195 22.7209C19.8195 22.8916 19.6488 23.1476 19.4781 23.2756C19.4354 22.6782 18.8381 21.9072 18.2834 21.4805L18.2407 21.4378V21.6511C18.2407 21.7792 18.2407 21.9925 18.2407 22.2058C18.2407 23.3152 18.1127 23.4859 17.7287 23.4859C17.686 23.4859 17.6007 23.4859 17.5154 23.4432C17.7287 23.1872 17.814 22.8459 17.814 22.2058V21.9072V21.6938C17.814 21.4378 17.8567 21.2671 17.8567 21.0965V21.0111H17.814C17.6434 20.9684 17.302 20.9258 17.046 20.9258C16.4913 20.9258 16.15 20.9685 15.8513 21.2245C15.6806 21.0965 15.51 20.8404 15.51 20.6698C15.51 20.4564 15.638 20.4138 15.8513 20.4138C15.9366 20.4138 16.022 20.4138 16.15 20.4564C16.3633 20.4991 16.7473 20.5418 17.4727 20.5418H17.5154V20.4991C17.3447 19.9871 16.8327 19.219 16.0189 18.2346C16.0189 18.067 16.1043 17.8963 16.3603 17.8963ZM13.3278 2.81611C13.2424 2.47476 13.0718 2.13341 12.8584 1.8774C12.6451 1.62139 12.3464 1.36539 11.877 1.36539C11.6637 1.36539 11.3224 1.45072 11.109 1.53606C11.0237 1.40805 10.853 1.02404 10.853 0.853364C10.853 0.68269 11.1517 0.512018 11.6637 0.512018C12.8157 0.512018 13.5442 1.02404 13.5442 1.92312C13.5838 2.26142 13.4558 2.5601 13.3278 2.81611ZM13.8825 1.66406C13.8398 1.40805 13.7545 1.19471 13.5838 0.981373C13.5838 0.768031 13.6691 0.512017 14.0531 0.725359C13.8398 0.938701 14.0105 1.28005 14.0105 1.28005C14.0105 1.28005 14.4371 1.10937 14.3518 0.810695C14.9522 0.978321 14.4798 1.79207 13.8825 1.66406ZM16.1469 9.48152C16.1896 9.22551 16.1896 8.9695 16.1896 8.71349C16.1896 8.58548 16.1896 8.41481 16.1896 8.20147C18.4541 8.1588 20.4199 6.53435 20.4199 4.65695C20.4199 3.71824 19.7798 2.98983 19.4385 2.56315C19.5238 2.56315 19.6092 2.52048 19.6945 2.52048C20.0358 2.81916 20.9745 3.8432 20.9745 5.1263C20.9745 7.34505 18.7101 9.43885 16.1469 9.48152Z" fill="black"/>
<path d="M37.5482 1.15234V23.8763H35.8384H33.5312V1.15234H37.5482Z" fill="black"/>
<path d="M105.895 0.892578C105.212 0.892578 104.743 1.10592 104.527 1.57527C104.356 1.87395 104.271 2.38597 104.271 3.07172V3.79707H103.332V4.52244H104.271V10.2461H105.295V4.52244H106.404V3.79707H105.295V2.85837C105.295 2.51702 105.337 2.21835 105.38 2.09034C105.508 1.877 105.721 1.74899 106.02 1.74899C106.191 1.74899 106.319 1.74899 106.404 1.74899V0.938297C106.237 0.892581 106.109 0.892578 105.895 0.892578ZM45.9217 0.935246V10.2034H48.1862C49.1249 10.2034 49.8106 10.0328 50.2373 9.64874C50.7067 9.26472 50.9627 8.58203 50.9627 7.64028C50.9627 7.00025 50.8774 6.48823 50.664 6.14383C50.4507 5.75982 50.024 5.46114 49.4266 5.33314C49.9386 5.16246 50.3227 4.90645 50.4933 4.56511C50.7067 4.26643 50.792 3.79708 50.792 3.24239C50.792 2.43169 50.5787 1.83128 50.1947 1.44727C49.8106 1.10592 49.2133 0.892578 48.3569 0.892578H45.9217V0.935246ZM68.347 0.935246V4.35177C68.0057 3.83975 67.5363 3.58373 66.8932 3.58373C66.1252 3.58373 65.5705 3.92508 65.2688 4.65044C65.0554 5.16246 64.9274 5.88782 64.9274 6.87224C64.9274 7.89628 65.0128 8.71003 65.2261 9.17939C65.5248 9.90475 66.0795 10.2888 66.9359 10.2888C67.5759 10.2888 68.0879 9.99008 68.4323 9.43539V10.1608H69.4137C69.371 9.5634 69.371 9.17939 69.371 8.96604V0.935246H68.347ZM108.416 1.0663V2.30368H109.354V1.0663H108.416ZM110.381 1.0663V2.30368H111.363V1.0663H110.381ZM47.0311 1.83433H48.0978C48.6525 1.83433 49.0365 1.91967 49.2925 2.13301C49.5912 2.34635 49.7192 2.77304 49.7192 3.32772C49.7192 4.4371 49.2072 4.99484 48.1374 4.99484H46.9854V1.83433H47.0311ZM98.3794 2.13301L97.3554 2.60236V3.79707H96.374V4.52244H97.3554V8.71004C97.3554 9.30739 97.4407 9.69141 97.6114 9.90475C97.8247 10.1608 98.2088 10.2888 98.8061 10.2888C98.9768 10.2888 99.2328 10.2888 99.5742 10.2461V9.43539C99.3181 9.47806 99.1475 9.47806 99.1048 9.47806C98.8061 9.47806 98.6354 9.4354 98.5074 9.30739C98.4221 9.17938 98.3368 8.92337 98.3368 8.58203V4.52244H99.4888V3.79707H98.3368V2.12996H98.3794V2.13301ZM61.5566 3.6264C60.7886 3.6264 60.2339 3.96775 59.8895 4.65044V3.75441H58.8655C58.9081 4.13842 58.9081 4.60777 58.9081 5.16551V10.2065H59.9322V6.3206C59.9322 5.80858 60.0175 5.3819 60.2309 4.99788C60.4869 4.5712 60.7856 4.35786 61.2549 4.35786C61.6816 4.35786 61.9803 4.52853 62.1509 4.91255C62.2363 5.12589 62.2789 5.50991 62.2789 6.06459V10.2095H63.303V5.63791C63.2664 4.31215 62.7087 3.6264 61.5566 3.6264ZM73.3453 3.6264C72.3639 3.6264 71.6782 4.01042 71.3795 4.77845C71.1662 5.29047 71.0808 6.10117 71.0808 7.25626C71.0808 8.2803 71.2088 9.00871 71.4648 9.43539C71.8062 10.0328 72.4035 10.3314 73.3026 10.3314C74.6711 10.3314 75.3964 9.60607 75.4818 8.19497H74.5004C74.4577 9.13367 74.0737 9.60607 73.3483 9.60607C72.8363 9.60607 72.5376 9.39273 72.367 8.96604C72.239 8.66737 72.1963 8.19801 72.1963 7.55494V7.12826H75.5701V6.82958C75.5701 5.80553 75.4848 5.07713 75.2715 4.65044C74.8844 3.9708 74.287 3.6264 73.3453 3.6264ZM78.7703 3.6264C78.2156 3.6264 77.7462 3.75441 77.4018 4.05308C77.0178 4.35176 76.8472 4.77845 76.8472 5.33314C76.8472 5.84516 77.0178 6.22917 77.3592 6.52785C77.5298 6.69853 77.9139 6.91186 78.5112 7.25321C78.9379 7.50922 79.2366 7.6799 79.3646 7.8079C79.5779 8.02124 79.6633 8.27726 79.6633 8.66127C79.6633 9.34396 79.3219 9.64264 78.6819 9.64264C78.1272 9.64264 77.7859 9.3013 77.7432 8.6186C77.7432 8.4906 77.7432 8.40526 77.7432 8.27725H76.7191C76.6765 9.68836 77.3592 10.3711 78.6849 10.3711C80.0534 10.3711 80.6934 9.73103 80.6934 8.4906C80.6934 8.02125 80.5227 7.59456 80.224 7.29588C80.0107 7.08254 79.6694 6.8692 79.1573 6.57052C78.688 6.31451 78.3893 6.14383 78.2613 6.01583C78.0053 5.80249 77.8773 5.54648 77.8773 5.2478C77.8773 4.99179 77.9626 4.77845 78.1333 4.60777C78.304 4.4371 78.5173 4.35177 78.7733 4.35177C79.3707 4.35177 79.6694 4.73578 79.6694 5.54648H80.6934C80.6934 4.90645 80.5227 4.39443 80.224 4.09271C79.9254 3.80012 79.456 3.6264 78.7703 3.6264ZM84.1953 3.6264C83.5552 3.6264 83.0859 3.75441 82.6988 4.01042C82.2721 4.30909 82.0588 4.73578 82.0588 5.33314V5.37581H83.0828V5.33314C83.0828 5.03446 83.1682 4.77845 83.3815 4.60777C83.5948 4.4371 83.8509 4.35177 84.1495 4.35177C84.5762 4.35177 84.8749 4.52244 85.0029 4.86378C85.0882 5.07713 85.1309 5.41847 85.1309 5.97316V6.27184C84.0642 6.27184 83.2931 6.39985 82.8238 6.61319C82.1411 6.91187 81.7571 7.55189 81.7571 8.45098C81.7571 9.00566 81.8851 9.47502 82.1411 9.81941C82.4397 10.1608 82.8664 10.3741 83.4211 10.3741C84.1465 10.3741 84.7012 10.0754 85.1736 9.43539V10.2888H86.1549C86.1123 9.69141 86.0696 9.00871 86.0696 8.23763V5.84516C86.0696 5.07713 85.9416 4.5651 85.6429 4.22071C85.4357 3.80012 84.9237 3.6264 84.1953 3.6264ZM90.5193 3.6264C89.8366 3.6264 89.3246 3.96775 88.9802 4.60777V3.75441H87.9562C87.9988 4.09575 87.9988 4.47977 87.9988 4.86378V10.2034H89.0229V6.23222C89.0229 5.7202 89.1082 5.25085 89.2789 4.95217C89.4922 4.56816 89.7909 4.39748 90.1749 4.39748C90.5589 4.39748 90.8576 4.56816 90.9429 4.86683C91.0283 5.03751 91.0283 5.33618 91.0283 5.80553V10.2065H92.0523V6.14688C92.0523 4.99484 92.4363 4.39443 93.2044 4.39443C93.5884 4.39443 93.8444 4.5651 93.9724 4.86378C94.0577 5.07713 94.1004 5.3758 94.1004 5.84516V10.2034H95.1244V5.80249C95.1244 5.03446 94.9964 4.52244 94.7831 4.17804C94.5271 3.79403 94.1004 3.58069 93.5457 3.58069C92.863 3.58069 92.3083 3.92203 91.9639 4.56206C91.7567 3.9708 91.2447 3.6264 90.5193 3.6264ZM116.532 3.6264C115.806 3.6264 115.252 3.96775 114.907 4.60777V3.75441H113.926C113.969 4.09575 113.969 4.47977 113.969 4.90645V10.2034H114.993V6.18955C114.993 5.67753 115.121 5.29352 115.377 4.99484C115.633 4.69616 115.974 4.52548 116.486 4.52548C116.529 4.52548 116.614 4.52548 116.699 4.56815C116.66 3.9708 116.617 3.6264 116.532 3.6264ZM52.6725 3.75746V8.32907C52.6725 9.65179 53.2698 10.3375 54.4249 10.3375C55.1076 10.3375 55.6623 10.0388 56.0494 9.39882V10.2095H57.0734C57.0307 9.78284 57.0307 9.31349 57.0307 8.79842V3.75746H56.0067V7.68599C56.0067 8.92338 55.58 9.56645 54.7266 9.56645C54.2573 9.56645 54.0013 9.39577 53.8306 9.01176C53.7453 8.79842 53.7026 8.4144 53.7026 7.90238V3.75746H52.6725ZM107.69 3.75746V8.32907C107.69 9.65179 108.288 10.3375 109.443 10.3375C110.125 10.3375 110.68 10.0388 111.067 9.39882V10.2095H112.091C112.049 9.78284 112.049 9.31349 112.049 8.79842V3.75746H111.025V7.68599C111.025 8.92338 110.598 9.56645 109.744 9.56645C109.275 9.56645 108.976 9.39577 108.848 9.01176C108.763 8.79842 108.72 8.4144 108.72 7.90238V3.75746H107.69ZM73.3453 4.35481C73.8573 4.35481 74.1987 4.61082 74.3267 5.12284C74.412 5.37885 74.4547 5.80554 74.4547 6.44556H72.1049C72.1049 6.18955 72.1049 5.89087 72.1475 5.59219C72.2359 4.78149 72.6199 4.35481 73.3453 4.35481ZM67.1523 4.35481C67.6643 4.35481 68.0057 4.65349 68.1763 5.16551C68.3043 5.54953 68.3897 6.14688 68.3897 7.04597C68.3897 7.85667 68.347 8.4144 68.219 8.75575C68.0483 9.31044 67.6643 9.56645 67.1523 9.56645C66.6829 9.56645 66.3416 9.31044 66.1709 8.75575C66.0429 8.37173 65.9576 7.73171 65.9576 6.87529C65.9576 6.10726 66.0002 5.50686 66.1282 5.16551C66.3416 4.65349 66.6829 4.35481 67.1523 4.35481ZM47.0311 5.8482H48.1832C48.7805 5.8482 49.2072 5.97621 49.4632 6.27489C49.7192 6.57357 49.8472 7.00025 49.8472 7.64333C49.8472 8.32602 49.6765 8.79537 49.3779 9.05443C49.1219 9.26777 48.6525 9.3531 48.0094 9.3531H47.0281L47.0311 5.8482ZM84.881 6.96063H85.137V7.72866C85.137 8.24068 85.0517 8.6247 84.881 8.96604C84.6677 9.39273 84.2836 9.60607 83.8143 9.60607C83.1743 9.60607 82.8756 9.17938 82.8756 8.36869C82.8725 7.42998 83.5126 6.96063 84.881 6.96063ZM45.0684 14.6074L47.5035 23.8756H48.8262L51.2614 14.6074H50.1947L48.1862 22.8515L46.2204 14.6074H45.0684ZM61.7273 14.6074V22.6382C61.7273 22.8942 61.7273 23.2782 61.6846 23.8756H62.666V23.1502C63.0074 23.7049 63.5194 24.0036 64.2051 24.0036C65.0585 24.0036 65.6162 23.6196 65.9149 22.8515C66.0856 22.3395 66.2136 21.6142 66.2136 20.5871C66.2136 19.6057 66.1282 18.8773 65.9576 18.4079C65.6589 17.6826 65.1469 17.2986 64.3331 17.2986C63.6931 17.2986 63.1811 17.5546 62.794 18.1093V14.6074H61.7273ZM89.0655 14.6074V23.8756H90.0896V19.9471C90.0896 18.667 90.5163 18.0239 91.4123 18.0239C91.839 18.0239 92.1377 18.1946 92.3083 18.5786C92.3937 18.792 92.4363 19.176 92.4363 19.7307V23.8756H93.4604V19.304C93.4604 17.9355 92.9057 17.2529 91.7506 17.2529C91.0679 17.2529 90.5559 17.5515 90.1262 18.1489V14.6044H89.0655V14.6074ZM115.38 14.6074V23.8756H116.404V19.9471C116.404 18.667 116.83 18.0239 117.726 18.0239C118.153 18.0239 118.452 18.1946 118.623 18.5786C118.708 18.792 118.751 19.176 118.751 19.7307V23.8756H119.775V19.304C119.775 17.9355 119.22 17.2529 118.065 17.2529C117.382 17.2529 116.87 17.5515 116.44 18.1489V14.6044H115.38V14.6074ZM154.979 14.6074V18.0239C154.638 17.5119 154.168 17.2559 153.525 17.2559C152.757 17.2559 152.203 17.5972 151.901 18.3226C151.687 18.8346 151.559 19.56 151.559 20.5444C151.559 21.5684 151.645 22.3395 151.858 22.8515C152.157 23.5769 152.712 23.9609 153.568 23.9609C154.208 23.9609 154.72 23.6622 155.064 23.1076V23.8756H156.046C156.003 23.2782 156.003 22.8942 156.003 22.6382V14.6074H154.979ZM129.22 15.7595L128.195 16.2288V17.4235H127.214V18.1916H128.195V22.3791C128.195 22.9765 128.281 23.3605 128.451 23.6165C128.665 23.8725 129.049 24.0005 129.646 24.0005C129.817 24.0005 130.073 24.0005 130.372 23.9579V23.1472C130.116 23.1898 129.945 23.1898 129.902 23.1898C129.604 23.1898 129.433 23.1472 129.305 23.0192C129.22 22.8912 129.134 22.6778 129.134 22.2938V18.2342H130.286V17.4662H129.134V15.7564H129.22V15.7595ZM54.0379 17.2559C53.0565 17.2559 52.3707 17.6399 52.0721 18.4079C51.8587 18.92 51.7734 19.7307 51.7734 20.8858C51.7734 21.9098 51.9014 22.6382 52.1574 23.0649C52.4987 23.6622 53.0961 24.0036 53.9952 24.0036C55.3636 24.0036 56.089 23.2782 56.1743 21.8245H55.193C55.1503 22.7632 54.7663 23.2356 54.0409 23.2356C53.5289 23.2356 53.2302 23.0222 53.0595 22.5955C52.9315 22.2969 52.8889 21.8275 52.8889 21.1844V20.7578H56.2627V20.4591C56.2627 19.435 56.1774 18.7066 55.964 18.2799C55.577 17.5972 54.9766 17.2559 54.0379 17.2559ZM73.5586 17.2559C72.9186 17.2559 72.4493 17.3839 72.0622 17.6399C71.6355 17.9386 71.4222 18.3653 71.4222 18.9626V19.048H72.4462V18.9626C72.4462 18.664 72.5315 18.4079 72.7449 18.2373C72.9582 18.0666 73.2142 17.9813 73.5129 17.9813C73.9396 17.9813 74.2383 18.1519 74.409 18.4933C74.4943 18.7066 74.537 19.048 74.537 19.6027V19.9013C73.4703 19.9013 72.6992 20.0293 72.2725 20.2427C71.5898 20.5414 71.2058 21.1814 71.2058 22.0805C71.2058 22.6352 71.3338 23.1045 71.5898 23.4489C71.8885 23.7903 72.3152 24.0036 72.8698 24.0036C73.5952 24.0036 74.1499 23.7049 74.6223 23.0649V23.9183H75.6037C75.561 23.3209 75.561 22.6382 75.561 21.8671V19.4747C75.561 18.7066 75.433 18.1946 75.1343 17.8502C74.8417 17.4266 74.3297 17.2559 73.5586 17.2559ZM85.649 17.2559C84.7103 17.2559 84.0672 17.6399 83.7259 18.3653C83.5126 18.8346 83.3846 19.6453 83.3846 20.7578C83.3846 21.8702 83.5126 22.6809 83.7686 23.1076C84.0672 23.7049 84.7073 24.0036 85.6064 24.0036C86.9291 24.0036 87.6148 23.2782 87.6148 21.8671H86.6334C86.6334 22.2938 86.5481 22.6352 86.4201 22.8485C86.2494 23.1472 85.9934 23.2752 85.5667 23.2752C85.0974 23.2752 84.7987 23.0618 84.628 22.6352C84.5 22.2511 84.4147 21.6111 84.4147 20.6267C84.4147 19.7733 84.4574 19.1729 84.5427 18.8316C84.7134 18.2769 85.0547 17.9782 85.5667 17.9782C86.2494 17.9782 86.5481 18.4476 86.5481 19.3466H87.5295C87.5295 18.6213 87.4015 18.1093 87.1028 17.7649C86.9291 17.4266 86.4171 17.2559 85.649 17.2559ZM97.395 17.2559C96.4136 17.2559 95.7279 17.6399 95.4292 18.4079C95.2159 18.92 95.1305 19.7307 95.1305 20.8858C95.1305 21.9098 95.2585 22.6382 95.5146 23.0649C95.8559 23.6622 96.4533 24.0036 97.3523 24.0036C98.7208 24.0036 99.4461 23.2782 99.5315 21.8245H98.5501C98.5074 22.7632 98.1234 23.2356 97.3981 23.2356C96.886 23.2356 96.5874 23.0222 96.4167 22.5955C96.2887 22.2969 96.246 21.8275 96.246 21.1844V20.7578H99.6199V20.4591C99.6199 19.435 99.5345 18.7066 99.3212 18.2799C98.9341 17.5972 98.2941 17.2559 97.395 17.2559ZM106.538 17.2559C105.984 17.2559 105.514 17.3839 105.17 17.6826C104.786 17.9813 104.615 18.4079 104.615 18.9626C104.615 19.4747 104.786 19.8587 105.084 20.1573C105.255 20.328 105.639 20.5414 106.237 20.8827C106.663 21.1387 106.962 21.3094 107.09 21.4374C107.303 21.6507 107.389 21.9494 107.389 22.2908C107.389 22.9735 107.047 23.2721 106.407 23.2721C105.852 23.2721 105.511 22.9308 105.468 22.2481C105.468 22.1201 105.468 22.0348 105.468 21.9067H104.444C104.402 23.3179 105.084 24.0005 106.41 24.0005C107.779 24.0005 108.419 23.3605 108.419 22.1201C108.419 21.6507 108.248 21.2241 107.949 20.9254C107.736 20.712 107.395 20.4987 106.883 20.2C106.413 19.944 106.115 19.7733 105.987 19.6453C105.731 19.432 105.603 19.176 105.603 18.92C105.603 18.664 105.688 18.4506 105.859 18.2799C106.029 18.1093 106.243 18.0239 106.499 18.0239C107.096 18.0239 107.395 18.4079 107.395 19.2186H108.419C108.419 18.5786 108.248 18.1093 107.949 17.7649C107.69 17.4266 107.221 17.2559 106.538 17.2559ZM111.963 17.2559C111.025 17.2559 110.339 17.6399 110.04 18.3653C109.827 18.8346 109.741 19.6453 109.741 20.7578C109.741 21.8702 109.869 22.6809 110.083 23.1076C110.381 23.7049 111.021 24.0036 111.963 24.0036C113.286 24.0036 113.972 23.2782 113.972 21.8671H112.99C112.99 22.2938 112.905 22.6352 112.777 22.8485C112.606 23.1472 112.35 23.2752 111.924 23.2752C111.454 23.2752 111.156 23.0618 110.985 22.6352C110.857 22.2511 110.772 21.6111 110.772 20.6267C110.772 19.7733 110.814 19.1729 110.9 18.8316C111.07 18.2769 111.412 17.9782 111.924 17.9782C112.606 17.9782 112.905 18.4476 112.905 19.3466H113.886C113.886 18.6213 113.758 18.1093 113.46 17.7649C113.243 17.4266 112.731 17.2559 111.963 17.2559ZM148.186 17.2559C147.418 17.2559 146.863 17.5972 146.518 18.2799V17.3839H145.537C145.58 17.7679 145.58 18.2373 145.58 18.795V23.836H146.604V19.9501C146.604 19.4381 146.689 19.0114 146.903 18.6274C147.159 18.2007 147.457 17.9874 147.927 17.9874C148.353 17.9874 148.652 18.158 148.823 18.542C148.908 18.7554 148.951 19.1394 148.951 19.6941V23.839H149.975V19.2186C149.853 17.9386 149.295 17.2559 148.186 17.2559ZM60.4015 17.2559C59.6762 17.2559 59.1215 17.5972 58.7771 18.2373V17.3839H57.7957C57.8384 17.7252 57.8384 18.1093 57.8384 18.5786V23.8756H58.8624V19.8617C58.8624 19.3497 58.9904 18.9657 59.2464 18.667C59.5025 18.3683 59.8438 18.2403 60.3558 18.2403C60.3985 18.2403 60.4838 18.2403 60.5692 18.283C60.4869 17.5972 60.4442 17.2559 60.4015 17.2559ZM70.4408 17.2559C69.7154 17.2559 69.1607 17.5972 68.8164 18.2373V17.3839H67.835C67.8776 17.7252 67.8776 18.1093 67.8776 18.5786V23.8756H68.9017V19.8617C68.9017 19.3497 69.0297 18.9657 69.2857 18.667C69.5417 18.3683 69.8831 18.2403 70.3951 18.2403C70.4378 18.2403 70.5231 18.2403 70.6084 18.283C70.5261 17.5972 70.4835 17.2559 70.4408 17.2559ZM103.719 17.2559C102.994 17.2559 102.439 17.5972 102.095 18.2373V17.3839H101.113C101.156 17.7252 101.156 18.1093 101.156 18.5786V23.8756H102.18V19.8617C102.18 19.3497 102.308 18.9657 102.564 18.667C102.82 18.3683 103.161 18.2403 103.673 18.2403C103.716 18.2403 103.801 18.2403 103.887 18.283C103.804 17.5972 103.804 17.2559 103.719 17.2559ZM77.4476 17.3839V21.9555C77.4476 23.2782 78.0022 23.964 79.1573 23.964C79.84 23.964 80.3947 23.6653 80.7818 23.0253V23.836H81.8058C81.7632 23.4093 81.7632 22.8973 81.7632 22.4249V17.3839H80.7391V21.3124C80.7391 22.5498 80.3124 23.1929 79.4591 23.1929C78.9897 23.1929 78.691 23.0222 78.563 22.6382C78.4777 22.4249 78.435 22.0409 78.435 21.5288V17.3839H77.4476ZM121.658 17.3839V21.9555C121.658 23.2782 122.255 23.964 123.411 23.964C124.093 23.964 124.648 23.6653 125.035 23.0253V23.836H126.059C126.016 23.4093 126.016 22.8973 126.016 22.4249V17.3839H124.992V21.3124C124.992 22.5498 124.566 23.1929 123.712 23.1929C123.243 23.1929 122.944 23.0222 122.816 22.6382C122.731 22.4249 122.688 22.0409 122.688 21.5288V17.3839H121.658ZM131.313 17.3839V18.1519H133.706L131.185 23.0649V23.8756H134.815V23.1076H132.252L134.772 18.1946V17.3839H131.313ZM139.301 17.3839V21.9555C139.301 23.2782 139.899 23.964 141.054 23.964C141.737 23.964 142.291 23.6653 142.678 23.0253V23.836H143.702C143.66 23.4093 143.66 22.8973 143.66 22.4249V17.3839H142.593V21.3124C142.593 22.5498 142.166 23.1929 141.313 23.1929C140.844 23.1929 140.588 23.0222 140.417 22.6382C140.332 22.4249 140.289 22.0409 140.289 21.5288V17.3839H139.301ZM54.0379 17.9813C54.5499 17.9813 54.8912 18.2373 55.0192 18.7493C55.1046 19.0053 55.1472 19.432 55.1472 20.072H52.7974C52.7974 19.816 52.7974 19.5173 52.8401 19.2186C52.9285 18.4079 53.3552 17.9813 54.0379 17.9813ZM97.3523 17.9813C97.8644 17.9813 98.2057 18.2373 98.3337 18.7493C98.4191 19.0053 98.4617 19.432 98.4617 20.072H96.1119C96.1119 19.816 96.1119 19.5173 96.1546 19.2186C96.2856 18.4079 96.6697 17.9813 97.3523 17.9813ZM63.9918 17.9813C64.5038 17.9813 64.8451 18.2799 65.0158 18.92C65.1012 19.2613 65.1438 19.7733 65.1438 20.4591C65.1438 21.5684 65.0158 22.2969 64.7598 22.6809C64.5465 23.0222 64.2905 23.1502 63.9491 23.1502C63.4798 23.1502 63.1384 22.9369 62.9251 22.5102C62.7544 22.1689 62.6691 21.5288 62.6691 20.5871C62.6691 19.4777 62.7971 18.7493 63.0531 18.4079C63.3091 18.1519 63.6078 17.9813 63.9918 17.9813ZM153.781 17.9813C154.293 17.9813 154.635 18.2373 154.805 18.792C154.933 19.176 155.019 19.816 155.019 20.6724C155.019 21.4831 154.976 22.0408 154.848 22.3822C154.677 22.9369 154.293 23.1929 153.739 23.1929C153.269 23.1929 152.971 22.9369 152.757 22.3822C152.629 21.9982 152.544 21.3582 152.544 20.5444C152.544 19.7764 152.587 19.176 152.715 18.8346C152.928 18.2799 153.269 17.9813 153.781 17.9813ZM74.287 20.5871H74.5431V21.3551C74.5431 21.8671 74.4577 22.2938 74.287 22.5925C74.0737 23.0192 73.6897 23.1898 73.2203 23.1898C72.5803 23.1898 72.2816 22.7632 72.2816 21.9525C72.2786 21.0564 72.9186 20.5871 74.287 20.5871ZM45.9217 28.2339V37.502H49.9356V36.606H47.0311V28.1912H45.9217V28.2339ZM57.0277 28.2339V36.2647C57.0277 36.5207 57.0277 36.9047 56.985 37.502H57.9664V36.734C58.3077 37.2887 58.8198 37.5874 59.5055 37.5874C60.3589 37.5874 60.9166 37.2034 61.2153 36.4353C61.386 35.9233 61.514 35.1553 61.514 34.1282C61.514 33.1468 61.4286 32.4184 61.258 31.9917C60.9593 31.2664 60.4473 30.8823 59.6335 30.8823C58.9935 30.8823 58.4815 31.1384 58.0944 31.693V28.2339H57.0277ZM105.596 28.2339V37.502H106.621V28.2339H106.109H105.596ZM121.957 28.2339V37.502H122.981V33.5735C122.981 32.2934 123.407 31.6504 124.261 31.6504C124.688 31.6504 124.986 31.8637 125.157 32.2051C125.242 32.4184 125.285 32.8024 125.285 33.3571V37.502H126.309V32.9304C126.309 31.562 125.754 30.922 124.599 30.922C123.916 30.922 123.404 31.2206 122.975 31.818V28.2735H121.957V28.2339ZM137.933 28.2339V37.502H138.957V33.5735C138.957 32.2934 139.384 31.6504 140.28 31.6504C140.706 31.6504 141.005 31.8637 141.176 32.2051C141.261 32.4184 141.304 32.8024 141.304 33.3571V37.502H142.328V32.9304C142.328 31.562 141.773 30.922 140.618 30.922C139.935 30.922 139.423 31.2206 138.994 31.818V28.2735H137.927V28.2339H137.933ZM89.2789 28.3619V29.4712H90.3883V28.3619H89.2789ZM113.585 28.3619V29.4712H114.694V28.3619H113.585ZM149.938 28.3619V29.4712H151.047V28.3619H149.938ZM93.5945 29.3859L92.5704 29.8553V31.05H91.5891V31.7753H92.5704V35.9629C92.5704 36.5603 92.6558 36.9443 92.8265 37.1576C93.0398 37.4137 93.4238 37.5417 94.0212 37.5417C94.1918 37.5417 94.4478 37.5417 94.7892 37.499V36.6883C94.5332 36.731 94.3625 36.731 94.3198 36.731C94.0212 36.731 93.8505 36.6883 93.7652 36.5603C93.6798 36.4323 93.5945 36.1763 93.5945 35.8349V31.7753H94.7465V31.05H93.5945V29.3859ZM97.3523 29.3859L96.3283 29.8553V31.05H95.3469V31.7753H96.3283V35.9629C96.3283 36.5603 96.4136 36.9443 96.5843 37.1576C96.7977 37.4137 97.1817 37.5417 97.779 37.5417C97.9497 37.5417 98.2057 37.5417 98.5044 37.499V36.6883C98.2484 36.731 98.0777 36.731 98.035 36.731C97.7364 36.731 97.5657 36.6883 97.4377 36.5603C97.3523 36.4323 97.267 36.1763 97.267 35.8349V31.7753H98.4191V31.05H97.267V29.3829H97.3523V29.3859ZM154.208 29.3859L153.184 29.8553V31.05H152.203V31.7753H153.184V35.9629C153.184 36.5603 153.269 36.9443 153.44 37.1576C153.653 37.4137 154.037 37.5417 154.635 37.5417C154.805 37.5417 155.061 37.5417 155.403 37.499V36.6883C155.147 36.731 154.976 36.731 154.933 36.731C154.635 36.731 154.464 36.6883 154.336 36.5603C154.251 36.4323 154.165 36.1763 154.165 35.8349V31.7753H155.317V31.05H154.165V29.3829H154.208V29.3859ZM53.3125 30.8823C52.3311 30.8823 51.6454 31.2664 51.3467 32.0344C51.1334 32.5464 51.048 33.3571 51.048 34.5122C51.048 35.5362 51.176 36.2647 51.432 36.6913C51.7734 37.2887 52.3707 37.5874 53.2698 37.5874C54.6383 37.5874 55.3636 36.862 55.449 35.4509H54.4676C54.4249 36.3896 54.0409 36.862 53.3155 36.862C52.8035 36.862 52.5048 36.6487 52.3342 36.222C52.2062 35.9233 52.1635 35.454 52.1635 34.8109V34.3842H55.5373V34.0855C55.5373 33.0615 55.452 32.3331 55.2387 31.9064C54.8486 31.2237 54.2085 30.8823 53.3125 30.8823ZM65.1865 30.8823C64.2051 30.8823 63.562 31.2664 63.2207 32.0344C63.0074 32.5464 62.8794 33.3571 62.8794 34.5122C62.8794 35.5362 63.0074 36.2647 63.2634 36.6913C63.6047 37.2887 64.2021 37.5874 65.1012 37.5874C66.4696 37.5874 67.195 36.862 67.2803 35.4509H66.2989C66.2563 36.3896 65.8722 36.862 65.1469 36.862C64.6349 36.862 64.3362 36.6487 64.1655 36.222C64.0375 35.9233 63.9948 35.454 63.9948 34.8109V34.3842H67.3687V34.0855C67.3687 33.0615 67.2833 32.3331 67.07 31.9064C66.7256 31.2237 66.1282 30.8823 65.1865 30.8823ZM71.5959 30.8823C70.8279 30.8823 70.2732 31.2237 69.9288 31.9064V31.0104H68.9474C68.9901 31.3944 68.9901 31.821 68.9901 32.4215V37.4624H70.0141V33.5735C70.0141 33.0615 70.0995 32.6348 70.3128 32.2508C70.5688 31.8241 70.8675 31.6108 71.3368 31.6108C71.7635 31.6108 72.0622 31.8241 72.2329 32.1654C72.3182 32.3788 72.3609 32.7628 72.3609 33.3175V37.4624H73.3849V32.8481C73.3026 31.565 72.7053 30.8823 71.5959 30.8823ZM76.8929 30.8823C76.3382 30.8823 75.8688 31.0104 75.5244 31.309C75.1404 31.6077 74.9697 32.0344 74.9697 32.5891C74.9697 33.1011 75.1404 33.4851 75.4818 33.7838C75.6524 33.9545 76.0364 34.1678 76.6338 34.5092C77.0605 34.7652 77.3592 34.9358 77.4872 35.0638C77.7005 35.2772 77.7859 35.5332 77.7859 35.9172C77.7859 36.5999 77.4445 36.8986 76.8045 36.8986C76.2498 36.8986 75.9084 36.5572 75.8658 35.8745C75.8658 35.7465 75.8658 35.6612 75.8658 35.5332H74.8417C74.7991 36.9443 75.4818 37.627 76.8075 37.627C78.176 37.627 78.8587 36.987 78.8587 35.7465C78.8587 35.2772 78.688 34.8505 78.3893 34.5092C78.176 34.2958 77.8346 34.0825 77.3226 33.7838C76.8532 33.5278 76.5119 33.3144 76.3839 33.2291C76.1279 33.0158 75.9999 32.7598 75.9999 32.5037C75.9999 32.2477 76.0852 32.0344 76.2132 31.8637C76.3839 31.693 76.5972 31.6077 76.8532 31.6077C77.4506 31.6077 77.7493 31.9917 77.7493 32.8024H78.7733C78.7733 32.1624 78.6026 31.6504 78.304 31.3487C78.0022 31.053 77.5329 30.8823 76.8929 30.8823ZM82.7872 30.8823C82.1045 30.8823 81.5925 31.2237 81.2481 31.8637V31.0104H80.224C80.2667 31.3517 80.2667 31.7357 80.2667 32.1197V37.4594H81.2908V33.4882C81.2908 32.9761 81.3761 32.5068 81.5468 32.2081C81.7601 31.8241 82.0588 31.6534 82.4428 31.6534C82.8268 31.6534 83.1255 31.8241 83.2108 32.1228C83.2962 32.2934 83.2962 32.5921 83.2962 33.0615V37.4624H84.3202V33.4028C84.3202 32.2508 84.7042 31.6504 85.4723 31.6504C85.8563 31.6504 86.1123 31.8211 86.2403 32.1197C86.3256 32.3331 86.3683 32.6318 86.3683 33.1011V37.4594H87.3923V33.0584C87.3923 32.2904 87.2643 31.7784 87.051 31.434C86.795 31.05 86.411 30.8366 85.8136 30.8366C85.1309 30.8366 84.5762 31.178 84.1892 31.818C84.0246 31.2237 83.5552 30.8823 82.7872 30.8823ZM101.881 30.8823C100.9 30.8823 100.214 31.2664 99.9155 32.0344C99.7022 32.5464 99.6168 33.3571 99.6168 34.5122C99.6168 35.5362 99.7448 36.2647 100.001 36.6913C100.342 37.2887 100.94 37.5874 101.839 37.5874C103.207 37.5874 103.932 36.862 104.018 35.4509H103.036C102.994 36.3896 102.61 36.862 101.884 36.862C101.372 36.862 101.074 36.6487 100.903 36.222C100.775 35.9233 100.732 35.454 100.732 34.8109V34.3842H104.106V34.0855C104.106 33.0615 104.021 32.3331 103.807 31.9064C103.417 31.2237 102.777 30.8823 101.881 30.8823ZM110.211 30.8823C109.656 30.8823 109.187 31.0104 108.842 31.309C108.458 31.6077 108.288 32.0344 108.288 32.5891C108.288 33.1011 108.458 33.4851 108.8 33.7838C108.97 33.9545 109.354 34.1678 109.952 34.5092C110.378 34.7652 110.677 34.9358 110.805 35.0638C111.018 35.2772 111.104 35.5332 111.104 35.9172C111.104 36.5999 110.762 36.8986 110.122 36.8986C109.568 36.8986 109.226 36.5572 109.184 35.8745C109.184 35.7465 109.184 35.6612 109.184 35.5332H108.16C108.117 36.9443 108.8 37.627 110.125 37.627C111.494 37.627 112.134 36.987 112.134 35.7465C112.134 35.2772 111.963 34.8505 111.665 34.5092C111.451 34.2958 111.11 34.0825 110.598 33.7838C110.128 33.5278 109.83 33.3144 109.702 33.2291C109.446 33.0158 109.318 32.7598 109.318 32.5037C109.318 32.2477 109.403 32.0344 109.574 31.8637C109.744 31.693 109.958 31.6077 110.214 31.6077C110.811 31.6077 111.11 31.9917 111.11 32.8024H112.134C112.134 32.1624 111.963 31.6504 111.665 31.3487C111.363 31.053 110.893 30.8823 110.211 30.8823ZM118.583 30.8823C117.644 30.8823 117.001 31.2237 116.66 31.9491C116.446 32.4184 116.318 33.2291 116.318 34.3415C116.318 35.4509 116.446 36.2647 116.66 36.6913C116.958 37.2887 117.598 37.5874 118.54 37.5874C119.863 37.5874 120.549 36.862 120.549 35.4509H119.567C119.567 35.8776 119.482 36.2189 119.354 36.4323C119.183 36.731 118.927 36.859 118.501 36.859C118.031 36.859 117.733 36.6456 117.562 36.2616C117.434 35.8776 117.349 35.2376 117.349 34.2531C117.349 33.3998 117.391 32.7994 117.477 32.458C117.647 31.9033 117.989 31.6047 118.501 31.6047C119.183 31.6047 119.482 32.074 119.482 32.9731H120.463C120.463 32.2477 120.335 31.7357 120.037 31.3913C119.823 31.053 119.308 30.8823 118.583 30.8823ZM130.286 30.8823C129.305 30.8823 128.662 31.2664 128.32 32.0344C128.107 32.5464 127.979 33.3571 127.979 34.5122C127.979 35.5362 128.107 36.2647 128.363 36.6913C128.704 37.2887 129.302 37.5874 130.201 37.5874C131.569 37.5874 132.295 36.862 132.38 35.4509H131.399C131.356 36.3896 130.972 36.862 130.247 36.862C129.735 36.862 129.436 36.6487 129.265 36.222C129.137 35.9233 129.095 35.454 129.095 34.8109V34.3842H132.468V34.0855C132.468 33.0615 132.383 32.3331 132.17 31.9064C131.825 31.2237 131.185 30.8823 130.286 30.8823ZM146.22 30.8823C145.238 30.8823 144.553 31.2664 144.254 32.0344C144.041 32.5464 143.955 33.3571 143.955 34.5122C143.955 35.5362 144.083 36.2647 144.339 36.6913C144.681 37.2887 145.278 37.5874 146.177 37.5874C147.546 37.5874 148.271 36.862 148.356 35.4509H147.375C147.332 36.3896 146.948 36.862 146.223 36.862C145.711 36.862 145.412 36.6487 145.241 36.222C145.113 35.9233 145.071 35.454 145.071 34.8109V34.3842H148.445V34.0855C148.445 33.0615 148.359 32.3331 148.146 31.9064C147.759 31.2237 147.162 30.8823 146.22 30.8823ZM136.61 30.8823C135.885 30.8823 135.33 31.2237 134.986 31.8637V31.0104H134.004C134.047 31.3517 134.047 31.7357 134.047 32.2051V37.502H135.071V33.4882C135.071 32.9761 135.199 32.5921 135.455 32.2934C135.711 31.9948 136.053 31.8241 136.565 31.8241C136.607 31.8241 136.693 31.8241 136.778 31.8668C136.738 31.2237 136.696 30.8823 136.61 30.8823ZM89.3642 31.0104V37.502H90.3883V31.0104H89.3642ZM113.67 31.0104V37.502H114.694V31.0104H113.67ZM149.981 31.0104V37.502H151.005V31.0104H149.981ZM53.2698 31.6077C53.7819 31.6077 54.1232 31.8637 54.2512 32.3757C54.3365 32.6317 54.3792 33.0584 54.3792 33.6985H52.0294C52.0294 33.4424 52.0294 33.1438 52.0721 32.8451C52.2001 32.0344 52.5871 31.6077 53.2698 31.6077ZM65.1865 31.6077C65.6985 31.6077 66.0399 31.8637 66.1679 32.3757C66.2532 32.6317 66.2959 33.0584 66.2959 33.6985H63.9461C63.9461 33.4424 63.9461 33.1438 63.9887 32.8451C64.0771 32.0344 64.5038 31.6077 65.1865 31.6077ZM101.839 31.6077C102.351 31.6077 102.692 31.8637 102.82 32.3757C102.905 32.6317 102.948 33.0584 102.948 33.6985H100.598C100.598 33.4424 100.598 33.1438 100.641 32.8451C100.769 32.0344 101.156 31.6077 101.839 31.6077ZM130.244 31.6077C130.756 31.6077 131.097 31.8637 131.225 32.3757C131.31 32.6317 131.353 33.0584 131.353 33.6985H129.003C129.003 33.4424 129.003 33.1438 129.046 32.8451C129.177 32.0344 129.561 31.6077 130.244 31.6077ZM146.22 31.6077C146.732 31.6077 147.073 31.8637 147.201 32.3757C147.287 32.6317 147.329 33.0584 147.329 33.6985H144.979C144.979 33.4424 144.979 33.1438 145.022 32.8451C145.11 32.0344 145.494 31.6077 146.22 31.6077ZM59.3348 31.6504C59.8469 31.6504 60.1882 31.9491 60.3589 32.5891C60.4442 32.9304 60.4869 33.4424 60.4869 34.1282C60.4869 35.2376 60.3589 35.966 60.1455 36.35C59.9322 36.6913 59.6762 36.862 59.3348 36.862C58.8655 36.862 58.5241 36.6487 58.3108 36.222C58.1401 35.8806 58.0548 35.2406 58.0548 34.2989C58.0548 33.1895 58.1828 32.4611 58.4388 32.1197C58.6521 31.7784 58.9508 31.6504 59.3348 31.6504Z" fill="black"/>
</svg>
