<svg width="40" height="40" viewBox="0 0 40 40" fill="none" xmlns="http://www.w3.org/2000/svg">
<path fill-rule="evenodd" clip-rule="evenodd" d="M16.2383 5H23.7383C24.4283 5 24.9883 4.44 24.9883 3.75C24.9883 3.06 24.4283 2.5 23.7383 2.5H16.2383C15.5483 2.5 14.9883 3.06 14.9883 3.75C14.9883 4.44 15.5483 5 16.2383 5Z" fill="#9DBC78"/>
<path fill-rule="evenodd" clip-rule="evenodd" d="M18.7372 22.0662L13.4547 28.4462C13.0147 28.9775 13.0897 29.7662 13.6209 30.2062C14.1522 30.6462 14.9409 30.5712 15.3809 30.04L20.9547 23.3087C21.1697 23.0487 21.2622 22.7262 21.2372 22.415L21.2397 13.75C21.2397 13.06 20.6797 12.5 19.9897 12.5C19.2997 12.5 18.7397 13.06 18.7397 13.75L18.7372 22.0662Z" fill="#9DBC78"/>
<path fill-rule="evenodd" clip-rule="evenodd" d="M30.2563 11.506L32.1338 9.62852C32.6213 9.14102 32.6213 8.34852 32.1338 7.86102C31.6463 7.37352 30.8537 7.37352 30.3662 7.86102L28.2838 9.94352C25.91 8.36602 23.0613 7.44727 20 7.44727C11.7212 7.44727 5 14.1685 5 22.4473C5 30.726 11.7212 37.4473 20 37.4473C28.2787 37.4473 35 30.726 35 22.4473C35 18.1335 33.175 14.2435 30.2563 11.506ZM20 9.94727C26.8988 9.94727 32.5 15.5485 32.5 22.4473C32.5 29.346 26.8988 34.9473 20 34.9473C13.1012 34.9473 7.5 29.346 7.5 22.4473C7.5 15.5485 13.1012 9.94727 20 9.94727Z" fill="#9DBC78"/>
</svg>
