<svg width="20" height="20" viewBox="0 0 20 20" fill="none" xmlns="http://www.w3.org/2000/svg">
<path d="M1.46839 0.394531H18.5444C19.1324 0.394531 19.6004 0.866045 19.6004 1.45846V18.6748C19.6004 19.2551 19.1324 19.7387 18.5444 19.7387H13.6484V12.2428H16.1444L16.5164 9.32911H13.6484V7.46724C13.6484 6.62093 13.8884 6.0406 15.0884 6.0406H16.6244V3.42914C16.3604 3.39287 15.4484 3.32033 14.3924 3.32033C12.1724 3.32033 10.6604 4.67442 10.6604 7.17707V9.32911H8.15239V12.2428H10.6604V19.7387H1.46839C1.18721 19.7387 0.917359 19.627 0.717412 19.4278C0.517464 19.2286 0.40355 18.958 0.400391 18.6748V1.45846C0.400391 0.866045 0.880391 0.394531 1.46839 0.394531Z" fill="#333333"/>
</svg>
