<svg width="20" height="20" viewBox="0 0 20 20" fill="none" xmlns="http://www.w3.org/2000/svg">
<path d="M9.99913 5.22284C7.33898 5.22284 5.1921 7.38583 5.1921 10.066C5.1921 12.7461 7.33898 14.9091 9.99913 14.9091C12.6593 14.9091 14.8062 12.7461 14.8062 10.066C14.8062 7.38583 12.6593 5.22284 9.99913 5.22284ZM9.99913 13.2136C8.27882 13.2136 6.87492 11.7992 6.87492 10.066C6.87492 8.33273 8.27882 6.91828 9.99913 6.91828C11.7194 6.91828 13.1234 8.33273 13.1234 10.066C13.1234 11.7992 11.7194 13.2136 9.99913 13.2136ZM15.003 3.89576C14.3819 3.89576 13.8804 4.40109 13.8804 5.02684C13.8804 5.6526 14.3819 6.15793 15.003 6.15793C15.6241 6.15793 16.1257 5.65496 16.1257 5.02684C16.1259 4.87825 16.097 4.73109 16.0406 4.59378C15.9843 4.45646 15.9016 4.3317 15.7973 4.22663C15.693 4.12156 15.5692 4.03825 15.4329 3.98148C15.2966 3.9247 15.1505 3.89557 15.003 3.89576ZM19.3694 10.066C19.3694 8.76249 19.3812 7.47084 19.3085 6.16973C19.2359 4.65847 18.8937 3.31723 17.7968 2.21212C16.6976 1.10465 15.3687 0.762252 13.8687 0.68905C12.5749 0.615849 11.2929 0.627655 10.0015 0.627655C8.70773 0.627655 7.4257 0.615849 6.13429 0.68905C4.63429 0.762252 3.30304 1.10701 2.20617 2.21212C1.10695 3.31959 0.767103 4.65847 0.694447 6.16973C0.621791 7.4732 0.63351 8.76485 0.63351 10.066C0.63351 11.3671 0.621791 12.6611 0.694447 13.9622C0.767103 15.4734 1.10929 16.8147 2.20617 17.9198C3.30538 19.0273 4.63429 19.3697 6.13429 19.4429C7.42804 19.5161 8.71007 19.5043 10.0015 19.5043C11.2952 19.5043 12.5773 19.5161 13.8687 19.4429C15.3687 19.3697 16.6999 19.0249 17.7968 17.9198C18.896 16.8123 19.2359 15.4734 19.3085 13.9622C19.3835 12.6611 19.3694 11.3694 19.3694 10.066ZM17.3069 15.634C17.1359 16.0638 16.9296 16.3849 16.5991 16.7155C16.2687 17.0485 15.9523 17.2563 15.5257 17.4286C14.2929 17.9222 11.3655 17.8112 9.99913 17.8112C8.63273 17.8112 5.70304 17.9222 4.47023 17.431C4.04367 17.2586 3.72492 17.0508 3.39679 16.7179C3.06632 16.3849 2.86007 16.0661 2.68898 15.6364C2.20148 14.3919 2.31163 11.4426 2.31163 10.066C2.31163 8.68929 2.20148 5.73761 2.68898 4.49554C2.86007 4.06578 3.06632 3.74463 3.39679 3.41404C3.72726 3.08346 4.04367 2.8733 4.47023 2.70092C5.70304 2.20976 8.63273 2.32074 9.99913 2.32074C11.3655 2.32074 14.2952 2.20976 15.528 2.70092C15.9546 2.8733 16.2734 3.08109 16.6015 3.41404C16.9319 3.74699 17.1382 4.06578 17.3093 4.49554C17.7968 5.73761 17.6866 8.68929 17.6866 10.066C17.6866 11.4426 17.7968 14.3919 17.3069 15.634Z" fill="#333333"/>
</svg>
