<svg width="15" height="23" viewBox="0 0 15 23" fill="none" xmlns="http://www.w3.org/2000/svg">
<path d="M0.9375 3.54607C0.9375 2.84465 1.21406 2.17196 1.70634 1.67598C2.19863 1.18001 2.86631 0.901367 3.5625 0.901367L11.4375 0.901367C12.1337 0.901367 12.8014 1.18001 13.2937 1.67598C13.7859 2.17196 14.0625 2.84465 14.0625 3.54607V19.4143C14.0625 20.1157 13.7859 20.7884 13.2937 21.2844C12.8014 21.7804 12.1337 22.059 11.4375 22.059H3.5625C2.86631 22.059 2.19863 21.7804 1.70634 21.2844C1.21406 20.7884 0.9375 20.1157 0.9375 19.4143V3.54607ZM8.8125 18.092C8.8125 17.7413 8.67422 17.4049 8.42808 17.1569C8.18194 16.9089 7.8481 16.7696 7.5 16.7696C7.1519 16.7696 6.81806 16.9089 6.57192 17.1569C6.32578 17.4049 6.1875 17.7413 6.1875 18.092C6.1875 18.4427 6.32578 18.779 6.57192 19.027C6.81806 19.275 7.1519 19.4143 7.5 19.4143C7.8481 19.4143 8.18194 19.275 8.42808 19.027C8.67422 18.779 8.8125 18.4427 8.8125 18.092Z" fill="#333333"/>
</svg>
