<svg width="17" height="36" viewBox="0 0 17 36" fill="none" xmlns="http://www.w3.org/2000/svg">
<g clip-path="url(#clip0_538_1690)">
<path d="M4.18166 11.3056C3.56847 10.6111 3.04508 10.1005 2.61405 9.51834C0.0201749 6.04345 1.70837 1.36601 5.94683 0.370261C8.4663 -0.222079 10.9652 -0.188888 13.3128 1.10047C14.7367 1.88175 15.3499 3.1226 15.2447 4.70813C15.1549 6.0792 14.1877 6.93452 12.8843 6.86813C11.581 6.80175 10.8062 5.84686 10.9037 4.3992C11.0396 2.35664 10.7138 1.71835 9.29757 1.29962C8.56824 1.10376 7.79416 1.15503 7.09735 1.44534C6.40054 1.73565 5.82065 2.2485 5.44909 2.90303C4.64604 4.27664 4.80511 5.56856 6.12386 6.63835C7.84284 8.0426 9.68754 9.28856 11.4117 10.6852C12.7689 11.7856 14.1466 12.8988 15.2935 14.1983C17.6795 16.9022 17.5333 19.9379 15.0369 22.5371C14.3314 23.2673 13.5232 23.903 12.7278 24.6205C13.2204 25.1464 13.5463 25.4809 13.8593 25.8256C17.151 29.4511 15.6245 34.5371 10.8626 35.6783C8.55584 36.2645 6.11601 36.0344 3.96101 35.0273C2.20098 34.2128 1.32353 32.3464 1.84179 30.7226C1.97808 30.2007 2.30781 29.7495 2.76472 29.4596C3.22163 29.1698 3.77185 29.0627 4.30481 29.16C5.42857 29.3107 6.04432 30.0562 6.06228 31.2971C6.05772 31.4679 6.04402 31.6383 6.02123 31.8077C5.88782 33.5005 6.33681 34.3277 7.6145 34.7388C8.99739 35.1856 10.5907 34.5243 11.463 33.1405C12.2455 31.9098 12.2327 30.5643 11.1602 29.6681C9.46947 28.2358 7.62989 26.9771 5.9186 25.5677C4.44592 24.3447 2.91166 23.1422 1.66732 21.7022C-0.711036 18.9652 -0.51348 15.9575 2.02138 13.3711C2.70641 12.669 3.43762 12.0154 4.18166 11.3056ZM11.5861 23.8698C13.8952 21.5515 14.044 19.149 11.9197 17.3183C9.7953 15.4877 7.58628 13.8741 5.43113 12.1762C3.22467 14.1217 2.86548 16.6239 4.7615 18.3549C6.92691 20.3311 9.31296 22.052 11.5861 23.8698Z" fill="#9DBC78"/>
</g>
<defs>
<clipPath id="clip0_538_1690">
<rect width="17" height="36" fill="white"/>
</clipPath>
</defs>
</svg>
