<svg width="26" height="26" viewBox="0 0 26 26" fill="none" xmlns="http://www.w3.org/2000/svg">
<path fill-rule="evenodd" clip-rule="evenodd" d="M13 26C20.1797 26 26 20.1797 26 13C26 5.8203 20.1797 0 13 0C5.8203 0 0 5.8203 0 13C0 20.1797 5.8203 26 13 26ZM13.3575 20.6176C11.6805 20.6176 10.3545 20.2341 9.41848 19.4801C8.49548 18.7391 7.87148 17.5496 7.56598 15.9571L7.46198 15.4046H5.84998V14.5141H7.35148V11.9791H5.84998V11.0886H7.46198L7.56598 10.5361C7.87148 8.93711 8.49548 7.74761 9.40548 6.99361C10.3285 6.23311 11.6285 5.84961 13.273 5.84961C14.2025 5.84961 15.223 5.99261 16.315 6.27211V7.75411C15.9185 7.65011 15.5415 7.56561 15.1905 7.50711C14.586 7.40961 13.962 7.35761 13.338 7.35761C12.3305 7.35761 11.505 7.59811 10.8875 8.07911C10.283 8.54711 9.84748 9.27511 9.59398 10.2436L9.37298 11.0951H15.1385V11.9856H9.29498V14.5206H15.1385V15.4111H9.38598L9.61348 16.2626C9.87348 17.2376 10.3285 17.9656 10.9655 18.4271C11.609 18.8886 12.467 19.1226 13.507 19.1226C14.053 19.1226 14.612 19.0641 15.171 18.9471C15.5025 18.8756 15.8665 18.7781 16.263 18.6546V20.1236C15.9315 20.2276 15.6455 20.3121 15.379 20.3771C15.041 20.4616 14.7095 20.5266 14.3845 20.5721C14.079 20.6111 13.7345 20.6306 13.3575 20.6306V20.6176Z" fill="white"/>
</svg>
