<svg width="32" height="32" viewBox="0 0 32 32" fill="none" xmlns="http://www.w3.org/2000/svg">
<path d="M6.62663 6.54655C5.42 6.54002 4.81331 6.01886 4.45996 5.63092C4.03337 5.12935 3.79997 4.31299 3.79997 3.27066C3.79997 2.22703 4.02669 1.43157 4.47998 0.889506C4.81331 0.481979 5.45996 0 6.62663 0C7.79329 0 8.44002 0.481979 8.77336 0.889506C9.22664 1.4381 9.45337 2.23356 9.45337 3.27719C9.45337 4.32083 9.22664 5.11629 8.77336 5.65835C8.44002 6.06588 7.79329 6.54655 6.62663 6.54655Z" fill="white"/>
<path d="M0 32V30.6559H3.46663L3.28003 29.8069C3.23999 29.6267 3.21997 29.4451 3.20003 29.2518L2.35335 21.3468L1.91333 21.2136C1.35335 21.0464 1.01335 20.7512 0.833333 20.5383C0.206706 19.816 0.206706 18.886 0.226644 18.6182V13.2342C0.226644 11.2618 1.89331 9.38879 3.64665 9.38879H9.60669C11.3667 9.38879 13.0267 11.2553 13.0267 13.2342V18.5986C13.0466 18.9121 13.0533 19.8421 12.4267 20.5579C12.24 20.7786 11.9 21.066 11.34 21.2397L10.9 21.3743L10.0466 29.338L10.0338 29.449C10.0193 29.577 10.0043 29.709 9.97331 29.8331L9.7867 30.6834H14.4666V26.0478H23.6333V21.4801L32 21.4605V22.8045H24.9733V27.3657H15.8066V32H0Z" fill="white"/>
</svg>
