<svg width="28" height="32" viewBox="0 0 28 32" fill="none" xmlns="http://www.w3.org/2000/svg">
<path fill-rule="evenodd" clip-rule="evenodd" d="M19.1584 29.3274C19.3958 31.4402 20.5122 32 21.1538 32V31.987H23.0467C24.4967 31.987 25.01 30.2608 25.087 29.2141L25.9083 21.1884L26.3318 21.0556C26.768 20.9163 27.1338 20.682 27.4161 20.3552C27.846 19.8553 28 19.2357 28 18.836V12.9635C28 10.9639 26.3831 9.07758 24.6763 9.07758H3.32938C1.62271 9.07758 0.00579192 10.9639 0.00579192 12.9635V18.4298C-0.0134757 18.7032 -0.0198982 19.6366 0.589695 20.3552C0.871973 20.682 1.23767 20.9163 1.68043 21.0556L2.10393 21.1884L2.93157 29.2336C3.00214 30.2608 3.5219 31.9935 4.96556 31.9935H6.85833C7.48719 31.9935 8.61004 31.4337 8.85386 29.3274C9.04943 27.6103 9.3903 23.8923 9.56989 21.9343L9.68151 20.7289V20.6625L11.3434 14.6897H16.6688L18.3371 20.6625V20.7289C18.386 21.2938 18.4817 22.3718 18.5949 23.6072C18.7783 25.6081 19.0076 28.0203 19.1584 29.3274ZM20.0951 5.7254C20.5443 6.2982 21.2052 6.59892 22.0521 6.63146H22.1804C23.3097 6.63146 23.9321 6.13938 24.2593 5.73191C24.702 5.17212 24.9266 4.35198 24.9266 3.31313C24.9266 2.27298 24.702 1.46585 24.2593 0.906066C23.9321 0.493389 23.3161 0.00650909 22.1804 0.00650909C21.0448 0.00650909 20.4223 0.499898 20.1015 0.899557C19.6588 1.45283 19.4343 2.25996 19.4343 3.30662C19.4343 4.35198 19.6588 5.16562 20.0951 5.7254ZM3.74645 5.7254C4.07369 6.13938 4.69605 6.62495 5.82532 6.62495C6.95459 6.61845 7.58337 6.13157 7.90418 5.7254C8.34695 5.16562 8.5715 4.34547 8.5715 3.30662C8.5715 2.26647 8.34695 1.45934 7.91061 0.899557C7.58337 0.48688 6.96101 0 5.82532 0C4.91426 0 4.21483 0.307229 3.74645 0.899557C3.31019 1.45283 3.08556 2.25996 3.08556 3.30662C3.08556 4.35198 3.30377 5.16562 3.74645 5.7254Z" fill="white"/>
</svg>
