<svg width="28" height="35" viewBox="0 0 28 35" fill="none" xmlns="http://www.w3.org/2000/svg">
<path d="M13.9971 35C12.278 35 10.8553 33.6801 10.7441 31.9971L8.85457 16.5923L1.25923 10.9865C0.0291335 10.1849 -0.356206 8.61011 0.355224 7.38558C0.836808 6.54693 1.74832 6.02152 2.72642 6.02152C3.15617 6.02152 3.57859 6.12404 3.96393 6.31341L12.6114 10.6291C12.801 10.7231 13.0009 10.7972 13.2079 10.8513C13.4624 10.9168 13.7275 10.9495 13.9971 10.9495C14.1611 10.9495 14.3234 10.9367 14.4826 10.9125C14.7984 10.8641 15.102 10.7687 15.3828 10.6291L23.9712 6.33477C24.3713 6.13116 24.8233 6.02864 25.2679 6.02864C26.1349 6.02864 26.9278 6.40739 27.439 7.07091C27.9059 7.67605 28.0911 8.44209 27.9578 9.18535C27.8244 9.90725 27.3946 10.5494 26.7795 10.9495L19.1472 16.578L17.265 31.9387C17.1538 33.6658 15.7237 34.9858 14.0045 34.9858L13.9971 35Z" fill="white"/>
<path d="M13.9897 7.29018C12.6782 7.29018 11.9594 6.75054 11.5814 6.29917C11.0702 5.68691 10.8108 4.78988 10.8108 3.63797C10.8108 2.48607 11.0702 1.60327 11.5814 0.991009C11.9594 0.539644 12.6856 0 13.9897 0C15.2939 0 16.0349 0.539644 16.4128 0.991009C16.9242 1.60327 17.1835 2.49319 17.1835 3.63797C17.1835 4.78276 16.9242 5.67837 16.4128 6.29917C16.0349 6.75054 15.3087 7.29018 13.9897 7.29018Z" fill="white"/>
</svg>
