<svg width="111" height="50" viewBox="0 0 111 50" fill="none" xmlns="http://www.w3.org/2000/svg">
<path d="M25.4936 33.5059H26.7098V49.642H23.8828V33.5059H25.4936Z" fill="#F8D100"/>
<path d="M25.4936 17.25H26.7098V33.5054H23.8828V17.25H25.4936Z" fill="#E3000F"/>
<path d="M16.5004 6.82904C17.3199 8.13633 17.9898 8.10598 18.961 8.10598C18.1415 7.49894 17.6234 6.67729 17.3502 6.28272L15.8305 3.85243C15.6787 3.09364 15.2842 2.39339 14.7053 1.87741C14.8874 1.81671 15.0695 1.72565 15.1606 1.66495C14.1872 1.66495 13.1856 1.17932 12.6696 1.17932C12.3357 1.17932 12.0929 1.39179 12.0929 1.66495C12.1233 1.96846 12.4268 2.27198 13.0035 2.27198C13.1249 2.27198 13.307 2.24163 13.4891 2.21127C13.7926 2.6362 14.0658 3.03077 14.0658 3.60962C14.0658 4.67409 12.7888 5.49358 11.5141 5.49358C11.4534 5.49358 11.3623 5.49358 11.3016 5.49358C11.1802 5.22041 10.816 4.79549 10.816 4.27735C10.816 3.42751 11.3623 2.7576 11.3623 1.90776C11.3623 1.39178 11.1195 1.05792 10.9981 0.934343C11.1498 0.782585 11.332 0.600478 11.3623 0.479072C11.2713 0.509423 11.1498 0.509423 10.9981 0.509423C10.3911 0.509423 9.87292 0.357666 9.38729 0.357666C9.11413 0.357666 9.02308 0.44872 9.02308 0.539774C9.02308 0.570126 9.02308 0.600477 9.02308 0.600477C8.93202 0.570126 8.81061 0.539775 8.71956 0.509423C8.5678 0.479071 8.41605 0.479072 8.26429 0.479072C7.68761 0.479072 7.47515 0.721882 7.47515 0.934343C7.47515 1.11645 7.6269 1.45032 7.77866 1.69313C8.02147 1.57172 8.29464 1.51102 8.41604 1.51102C8.71956 1.51102 9.02308 1.81454 9.14448 2.17876C8.93202 2.20911 8.90167 2.20911 8.68921 2.20911C8.11253 2.20911 7.71579 1.99665 7.62474 1.99665L7.59439 2.027C7.59439 2.11805 7.74614 2.33051 8.08001 2.45192C8.50493 2.60368 9.14448 2.66438 9.23554 2.69473C9.23554 2.72508 9.11413 2.90719 8.99272 2.93754C8.96237 2.93754 8.96237 2.93754 8.93202 2.93754C8.47675 2.84649 8.35534 2.81614 7.80685 2.60368C7.77649 2.60368 7.77649 2.60368 7.77649 2.63403C7.77649 2.84649 8.35317 3.33211 8.87132 3.54458C8.4464 4.0909 7.8979 4.66975 7.65509 5.51959C7.59439 5.51959 7.50333 5.51959 7.44263 5.51959C6.1657 5.51959 4.89093 4.7001 4.89093 3.63563C4.89093 3.05895 5.13374 2.66221 5.46761 2.23729C5.64972 2.26764 5.83183 2.298 5.95323 2.298C6.52991 2.298 6.83343 1.99448 6.86378 1.69096C6.86378 1.4178 6.65132 1.20534 6.2871 1.20534C5.74077 1.20534 4.76736 1.69096 3.79611 1.69096C3.88716 1.75167 4.06927 1.84272 4.25138 1.90342C3.6747 2.4194 3.27796 3.11965 3.12621 3.87844L1.6108 6.3109C1.36799 6.70547 0.821659 7.49678 0 8.13416C0.973417 8.13416 1.6108 8.16451 2.46064 6.85723L3.21943 5.61065C3.28013 5.7624 3.34084 5.91416 3.43189 6.09627L1.88179 8.55691C1.63898 8.95148 1.09265 9.74279 0.270996 10.3802C1.24441 10.3802 1.88179 10.4105 2.73164 9.10324L4.06927 6.97647C4.16033 7.06752 4.28173 7.18893 4.37279 7.27998L2.48882 10.2891C2.24601 10.6837 1.69969 11.475 0.878026 12.1124C1.85144 12.1124 2.51918 12.1427 3.33867 10.8354L5.16193 7.91736C5.28333 7.97807 5.40474 8.06912 5.52615 8.12982L3.30832 11.6853C3.0655 12.1102 2.51918 12.8712 1.69752 13.5085C2.67093 13.5085 3.33867 13.5389 4.15816 12.2316L6.43669 8.55475C6.5581 8.61545 6.70986 8.6458 6.86161 8.7065L4.27956 12.8386C4.03675 13.2332 3.49043 14.0549 2.66877 14.6619C3.64218 14.6619 4.27956 14.6923 5.12941 13.385L7.89356 8.97966C7.92392 8.97966 7.95427 8.97966 7.98462 9.01002C8.04532 9.25283 8.10603 9.46529 8.10603 9.7081C8.10603 11.1064 7.19548 12.3205 6.10066 13.2636C6.16136 13.2939 6.28277 13.2939 6.40417 13.2939C6.61663 13.2939 6.76839 13.2939 6.8898 13.2636C6.64698 13.8402 6.10066 14.5709 5.82532 14.9654C5.46111 14.9047 4.94513 14.844 4.6091 14.844C4.24488 14.844 4.21453 15.0565 4.21453 15.2386C4.21453 15.5725 4.36628 15.8153 4.54839 15.967C4.6091 15.8153 4.76085 15.5725 5.39824 15.5725C5.39824 15.5725 5.42859 15.5725 5.45894 15.5725C5.27683 15.7849 4.6698 16.2705 4.6698 16.6673C4.6698 16.9404 4.94296 17.3047 5.33753 17.3047C5.30718 17.2136 5.30718 17.1529 5.30718 17.0922C5.30718 16.7887 5.58034 16.3941 5.82316 16.1513C5.82316 16.2424 5.82316 16.212 5.82316 16.3031C5.82316 17.0618 5.88386 17.3979 6.36948 17.3979C6.6123 17.3979 6.76405 17.2765 6.82476 17.2461C6.52124 16.973 6.49089 16.7301 6.49089 16.3052C6.49089 16.1838 6.49089 16.0928 6.49089 15.941C6.49089 15.85 6.49089 15.7285 6.46054 15.6375C6.64265 15.6071 6.70335 15.6071 6.82476 15.6071C6.82476 15.6071 7.49249 15.5464 7.6746 15.9107C7.85671 15.7285 8.12987 15.5161 8.12987 15.2429C8.12987 15.0608 8.03882 14.8787 7.70495 14.8787C7.58355 14.8787 7.15862 14.9698 6.79441 14.9698C6.88546 14.7573 7.31038 14.1503 7.6746 13.7232C7.7353 13.9053 7.82636 14.0874 8.00847 14.2392C8.03882 13.966 8.19058 13.0533 8.64585 12.5373C8.70655 12.9015 8.76726 13.2657 8.76726 14.0267C8.76726 15.9107 8.31198 17.2786 7.36892 17.5518C7.49032 17.7643 7.76349 17.9767 8.03665 17.9767C8.37052 17.9767 8.58298 17.5822 8.76509 17.2179C8.85614 17.4911 9.15966 18.1588 9.43282 18.1588C9.70598 18.1588 9.97915 17.4911 10.1006 17.2179C10.2827 17.5822 10.4951 17.9767 10.829 17.9767C11.1022 17.9767 11.3753 17.7946 11.4967 17.5518C10.5558 17.2786 10.0984 15.9107 10.0984 14.0267C10.0984 13.2679 10.1591 12.9015 10.2198 12.5373C10.6751 13.0533 10.8268 13.966 10.8572 14.2392C11.0393 14.0874 11.1303 13.9053 11.191 13.7232C11.5553 14.1784 11.9802 14.7876 12.0712 14.9698C11.7374 14.9698 11.3124 14.8787 11.1607 14.8787C10.8268 14.8787 10.7358 15.0608 10.7358 15.2429C10.7358 15.5161 11.0089 15.7285 11.191 15.9107C11.3428 15.5464 12.0409 15.6071 12.0409 15.6071C12.1623 15.6071 12.2533 15.6071 12.4051 15.6375C12.3748 15.7285 12.3748 15.85 12.3748 15.941C12.3748 16.0928 12.3748 16.1838 12.3748 16.3052C12.3748 16.7301 12.3444 16.9426 12.0409 17.2461C12.1016 17.2765 12.2533 17.3979 12.4962 17.3979C12.9818 17.3979 13.0425 17.064 13.0425 16.3031C13.0425 16.212 13.0425 16.212 13.0425 16.1513C13.2853 16.4245 13.5585 16.7887 13.5585 17.0922C13.5585 17.1529 13.5585 17.2136 13.5281 17.3047C13.8923 17.3047 14.1958 16.9101 14.1958 16.6673C14.1958 16.2727 13.5888 15.7871 13.4067 15.5725C13.4371 15.5725 13.4674 15.5725 13.4674 15.5725C14.1351 15.5725 14.2565 15.7849 14.3172 15.967C14.4994 15.8153 14.6511 15.5725 14.6511 15.2386C14.6511 15.0565 14.6208 14.844 14.2565 14.844C13.9227 14.844 13.4067 14.9047 13.0403 14.9654C12.7672 14.5709 12.2208 13.8402 11.9758 13.2636C12.0669 13.2939 12.2187 13.2939 12.4615 13.2939C12.5829 13.2939 12.7043 13.2939 12.765 13.2636C11.6702 12.3227 10.7596 11.0761 10.7596 9.7081C10.7596 9.49564 10.8203 9.25283 10.881 9.01002C10.9114 9.01002 10.9417 9.01002 10.9721 8.97966L13.7362 13.385C14.5557 14.6923 15.2256 14.6619 16.1969 14.6619C15.4077 14.0549 14.8592 13.2332 14.5861 12.8386L12.004 8.7065C12.1558 8.67615 12.2772 8.61545 12.429 8.55475L14.7075 12.2316C15.527 13.5389 16.1969 13.5085 17.1681 13.5085C16.3486 12.8712 15.8305 12.1102 15.5573 11.6853L13.3395 8.12982C13.4609 8.06912 13.5823 7.97807 13.7037 7.91736L15.527 10.8354C16.3465 12.1427 17.0164 12.1124 17.9876 12.1124C17.1681 11.475 16.65 10.714 16.3768 10.2891L14.4929 7.27998C14.6143 7.18893 14.7053 7.06752 14.7964 6.97647L16.134 9.10324C16.9535 10.4105 17.6234 10.3802 18.5946 10.3802C17.7752 9.74279 17.257 8.98183 16.9838 8.55691L15.4338 6.09627C15.5248 5.94452 15.5855 5.79276 15.6462 5.61065L16.5004 6.82904ZM4.13214 3.97167C4.13214 3.06112 4.79988 2.33051 5.04269 2.11805C5.10339 2.11805 5.1641 2.1484 5.2248 2.1484C4.98199 2.45192 4.52671 2.9679 4.52671 3.6378C4.52671 4.97543 5.9554 6.15914 7.59655 6.15914C7.59655 6.28055 7.5662 6.40195 7.5662 6.52336C7.5662 6.73582 7.5662 6.91793 7.59655 7.06969C5.77329 7.10221 4.13214 5.61282 4.13214 3.97167ZM6.65349 15.0326V15.063H6.68384C7.19982 15.063 7.44263 15.0326 7.62474 15.0023C7.71579 15.0023 7.77649 14.9719 7.8372 14.9719C7.9586 14.9719 8.08001 14.9719 8.08001 15.154C8.08001 15.2754 7.9586 15.4272 7.8372 15.5486C7.65509 15.3665 7.38193 15.3361 6.98736 15.3361C6.80525 15.3361 6.56243 15.3665 6.44103 15.3968H6.41068H6.38032V15.4575C6.38032 15.579 6.41068 15.7004 6.41068 15.8825V16.0342V16.2467C6.41068 16.6716 6.47138 16.9448 6.62314 17.1269C6.59278 17.1269 6.53208 17.1572 6.47138 17.1572C6.19822 17.1572 6.10716 17.0358 6.10716 16.2467C6.10716 16.0949 6.10716 15.9432 6.10716 15.8521V15.7004L6.07681 15.7307C5.68224 16.0342 5.25732 16.5806 5.22697 17.0076C5.10556 16.9166 4.98415 16.7648 4.98415 16.6131C4.98415 16.4006 5.31802 16.0364 5.71259 15.6722L5.92505 15.4597L5.9554 15.4294L5.8947 15.399C5.80365 15.3687 5.65189 15.3383 5.53048 15.3383C5.10556 15.3383 4.80204 15.4294 4.65029 15.6115C4.58958 15.5204 4.52888 15.308 4.52888 15.1866C4.52888 15.0955 4.55923 15.0651 4.58958 15.0348C4.61994 15.0044 4.68064 15.0044 4.74134 15.0044C5.22697 15.0044 5.80581 15.0955 6.01827 15.1259C6.04863 15.0651 6.99169 13.8489 7.2345 13.1812C7.29521 13.1508 7.32556 13.1508 7.44696 13.1508C7.62907 13.1508 7.68978 13.2722 7.72013 13.4543C7.14128 14.1199 6.77706 14.6684 6.65349 15.0326ZM11.6376 13.088C11.7287 13.088 11.7894 13.1183 11.8501 13.1183C12.0929 13.786 13.0056 15.0023 13.0663 15.063C13.2788 15.0326 13.8858 14.9416 14.3433 14.9416C14.404 14.9416 14.4647 14.9416 14.495 14.9719C14.5254 15.0023 14.5557 15.063 14.5557 15.1237C14.5557 15.2451 14.495 15.4575 14.4343 15.5486C14.2522 15.3665 13.979 15.2754 13.5541 15.2754C13.4327 15.2754 13.2506 15.3058 13.1899 15.3361H13.1596H13.127L13.3698 15.579C13.7644 15.9735 14.0983 16.3074 14.0983 16.5199C14.0983 16.6413 13.9769 16.8234 13.8555 16.9144C13.8251 16.4895 13.4002 15.941 13.0056 15.6375L12.9753 15.6071V15.7589C12.9753 15.85 12.9753 16.0017 12.9753 16.1535C12.9753 16.9426 12.8842 17.064 12.6111 17.064C12.5807 17.064 12.52 17.064 12.4593 17.0337C12.6111 16.8516 12.6718 16.6087 12.6718 16.1535V15.941V15.7892C12.6718 15.6071 12.7021 15.4857 12.7021 15.3643V15.3036H12.6718C12.5504 15.2733 12.3075 15.2429 12.1254 15.2429C11.7309 15.2429 11.4881 15.2733 11.2756 15.4554C11.1542 15.3643 11.0328 15.1822 11.0328 15.0608C11.0328 14.9091 11.1238 14.8787 11.2756 14.8787C11.3363 14.8787 11.397 14.8787 11.4881 14.9091C11.6398 14.9394 11.913 14.9698 12.429 14.9698H12.4593V14.9394C12.3379 14.5752 11.9737 14.0289 11.3948 13.3286C11.3948 13.2094 11.4555 13.088 11.6376 13.088ZM9.48052 2.36086C9.41981 2.11805 9.29841 1.87524 9.14665 1.69313C8.99489 1.51102 8.78243 1.32891 8.44856 1.32891C8.29681 1.32891 8.05399 1.38962 7.90224 1.45032C7.84153 1.35926 7.72013 1.0861 7.72013 0.964694C7.72013 0.843288 7.93259 0.721883 8.29681 0.721883C9.1163 0.721883 9.63444 1.0861 9.63444 1.72565C9.66263 1.9663 9.57157 2.17876 9.48052 2.36086ZM9.87509 1.54137C9.84473 1.35926 9.78403 1.20751 9.66262 1.05575C9.66262 0.903994 9.72333 0.721882 9.99649 0.87364C9.84473 1.0254 9.96614 1.26821 9.96614 1.26821C9.96614 1.26821 10.2697 1.1468 10.209 0.934343C10.636 1.05358 10.3 1.63243 9.87509 1.54137ZM11.4859 7.10221C11.5162 6.9201 11.5162 6.73799 11.5162 6.55588C11.5162 6.46483 11.5162 6.34342 11.5162 6.19166C13.127 6.16131 14.5254 5.00579 14.5254 3.67032C14.5254 3.00258 14.0701 2.48444 13.8273 2.18092C13.888 2.18092 13.9487 2.15057 14.0094 2.15057C14.2522 2.36303 14.9199 3.09147 14.9199 4.00418C14.9199 5.58246 13.3091 7.07186 11.4859 7.10221Z" fill="black"/>
<path d="M26.7099 1.17725V17.3416H25.4937H23.8525V1.17725H26.7099Z" fill="black"/>
<path d="M75.3269 0.992676C74.8412 0.992676 74.5074 1.14443 74.3534 1.4783C74.232 1.69076 74.1713 2.05498 74.1713 2.54277V3.05875H73.5036V3.57472H74.1713V7.64616H74.8998V3.57472H75.6889V3.05875H74.8998V2.39101C74.8998 2.1482 74.9301 1.93574 74.9605 1.84469C75.0515 1.69293 75.2033 1.60187 75.4157 1.60187C75.5372 1.60187 75.6282 1.60187 75.6889 1.60187V1.0252C75.5697 0.992678 75.4786 0.992676 75.3269 0.992676ZM32.6656 1.02303V7.61581H34.2764C34.9442 7.61581 35.4319 7.49441 35.7355 7.22124C36.0693 6.94808 36.2514 6.46245 36.2514 5.79255C36.2514 5.33728 36.1907 4.97306 36.039 4.72808C35.8872 4.45492 35.5837 4.24246 35.1588 4.1514C35.523 4.03 35.7962 3.84789 35.9176 3.60508C36.0693 3.39262 36.13 3.05875 36.13 2.66418C36.13 2.0875 35.9783 1.66041 35.7051 1.38725C35.4319 1.14444 35.007 0.992676 34.3978 0.992676H32.6656V1.02303ZM48.6175 1.02303V3.45332C48.3747 3.0891 48.0408 2.90699 47.5834 2.90699C47.0371 2.90699 46.6425 3.1498 46.4279 3.66578C46.2761 4.03 46.1851 4.54597 46.1851 5.24622C46.1851 5.97466 46.2458 6.55351 46.3975 6.88738C46.61 7.40335 47.0046 7.67652 47.6138 7.67652C48.069 7.67652 48.4332 7.46406 48.6782 7.06949V7.58546H49.3763C49.346 7.16054 49.346 6.88738 49.346 6.73562V1.02303H48.6175ZM77.1198 1.11625V1.99645H77.7875V1.11625H77.1198ZM78.5181 1.11625V1.99645H79.2162V1.11625H78.5181ZM33.4548 1.66258H34.2136C34.6081 1.66258 34.8813 1.72328 35.0634 1.87504C35.2759 2.0268 35.3669 2.33031 35.3669 2.72488C35.3669 3.51402 35.0027 3.91076 34.2417 3.91076H33.4222V1.66258H33.4548ZM69.9807 1.87504L69.2522 2.20891V3.05875H68.5541V3.57472H69.2522V6.55351C69.2522 6.97843 69.3129 7.2516 69.4343 7.40335C69.5861 7.58546 69.8593 7.67652 70.2842 7.67652C70.4056 7.67652 70.5877 7.67652 70.8305 7.64616V7.06949C70.6484 7.09984 70.527 7.09984 70.4966 7.09984C70.2842 7.09984 70.1628 7.06949 70.0717 6.97843C70.011 6.88738 69.9503 6.70527 69.9503 6.46245V3.57472H70.7698V3.05875H69.9503V1.87287H69.9807V1.87504ZM43.7873 2.93734C43.241 2.93734 42.8464 3.18015 42.6014 3.66578V3.0284H41.873C41.9033 3.30156 41.9033 3.63543 41.9033 4.03217V7.61798H42.6318V4.85382C42.6318 4.4896 42.6925 4.18609 42.8442 3.91293C43.0263 3.60941 43.2388 3.45765 43.5727 3.45765C43.8762 3.45765 44.0886 3.57906 44.21 3.85222C44.2707 4.00398 44.3011 4.27715 44.3011 4.67172V7.62015H45.0295V4.3682C45.0035 3.42514 44.6068 2.93734 43.7873 2.93734ZM52.173 2.93734C51.4749 2.93734 50.9871 3.21051 50.7746 3.75683C50.6229 4.12105 50.5622 4.69773 50.5622 5.51939C50.5622 6.24783 50.6532 6.76597 50.8354 7.06949C51.0782 7.49441 51.5031 7.70687 52.1426 7.70687C53.116 7.70687 53.632 7.19089 53.6927 6.18712H52.9946C52.9643 6.85486 52.6911 7.19089 52.1751 7.19089C51.8109 7.19089 51.5985 7.03913 51.4771 6.73562C51.386 6.52316 51.3557 6.18929 51.3557 5.73185V5.42834H53.7556V5.21587C53.7556 4.48744 53.6949 3.96929 53.5431 3.66578C53.2678 3.18232 52.8429 2.93734 52.173 2.93734ZM56.032 2.93734C55.6374 2.93734 55.3035 3.0284 55.0585 3.24086C54.7854 3.45332 54.664 3.75683 54.664 4.1514C54.664 4.51562 54.7854 4.78879 55.0282 5.00125C55.1496 5.12265 55.4228 5.27441 55.8477 5.51722C56.1512 5.69933 56.3637 5.82074 56.4547 5.91179C56.6065 6.06355 56.6672 6.24566 56.6672 6.51882C56.6672 7.00445 56.4244 7.21691 55.9691 7.21691C55.5745 7.21691 55.3317 6.9741 55.3014 6.48847C55.3014 6.39742 55.3014 6.33671 55.3014 6.24566H54.5729C54.5426 7.24943 55.0282 7.73505 55.9713 7.73505C56.9447 7.73505 57.3999 7.27978 57.3999 6.39742C57.3999 6.06355 57.2785 5.76003 57.0661 5.54757C56.9143 5.39581 56.6715 5.24406 56.3073 5.0316C55.9734 4.84949 55.761 4.72808 55.6699 4.63703C55.4878 4.48527 55.3967 4.30316 55.3967 4.0907C55.3967 3.90859 55.4575 3.75683 55.5789 3.63543C55.7003 3.51402 55.852 3.45332 56.0341 3.45332C56.4591 3.45332 56.6715 3.72648 56.6715 4.30316H57.3999C57.3999 3.84789 57.2785 3.48367 57.0661 3.26904C56.8536 3.06092 56.5198 2.93734 56.032 2.93734ZM59.8909 2.93734C59.4357 2.93734 59.1018 3.0284 58.8265 3.2105C58.523 3.42297 58.3712 3.72648 58.3712 4.1514V4.18176H59.0996V4.1514C59.0996 3.93894 59.1603 3.75683 59.3121 3.63543C59.4639 3.51402 59.646 3.45332 59.8584 3.45332C60.1619 3.45332 60.3744 3.57472 60.4655 3.81754C60.5262 3.96929 60.5565 4.21211 60.5565 4.60668V4.81914C59.7977 4.81914 59.2492 4.91019 58.9154 5.06195C58.4297 5.27441 58.1566 5.72968 58.1566 6.36923C58.1566 6.7638 58.2476 7.09767 58.4297 7.34265C58.6422 7.58546 58.9457 7.73722 59.3403 7.73722C59.8563 7.73722 60.2508 7.52476 60.5869 7.06949V7.67652H61.2849C61.2546 7.2516 61.2242 6.76597 61.2242 6.21748V4.51562C61.2242 3.96929 61.1332 3.60507 60.9207 3.36009C60.7733 3.06092 60.4091 2.93734 59.8909 2.93734ZM64.3895 2.93734C63.9039 2.93734 63.5396 3.18015 63.2946 3.63543V3.0284H62.5662C62.5966 3.27121 62.5966 3.54437 62.5966 3.81754V7.61581H63.325V4.79095C63.325 4.42674 63.3857 4.09287 63.5071 3.88041C63.6589 3.60724 63.8713 3.48584 64.1445 3.48584C64.4177 3.48584 64.6301 3.60724 64.6908 3.81971C64.7515 3.94111 64.7515 4.15357 64.7515 4.48744V7.61798H65.48V4.73025C65.48 3.91076 65.7531 3.48367 66.2995 3.48367C66.5726 3.48367 66.7547 3.60507 66.8458 3.81754C66.9065 3.96929 66.9368 4.18175 66.9368 4.51562V7.61581H67.6653V4.48527C67.6653 3.93894 67.5742 3.57472 67.4225 3.32974C67.2403 3.05658 66.9368 2.90482 66.5423 2.90482C66.0566 2.90482 65.6621 3.14764 65.4171 3.60291C65.2697 3.18232 64.9055 2.93734 64.3895 2.93734ZM82.8931 2.93734C82.3771 2.93734 81.9825 3.18015 81.7375 3.63543V3.0284H81.0395C81.0698 3.27121 81.0698 3.54437 81.0698 3.84789V7.61581H81.7982V4.7606C81.7982 4.39638 81.8893 4.12322 82.0714 3.91076C82.2535 3.6983 82.4963 3.57689 82.8605 3.57689C82.8909 3.57689 82.9516 3.57689 83.0123 3.60724C82.9841 3.18232 82.9538 2.93734 82.8931 2.93734ZM37.4677 3.03057V6.28252C37.4677 7.22341 37.8926 7.7112 38.7142 7.7112C39.1999 7.7112 39.5944 7.49874 39.8698 7.04347V7.62015H40.5982C40.5679 7.31664 40.5679 6.98277 40.5679 6.61638V3.03057H39.8394V5.82507C39.8394 6.70527 39.5359 7.16271 38.9289 7.16271C38.595 7.16271 38.4129 7.0413 38.2915 6.76814C38.2308 6.61638 38.2004 6.34322 38.2004 5.979V3.03057H37.4677ZM76.6038 3.03057V6.28252C76.6038 7.22341 77.0287 7.7112 77.8504 7.7112C78.336 7.7112 78.7306 7.49874 79.0059 7.04347V7.62015H79.7343C79.704 7.31664 79.704 6.98277 79.704 6.61638V3.03057H78.9756V5.82507C78.9756 6.70527 78.672 7.16271 78.065 7.16271C77.7311 7.16271 77.5187 7.0413 77.4276 6.76814C77.3669 6.61638 77.3366 6.34322 77.3366 5.979V3.03057H76.6038ZM52.173 3.45549C52.5372 3.45549 52.78 3.6376 52.8711 4.00181C52.9318 4.18392 52.9621 4.48744 52.9621 4.94271H51.2906C51.2906 4.7606 51.2906 4.54814 51.321 4.33568C51.3838 3.759 51.657 3.45549 52.173 3.45549ZM47.7677 3.45549C48.1319 3.45549 48.3747 3.66795 48.4961 4.03217C48.5872 4.30533 48.6479 4.73025 48.6479 5.3698C48.6479 5.94648 48.6175 6.34322 48.5265 6.58603C48.4051 6.9806 48.1319 7.16271 47.7677 7.16271C47.4338 7.16271 47.191 6.9806 47.0696 6.58603C46.9785 6.31287 46.9178 5.85759 46.9178 5.24839C46.9178 4.70207 46.9482 4.27498 47.0392 4.03217C47.191 3.66795 47.4338 3.45549 47.7677 3.45549ZM33.4548 4.51779H34.2743C34.6992 4.51779 35.0027 4.60884 35.1848 4.82131C35.3669 5.03377 35.458 5.33728 35.458 5.79472C35.458 6.28035 35.3366 6.61421 35.1241 6.79849C34.942 6.95025 34.6081 7.01095 34.1507 7.01095H33.4526L33.4548 4.51779ZM60.3787 5.3091H60.5608V5.85543C60.5608 6.21964 60.5001 6.49281 60.3787 6.73562C60.227 7.03913 59.9538 7.19089 59.6199 7.19089C59.1647 7.19089 58.9522 6.88738 58.9522 6.3107C58.95 5.64296 59.4053 5.3091 60.3787 5.3091ZM32.0586 10.7485L33.7908 17.3413H34.7317L36.4639 10.7485H35.7051L34.2764 16.6129L32.8781 10.7485H32.0586ZM43.9087 10.7485V16.4611C43.9087 16.6432 43.9087 16.9164 43.8783 17.3413H44.5764V16.8253C44.8192 17.2199 45.1835 17.4324 45.6713 17.4324C46.2783 17.4324 46.675 17.1592 46.8875 16.6129C47.0089 16.2487 47.0999 15.7327 47.0999 15.0021C47.0999 14.304 47.0392 13.7858 46.9178 13.452C46.7054 12.936 46.3412 12.6628 45.7623 12.6628C45.307 12.6628 44.9428 12.8449 44.6675 13.2395V10.7485H43.9087ZM63.3554 10.7485V17.3413H64.0838V14.5468C64.0838 13.6363 64.3873 13.1788 65.0247 13.1788C65.3282 13.1788 65.5407 13.3002 65.6621 13.5734C65.7228 13.7251 65.7531 13.9983 65.7531 14.3929V17.3413H66.4816V14.0894C66.4816 13.1159 66.087 12.6303 65.2653 12.6303C64.7797 12.6303 64.4155 12.8428 64.1098 13.2677V10.7464H63.3554V10.7485ZM82.0736 10.7485V17.3413H82.802V14.5468C82.802 13.6363 83.1055 13.1788 83.7429 13.1788C84.0464 13.1788 84.2589 13.3002 84.3803 13.5734C84.441 13.7251 84.4713 13.9983 84.4713 14.3929V17.3413H85.1998V14.0894C85.1998 13.1159 84.8052 12.6303 83.9836 12.6303C83.4979 12.6303 83.1337 12.8428 82.828 13.2677V10.7464H82.0736V10.7485ZM110.242 10.7485V13.1788C109.999 12.8146 109.665 12.6325 109.208 12.6325C108.662 12.6325 108.267 12.8753 108.052 13.3913C107.901 13.7555 107.81 14.2715 107.81 14.9717C107.81 15.7002 107.87 16.2487 108.022 16.6129C108.234 17.1289 108.629 17.402 109.238 17.402C109.693 17.402 110.058 17.1896 110.303 16.795V17.3413H111.001C110.97 16.9164 110.97 16.6432 110.97 16.4611V10.7485H110.242ZM91.9183 11.568L91.1899 11.9019V12.7517H90.4918V13.2981H91.1899V16.2768C91.1899 16.7018 91.2506 16.9749 91.372 17.157C91.5237 17.3391 91.7969 17.4302 92.2218 17.4302C92.3432 17.4302 92.5253 17.4302 92.7378 17.3998V16.8232C92.5557 16.8535 92.4343 16.8535 92.4039 16.8535C92.1915 16.8535 92.0701 16.8232 91.979 16.7321C91.9183 16.6411 91.8576 16.4893 91.8576 16.2161V13.3284H92.6771V12.7821H91.8576V11.5658H91.9183V11.568ZM38.4389 12.6325C37.7408 12.6325 37.253 12.9057 37.0406 13.452C36.8888 13.8162 36.8281 14.3929 36.8281 15.2145C36.8281 15.943 36.9192 16.4611 37.1013 16.7646C37.3441 17.1896 37.769 17.4324 38.4086 17.4324C39.382 17.4324 39.898 16.9164 39.9587 15.8823H39.2606C39.2302 16.55 38.9571 16.886 38.4411 16.886C38.0769 16.886 37.8644 16.7343 37.743 16.4308C37.6519 16.2183 37.6216 15.8844 37.6216 15.427V15.1235H40.0215V14.911C40.0215 14.1826 39.9608 13.6644 39.8091 13.3609C39.5337 12.8753 39.1067 12.6325 38.4389 12.6325ZM52.3247 12.6325C51.8695 12.6325 51.5356 12.7235 51.2603 12.9057C50.9568 13.1181 50.805 13.4216 50.805 13.8465V13.9073H51.5334V13.8465C51.5334 13.6341 51.5941 13.452 51.7459 13.3306C51.8977 13.2092 52.0798 13.1485 52.2922 13.1485C52.5957 13.1485 52.8082 13.2699 52.9296 13.5127C52.9903 13.6644 53.0207 13.9073 53.0207 14.3018V14.5143C52.2619 14.5143 51.7134 14.6053 51.4099 14.7571C50.9242 14.9696 50.6511 15.4248 50.6511 16.0644C50.6511 16.4589 50.7421 16.7928 50.9242 17.0378C51.1367 17.2806 51.4402 17.4324 51.8348 17.4324C52.3508 17.4324 52.7453 17.2199 53.0814 16.7646V17.3717H53.7794C53.7491 16.9467 53.7491 16.4611 53.7491 15.9126V14.2108C53.7491 13.6644 53.658 13.3002 53.4456 13.0552C53.2375 12.7539 52.8732 12.6325 52.3247 12.6325ZM60.9251 12.6325C60.2573 12.6325 59.7999 12.9057 59.5571 13.4216C59.4053 13.7555 59.3143 14.3322 59.3143 15.1235C59.3143 15.9148 59.4053 16.4915 59.5874 16.795C59.7999 17.2199 60.2552 17.4324 60.8947 17.4324C61.8356 17.4324 62.3234 16.9164 62.3234 15.9126H61.6253C61.6253 16.2161 61.5646 16.459 61.4736 16.6107C61.3522 16.8232 61.17 16.9142 60.8665 16.9142C60.5327 16.9142 60.3202 16.7625 60.1988 16.4589C60.1077 16.1858 60.047 15.7305 60.047 15.0303C60.047 14.4232 60.0774 13.9961 60.1381 13.7533C60.2595 13.3588 60.5023 13.1463 60.8665 13.1463C61.3522 13.1463 61.5646 13.4802 61.5646 14.1197H62.2627C62.2627 13.6037 62.1716 13.2395 61.9592 12.9945C61.8356 12.7539 61.4714 12.6325 60.9251 12.6325ZM69.2804 12.6325C68.5823 12.6325 68.0945 12.9057 67.8821 13.452C67.7303 13.8162 67.6696 14.3929 67.6696 15.2145C67.6696 15.943 67.7607 16.4611 67.9428 16.7646C68.1856 17.1896 68.6105 17.4324 69.2501 17.4324C70.2235 17.4324 70.7394 16.9164 70.8002 15.8823H70.1021C70.0717 16.55 69.7986 16.886 69.2826 16.886C68.9184 16.886 68.7059 16.7343 68.5845 16.4308C68.4934 16.2183 68.4631 15.8844 68.4631 15.427V15.1235H70.863V14.911C70.863 14.1826 70.8023 13.6644 70.6506 13.3609C70.3752 12.8753 69.92 12.6325 69.2804 12.6325ZM75.7843 12.6325C75.3897 12.6325 75.0559 12.7235 74.8109 12.936C74.5377 13.1485 74.4163 13.452 74.4163 13.8465C74.4163 14.2108 74.5377 14.4839 74.7502 14.6964C74.8716 14.8178 75.1448 14.9696 75.5697 15.2124C75.8732 15.3945 76.0857 15.5159 76.1767 15.6069C76.3285 15.7587 76.3892 15.9712 76.3892 16.214C76.3892 16.6996 76.1464 16.9121 75.6911 16.9121C75.2965 16.9121 75.0537 16.6692 75.0233 16.1836C75.0233 16.0926 75.0233 16.0319 75.0233 15.9408H74.2949C74.2646 16.9446 74.7502 17.4302 75.6932 17.4302C76.6667 17.4302 77.1219 16.9749 77.1219 16.0926C77.1219 15.7587 77.0005 15.4552 76.7881 15.2427C76.6363 15.091 76.3935 14.9392 76.0293 14.7267C75.6954 14.5446 75.483 14.4232 75.3919 14.3322C75.2098 14.1804 75.1187 13.9983 75.1187 13.8162C75.1187 13.6341 75.1794 13.4823 75.3008 13.3609C75.4223 13.2395 75.574 13.1788 75.7561 13.1788C76.181 13.1788 76.3935 13.452 76.3935 14.0287H77.1219C77.1219 13.5734 77.0005 13.2395 76.7881 12.9945C76.6038 12.7539 76.2699 12.6325 75.7843 12.6325ZM79.6433 12.6325C78.9755 12.6325 78.4878 12.9057 78.2753 13.4216C78.1235 13.7555 78.0628 14.3322 78.0628 15.1235C78.0628 15.9148 78.1539 16.4915 78.3056 16.795C78.5181 17.2199 78.9734 17.4324 79.6433 17.4324C80.5842 17.4324 81.072 16.9164 81.072 15.9126H80.3739C80.3739 16.2161 80.3132 16.459 80.2221 16.6107C80.1007 16.8232 79.9186 16.9142 79.6151 16.9142C79.2812 16.9142 79.0688 16.7625 78.9474 16.4589C78.8563 16.1858 78.7956 15.7305 78.7956 15.0303C78.7956 14.4232 78.826 13.9961 78.8867 13.7533C79.0081 13.3588 79.2509 13.1463 79.6151 13.1463C80.1007 13.1463 80.3132 13.4802 80.3132 14.1197H81.0113C81.0113 13.6037 80.9202 13.2395 80.7078 12.9945C80.5538 12.7539 80.1896 12.6325 79.6433 12.6325ZM105.41 12.6325C104.863 12.6325 104.469 12.8753 104.224 13.3609V12.7235H103.526C103.556 12.9967 103.556 13.3306 103.556 13.7273V17.3131H104.284V14.549C104.284 14.1848 104.345 13.8812 104.497 13.6081C104.679 13.3046 104.891 13.1528 105.225 13.1528C105.529 13.1528 105.741 13.2742 105.863 13.5474C105.923 13.6991 105.954 13.9723 105.954 14.3669V17.3153H106.682V14.0287C106.595 13.1181 106.199 12.6325 105.41 12.6325ZM42.9656 12.6325C42.4497 12.6325 42.0551 12.8753 41.8101 13.3306V12.7235H41.112C41.1424 12.9664 41.1424 13.2395 41.1424 13.5734V17.3413H41.8708V14.4861C41.8708 14.1219 41.9619 13.8487 42.144 13.6363C42.3261 13.4238 42.5689 13.3327 42.9331 13.3327C42.9635 13.3327 43.0242 13.3327 43.0849 13.3631C43.0263 12.8753 42.996 12.6325 42.9656 12.6325ZM50.1069 12.6325C49.5909 12.6325 49.1964 12.8753 48.9514 13.3306V12.7235H48.2533C48.2837 12.9664 48.2837 13.2395 48.2837 13.5734V17.3413H49.0121V14.4861C49.0121 14.1219 49.1031 13.8487 49.2853 13.6363C49.4674 13.4238 49.7102 13.3327 50.0744 13.3327C50.1047 13.3327 50.1654 13.3327 50.2262 13.3631C50.1676 12.8753 50.1373 12.6325 50.1069 12.6325ZM73.7789 12.6325C73.263 12.6325 72.8684 12.8753 72.6234 13.3306V12.7235H71.9253C71.9557 12.9664 71.9557 13.2395 71.9557 13.5734V17.3413H72.6841V14.4861C72.6841 14.1219 72.7752 13.8487 72.9573 13.6363C73.1394 13.4238 73.3822 13.3327 73.7464 13.3327C73.7768 13.3327 73.8375 13.3327 73.8982 13.3631C73.8396 12.8753 73.8396 12.6325 73.7789 12.6325ZM55.0911 12.7235V15.9755C55.0911 16.9164 55.4856 17.4042 56.3073 17.4042C56.7929 17.4042 57.1875 17.1917 57.4628 16.7364V17.3131H58.1913C58.1609 17.0096 58.1609 16.6454 58.1609 16.3094V12.7235H57.4325V15.5181C57.4325 16.3982 57.129 16.8557 56.5219 16.8557C56.1881 16.8557 55.9756 16.7343 55.8845 16.4611C55.8238 16.3094 55.7935 16.0362 55.7935 15.672V12.7235H55.0911ZM86.5396 12.7235V15.9755C86.5396 16.9164 86.9645 17.4042 87.7862 17.4042C88.2718 17.4042 88.6664 17.1917 88.9417 16.7364V17.3131H89.6701C89.6398 17.0096 89.6398 16.6454 89.6398 16.3094V12.7235H88.9113V15.5181C88.9113 16.3982 88.6078 16.8557 88.0008 16.8557C87.6669 16.8557 87.4545 16.7343 87.3634 16.4611C87.3027 16.3094 87.2724 16.0362 87.2724 15.672V12.7235H86.5396ZM93.4077 12.7235V13.2699H95.1096L93.3166 16.7646V17.3413H95.8987V16.795H94.0754L95.8683 13.3002V12.7235H93.4077ZM99.0899 12.7235V15.9755C99.0899 16.9164 99.5149 17.4042 100.337 17.4042C100.822 17.4042 101.217 17.1917 101.492 16.7364V17.3131H102.22C102.19 17.0096 102.19 16.6454 102.19 16.3094V12.7235H101.431V15.5181C101.431 16.3982 101.128 16.8557 100.521 16.8557C100.187 16.8557 100.005 16.7343 99.8834 16.4611C99.8227 16.3094 99.7924 16.0362 99.7924 15.672V12.7235H99.0899ZM38.4389 13.1485C38.8031 13.1485 39.0459 13.3306 39.137 13.6948C39.1977 13.8769 39.2281 14.1804 39.2281 14.6357H37.5566C37.5566 14.4536 37.5566 14.2411 37.5869 14.0287C37.6498 13.452 37.9533 13.1485 38.4389 13.1485ZM69.2501 13.1485C69.6143 13.1485 69.8571 13.3306 69.9481 13.6948C70.0088 13.8769 70.0392 14.1804 70.0392 14.6357H68.3677C68.3677 14.4536 68.3677 14.2411 68.398 14.0287C68.4913 13.452 68.7644 13.1485 69.2501 13.1485ZM45.5195 13.1485C45.8837 13.1485 46.1265 13.3609 46.2479 13.8162C46.3086 14.059 46.339 14.4232 46.339 14.911C46.339 15.7002 46.2479 16.2183 46.0658 16.4915C45.9141 16.7343 45.732 16.8253 45.4891 16.8253C45.1553 16.8253 44.9125 16.6736 44.7607 16.3701C44.6393 16.1273 44.5786 15.672 44.5786 15.0021C44.5786 14.2129 44.6697 13.6948 44.8518 13.452C45.0339 13.2699 45.2463 13.1485 45.5195 13.1485ZM109.39 13.1485C109.754 13.1485 109.997 13.3306 110.118 13.7251C110.209 13.9983 110.27 14.4536 110.27 15.0628C110.27 15.6395 110.24 16.0362 110.149 16.279C110.027 16.6736 109.754 16.8557 109.36 16.8557C109.026 16.8557 108.813 16.6736 108.662 16.279C108.57 16.0058 108.51 15.5506 108.51 14.9717C108.51 14.4254 108.54 13.9983 108.631 13.7555C108.783 13.3609 109.026 13.1485 109.39 13.1485ZM52.8429 15.0021H53.025V15.5484C53.025 15.9126 52.9643 16.2161 52.8429 16.4286C52.6911 16.7321 52.418 16.8535 52.0841 16.8535C51.6288 16.8535 51.4164 16.55 51.4164 15.9733C51.4142 15.3359 51.8695 15.0021 52.8429 15.0021ZM32.6656 20.4415V27.0343H35.5208V26.3969H33.4548V20.4112H32.6656V20.4415ZM40.5657 20.4415V26.1541C40.5657 26.3362 40.5657 26.6094 40.5353 27.0343H41.2334V26.488C41.4762 26.8825 41.8405 27.095 42.3282 27.095C42.9353 27.095 43.332 26.8218 43.5445 26.2755C43.6659 25.9113 43.7569 25.365 43.7569 24.6343C43.7569 23.9363 43.6962 23.4181 43.5748 23.1146C43.3624 22.5986 42.9981 22.3255 42.4193 22.3255C41.964 22.3255 41.5998 22.5076 41.3245 22.9021V20.4415H40.5657ZM75.1144 20.4415V27.0343H75.8428V20.4415H75.4786H75.1144ZM86.752 20.4415V27.0343H87.4805V24.2398C87.4805 23.3292 87.784 22.8718 88.391 22.8718C88.6945 22.8718 88.907 23.0236 89.0284 23.2664C89.0891 23.4181 89.1195 23.6913 89.1195 24.0859V27.0343H89.8479V23.7823C89.8479 22.8089 89.4533 22.3536 88.6317 22.3536C88.146 22.3536 87.7818 22.5661 87.4761 22.991V20.4697H86.752V20.4415ZM98.1165 20.4415V27.0343H98.845V24.2398C98.845 23.3292 99.1485 22.8718 99.7859 22.8718C100.089 22.8718 100.302 23.0236 100.423 23.2664C100.484 23.4181 100.514 23.6913 100.514 24.0859V27.0343H101.243V23.7823C101.243 22.8089 100.848 22.3536 100.027 22.3536C99.5409 22.3536 99.1767 22.5661 98.871 22.991V20.4697H98.1122V20.4415H98.1165ZM63.5071 20.5326V21.3217H64.2963V20.5326H63.5071ZM80.7966 20.5326V21.3217H81.5858V20.5326H80.7966ZM106.656 20.5326V21.3217H107.445V20.5326H106.656ZM66.577 21.261L65.8485 21.5949V22.4447H65.1504V22.9607H65.8485V25.9395C65.8485 26.3644 65.9092 26.6376 66.0306 26.7893C66.1824 26.9714 66.4555 27.0625 66.8805 27.0625C67.0019 27.0625 67.184 27.0625 67.4268 27.0321V26.4554C67.2447 26.4858 67.1233 26.4858 67.0929 26.4858C66.8805 26.4858 66.7591 26.4554 66.6984 26.3644C66.6377 26.2733 66.577 26.0912 66.577 25.8484V22.9607H67.3964V22.4447H66.577V21.261ZM69.2501 21.261L68.5216 21.5949V22.4447H67.8235V22.9607H68.5216V25.9395C68.5216 26.3644 68.5823 26.6376 68.7037 26.7893C68.8555 26.9714 69.1287 27.0625 69.5536 27.0625C69.675 27.0625 69.8571 27.0625 70.0695 27.0321V26.4554C69.8874 26.4858 69.766 26.4858 69.7357 26.4858C69.5232 26.4858 69.4018 26.4554 69.3108 26.3644C69.25 26.2733 69.1894 26.0912 69.1894 25.8484V22.9607H70.0088V22.4447H69.1894V21.2588H69.2501V21.261ZM109.693 21.261L108.965 21.5949V22.4447H108.267V22.9607H108.965V25.9395C108.965 26.3644 109.026 26.6376 109.147 26.7893C109.299 26.9714 109.572 27.0625 109.997 27.0625C110.118 27.0625 110.3 27.0625 110.543 27.0321V26.4554C110.361 26.4858 110.24 26.4858 110.209 26.4858C109.997 26.4858 109.876 26.4554 109.785 26.3644C109.724 26.2733 109.663 26.0912 109.663 25.8484V22.9607H110.483V22.4447H109.663V21.2588H109.693V21.261ZM37.9229 22.3255C37.2249 22.3255 36.7371 22.5986 36.5246 23.145C36.3728 23.5092 36.3121 24.0859 36.3121 24.9075C36.3121 25.6359 36.4032 26.1541 36.5853 26.4576C36.8281 26.8825 37.253 27.095 37.8926 27.095C38.866 27.095 39.382 26.579 39.4427 25.5752H38.7446C38.7142 26.243 38.4411 26.579 37.9251 26.579C37.5609 26.579 37.3484 26.4273 37.227 26.1237C37.136 25.9113 37.1056 25.5774 37.1056 25.12V24.8165H39.5056V24.604C39.5056 23.8756 39.4449 23.3574 39.2931 23.0539C39.0156 22.5683 38.5603 22.3255 37.9229 22.3255ZM46.3693 22.3255C45.6713 22.3255 45.2138 22.5986 44.971 23.145C44.8192 23.5092 44.7282 24.0859 44.7282 24.9075C44.7282 25.6359 44.8192 26.1541 45.0014 26.4576C45.2442 26.8825 45.6691 27.095 46.3086 27.095C47.2821 27.095 47.798 26.579 47.8587 25.5752H47.1606C47.1303 26.243 46.8571 26.579 46.3412 26.579C45.9769 26.579 45.7645 26.4273 45.6431 26.1237C45.552 25.9113 45.5217 25.5774 45.5217 25.12V24.8165H47.9216V24.604C47.9216 23.8756 47.8609 23.3574 47.7091 23.0539C47.4642 22.5683 47.0392 22.3255 46.3693 22.3255ZM50.9286 22.3255C50.3822 22.3255 49.9877 22.5683 49.7427 23.0539V22.4165H49.0446C49.075 22.6897 49.075 22.9932 49.075 23.4203V27.0061H49.8034V24.2398C49.8034 23.8756 49.8641 23.572 50.0159 23.2989C50.198 22.9954 50.4104 22.8436 50.7443 22.8436C51.0478 22.8436 51.2603 22.9954 51.3817 23.2382C51.4424 23.3899 51.4727 23.6631 51.4727 24.0577V27.0061H52.2012V23.7238C52.1426 22.8111 51.7177 22.3255 50.9286 22.3255ZM54.6965 22.3255C54.3019 22.3255 53.9681 22.4165 53.7231 22.629C53.4499 22.8414 53.3285 23.145 53.3285 23.5395C53.3285 23.9037 53.4499 24.1769 53.6927 24.3894C53.8141 24.5108 54.0873 24.6625 54.5122 24.9053C54.8157 25.0875 55.0282 25.2089 55.1192 25.2999C55.271 25.4517 55.3317 25.6338 55.3317 25.9069C55.3317 26.3926 55.0889 26.605 54.6336 26.605C54.2391 26.605 53.9962 26.3622 53.9659 25.8766C53.9659 25.7855 53.9659 25.7248 53.9659 25.6338H53.2375C53.2071 26.6375 53.6927 27.1232 54.6358 27.1232C55.6092 27.1232 56.0948 26.6679 56.0948 25.7855C56.0948 25.4517 55.9734 25.1482 55.761 24.9053C55.6092 24.7536 55.3664 24.6018 55.0022 24.3894C54.6683 24.2073 54.4255 24.0555 54.3344 23.9948C54.1523 23.843 54.0613 23.6609 54.0613 23.4788C54.0613 23.2967 54.122 23.145 54.213 23.0235C54.3344 22.9021 54.4862 22.8414 54.6683 22.8414C55.0932 22.8414 55.3057 23.1146 55.3057 23.6913H56.0341C56.0341 23.236 55.9127 22.8718 55.7003 22.6572C55.4856 22.4469 55.1518 22.3255 54.6965 22.3255ZM58.8893 22.3255C58.4037 22.3255 58.0395 22.5683 57.7945 23.0235V22.4165H57.0661C57.0964 22.6593 57.0964 22.9325 57.0964 23.2057V27.0039H57.8249V24.1791C57.8249 23.8149 57.8856 23.481 58.007 23.2685C58.1587 22.9954 58.3712 22.874 58.6444 22.874C58.9175 22.874 59.13 22.9954 59.1907 23.2078C59.2514 23.3292 59.2514 23.5417 59.2514 23.8756V27.0061H59.9798V24.1184C59.9798 23.2989 60.253 22.8718 60.7993 22.8718C61.0725 22.8718 61.2546 22.9932 61.3456 23.2057C61.4064 23.3574 61.4367 23.5699 61.4367 23.9037V27.0039H62.1651V23.8734C62.1651 23.3271 62.0741 22.9628 61.9223 22.7179C61.7402 22.4447 61.4671 22.2929 61.0421 22.2929C60.5565 22.2929 60.1619 22.5358 59.8866 22.991C59.7695 22.5683 59.4357 22.3255 58.8893 22.3255ZM72.4717 22.3255C71.7736 22.3255 71.2858 22.5986 71.0733 23.145C70.9216 23.5092 70.8609 24.0859 70.8609 24.9075C70.8609 25.6359 70.9519 26.1541 71.134 26.4576C71.3768 26.8825 71.8017 27.095 72.4413 27.095C73.4147 27.095 73.9307 26.579 73.9914 25.5752H73.2933C73.263 26.243 72.9898 26.579 72.4738 26.579C72.1096 26.579 71.8971 26.4273 71.7757 26.1237C71.6847 25.9113 71.6543 25.5774 71.6543 25.12V24.8165H74.0543V24.604C74.0543 23.8756 73.9936 23.3574 73.8418 23.0539C73.5643 22.5683 73.109 22.3255 72.4717 22.3255ZM78.3967 22.3255C78.0021 22.3255 77.6683 22.4165 77.4233 22.629C77.1501 22.8414 77.0287 23.145 77.0287 23.5395C77.0287 23.9037 77.1501 24.1769 77.3929 24.3894C77.5143 24.5108 77.7875 24.6625 78.2124 24.9053C78.5159 25.0875 78.7284 25.2089 78.8195 25.2999C78.9712 25.4517 79.0319 25.6338 79.0319 25.9069C79.0319 26.3926 78.7891 26.605 78.3338 26.605C77.9393 26.605 77.6964 26.3622 77.6661 25.8766C77.6661 25.7855 77.6661 25.7248 77.6661 25.6338H76.9377C76.9073 26.6375 77.3929 27.1232 78.336 27.1232C79.3094 27.1232 79.7647 26.6679 79.7647 25.7855C79.7647 25.4517 79.6433 25.1482 79.4308 24.9053C79.2791 24.7536 79.0363 24.6018 78.672 24.3894C78.3382 24.2073 78.1257 24.0555 78.0347 23.9948C77.8525 23.843 77.7615 23.6609 77.7615 23.4788C77.7615 23.2967 77.8222 23.145 77.9436 23.0235C78.065 22.9021 78.2168 22.8414 78.3989 22.8414C78.8238 22.8414 79.0363 23.1146 79.0363 23.6913H79.7647C79.7647 23.236 79.6433 22.8718 79.4308 22.6572C79.2162 22.4469 78.8823 22.3255 78.3967 22.3255ZM84.3521 22.3255C83.6844 22.3255 83.2269 22.5683 82.9841 23.0843C82.8324 23.4181 82.7413 23.9948 82.7413 24.7861C82.7413 25.5752 82.8324 26.1541 82.9841 26.4576C83.1966 26.8825 83.6519 27.095 84.3218 27.095C85.2627 27.095 85.7504 26.579 85.7504 25.5752H85.0524C85.0524 25.8788 84.9917 26.1216 84.9006 26.2733C84.7792 26.4858 84.5971 26.5768 84.2936 26.5768C83.9597 26.5768 83.7472 26.4251 83.6258 26.1519C83.5348 25.8788 83.4741 25.4235 83.4741 24.7232C83.4741 24.1162 83.5044 23.6891 83.5651 23.4463C83.6865 23.0517 83.9294 22.8393 84.2936 22.8393C84.7792 22.8393 84.9917 23.1731 84.9917 23.8127H85.6897C85.6897 23.2967 85.5987 22.9325 85.3862 22.6875C85.2345 22.4469 84.8681 22.3255 84.3521 22.3255ZM92.6771 22.3255C91.979 22.3255 91.5216 22.5986 91.2788 23.145C91.127 23.5092 91.0359 24.0859 91.0359 24.9075C91.0359 25.6359 91.127 26.1541 91.3091 26.4576C91.5519 26.8825 91.9768 27.095 92.6164 27.095C93.5898 27.095 94.1058 26.579 94.1665 25.5752H93.4684C93.4381 26.243 93.1649 26.579 92.6489 26.579C92.2847 26.579 92.0722 26.4273 91.9508 26.1237C91.8598 25.9113 91.8294 25.5774 91.8294 25.12V24.8165H94.2294V24.604C94.2294 23.8756 94.1687 23.3574 94.0169 23.0539C93.7719 22.5683 93.3166 22.3255 92.6771 22.3255ZM104.011 22.3255C103.313 22.3255 102.825 22.5986 102.613 23.145C102.461 23.5092 102.4 24.0859 102.4 24.9075C102.4 25.6359 102.491 26.1541 102.674 26.4576C102.916 26.8825 103.341 27.095 103.981 27.095C104.954 27.095 105.47 26.579 105.531 25.5752H104.833C104.803 26.243 104.529 26.579 104.013 26.579C103.649 26.579 103.437 26.4273 103.315 26.1237C103.224 25.9113 103.194 25.5774 103.194 25.12V24.8165H105.594V24.604C105.594 23.8756 105.533 23.3574 105.381 23.0539C105.106 22.5683 104.681 22.3255 104.011 22.3255ZM97.1756 22.3255C96.6596 22.3255 96.2651 22.5683 96.0201 23.0235V22.4165H95.322C95.3524 22.6593 95.3524 22.9325 95.3524 23.2664V27.0343H96.0808V24.1791C96.0808 23.8149 96.1719 23.5417 96.354 23.3292C96.5361 23.1168 96.7789 22.9954 97.1431 22.9954C97.1735 22.9954 97.2342 22.9954 97.2949 23.0257C97.2667 22.5683 97.2363 22.3255 97.1756 22.3255ZM63.5678 22.4165V27.0343H64.2963V22.4165H63.5678ZM80.8573 22.4165V27.0343H81.5858V22.4165H80.8573ZM106.687 22.4165V27.0343H107.415V22.4165H106.687ZM37.8926 22.8414C38.2568 22.8414 38.4996 23.0236 38.5907 23.3878C38.6514 23.5699 38.6817 23.8734 38.6817 24.3287H37.0102C37.0102 24.1466 37.0102 23.9341 37.0406 23.7216C37.1316 23.145 37.407 22.8414 37.8926 22.8414ZM46.3693 22.8414C46.7336 22.8414 46.9764 23.0236 47.0674 23.3878C47.1281 23.5699 47.1585 23.8734 47.1585 24.3287H45.487C45.487 24.1466 45.487 23.9341 45.5173 23.7216C45.5802 23.145 45.8837 22.8414 46.3693 22.8414ZM72.4413 22.8414C72.8055 22.8414 73.0483 23.0236 73.1394 23.3878C73.2001 23.5699 73.2304 23.8734 73.2304 24.3287H71.5589C71.5589 24.1466 71.5589 23.9341 71.5893 23.7216C71.6803 23.145 71.9557 22.8414 72.4413 22.8414ZM92.6467 22.8414C93.011 22.8414 93.2538 23.0236 93.3448 23.3878C93.4055 23.5699 93.4359 23.8734 93.4359 24.3287H91.7644C91.7644 24.1466 91.7644 23.9341 91.7947 23.7216C91.888 23.145 92.1611 22.8414 92.6467 22.8414ZM104.011 22.8414C104.375 22.8414 104.618 23.0236 104.709 23.3878C104.77 23.5699 104.8 23.8734 104.8 24.3287H103.129C103.129 24.1466 103.129 23.9341 103.159 23.7216C103.222 23.145 103.495 22.8414 104.011 22.8414ZM42.2068 22.8718C42.5711 22.8718 42.8139 23.0843 42.9353 23.5395C42.996 23.7823 43.0263 24.1466 43.0263 24.6343C43.0263 25.4235 42.9353 25.9416 42.7835 26.2148C42.6318 26.4576 42.4497 26.579 42.2068 26.579C41.873 26.579 41.6302 26.4273 41.4784 26.1237C41.357 25.8809 41.2963 25.4257 41.2963 24.7558C41.2963 23.9666 41.3874 23.4485 41.5695 23.2057C41.7212 22.9628 41.9337 22.8718 42.2068 22.8718Z" fill="black"/>
</svg>
