<svg width="111" height="50" viewBox="0 0 111 50" fill="none" xmlns="http://www.w3.org/2000/svg">
<path d="M25.4936 33.6484H26.7098V49.7846H23.8828V33.6484H25.4936Z" fill="#F8D100"/>
<path d="M25.4936 17.3926H26.7098V33.648H23.8828V17.3926H25.4936Z" fill="#E3000F"/>
<path d="M16.5004 6.97138C17.3199 8.27866 17.9898 8.24831 18.961 8.24831C18.1415 7.64128 17.6234 6.81962 17.3502 6.42505L15.8305 3.99476C15.6787 3.23597 15.2842 2.53572 14.7053 2.01974C14.8874 1.95904 15.0695 1.86799 15.1606 1.80728C14.1872 1.80728 13.1856 1.32166 12.6696 1.32166C12.3357 1.32166 12.0929 1.53412 12.0929 1.80728C12.1233 2.1108 12.4268 2.41431 13.0035 2.41431C13.1249 2.41431 13.307 2.38396 13.4891 2.35361C13.7926 2.77853 14.0658 3.1731 14.0658 3.75195C14.0658 4.81642 12.7888 5.63591 11.5141 5.63591C11.4534 5.63591 11.3623 5.63591 11.3016 5.63591C11.1802 5.36275 10.816 4.93783 10.816 4.41968C10.816 3.56984 11.3623 2.89994 11.3623 2.05009C11.3623 1.53412 11.1195 1.20025 10.9981 1.07668C11.1498 0.924919 11.332 0.742812 11.3623 0.621406C11.2713 0.651757 11.1498 0.651757 10.9981 0.651757C10.3911 0.651757 9.87292 0.5 9.38729 0.5C9.11413 0.5 9.02308 0.591054 9.02308 0.682108C9.02308 0.71246 9.02308 0.742811 9.02308 0.742811C8.93202 0.71246 8.81061 0.682109 8.71956 0.651757C8.5678 0.621405 8.41605 0.621406 8.26429 0.621406C7.68761 0.621406 7.47515 0.864216 7.47515 1.07668C7.47515 1.25879 7.6269 1.59265 7.77866 1.83546C8.02147 1.71406 8.29464 1.65336 8.41604 1.65336C8.71956 1.65336 9.02308 1.95687 9.14448 2.32109C8.93202 2.35144 8.90167 2.35144 8.68921 2.35144C8.11253 2.35144 7.71579 2.13898 7.62474 2.13898L7.59439 2.16933C7.59439 2.26039 7.74614 2.47285 8.08001 2.59425C8.50493 2.74601 9.14448 2.80672 9.23554 2.83707C9.23554 2.86742 9.11413 3.04953 8.99272 3.07988C8.96237 3.07988 8.96237 3.07988 8.93202 3.07988C8.47675 2.98882 8.35534 2.95847 7.80685 2.74601C7.77649 2.74601 7.77649 2.74601 7.77649 2.77636C7.77649 2.98883 8.35317 3.47445 8.87132 3.68691C8.4464 4.23324 7.8979 4.81208 7.65509 5.66193C7.59439 5.66193 7.50333 5.66193 7.44263 5.66193C6.1657 5.66193 4.89093 4.84244 4.89093 3.77796C4.89093 3.20128 5.13374 2.80455 5.46761 2.37963C5.64972 2.40998 5.83183 2.44033 5.95323 2.44033C6.52991 2.44033 6.83343 2.13681 6.86378 1.8333C6.86378 1.56013 6.65132 1.34767 6.2871 1.34767C5.74077 1.34767 4.76736 1.8333 3.79611 1.8333C3.88716 1.894 4.06927 1.98505 4.25138 2.04576C3.6747 2.56173 3.27796 3.26199 3.12621 4.02078L1.6108 6.45323C1.36799 6.8478 0.821659 7.63911 0 8.27649C0.973417 8.27649 1.6108 8.30685 2.46064 6.99956L3.21943 5.75298C3.28013 5.90474 3.34084 6.0565 3.43189 6.23861L1.88179 8.69925C1.63898 9.09382 1.09265 9.88513 0.270996 10.5225C1.24441 10.5225 1.88179 10.5529 2.73164 9.24557L4.06927 7.1188C4.16033 7.20986 4.28173 7.33126 4.37279 7.42231L2.48882 10.4315C2.24601 10.826 1.69969 11.6173 0.878026 12.2547C1.85144 12.2547 2.51918 12.2851 3.33867 10.9778L5.16193 8.0597C5.28333 8.1204 5.40474 8.21145 5.52615 8.27216L3.30832 11.8276C3.0655 12.2525 2.51918 13.0135 1.69752 13.6509C2.67093 13.6509 3.33867 13.6812 4.15816 12.3739L6.43669 8.69708C6.5581 8.75778 6.70986 8.78813 6.86161 8.84884L4.27956 12.981C4.03675 13.3755 3.49043 14.1972 2.66877 14.8042C3.64218 14.8042 4.27956 14.8346 5.12941 13.5273L7.89356 9.122C7.92392 9.122 7.95427 9.122 7.98462 9.15235C8.04532 9.39516 8.10603 9.60762 8.10603 9.85044C8.10603 11.2488 7.19548 12.4628 6.10066 13.4059C6.16136 13.4363 6.28277 13.4363 6.40417 13.4363C6.61663 13.4363 6.76839 13.4363 6.8898 13.4059C6.64698 13.9826 6.10066 14.7132 5.82532 15.1078C5.46111 15.0471 4.94513 14.9863 4.6091 14.9863C4.24488 14.9863 4.21453 15.1988 4.21453 15.3809C4.21453 15.7148 4.36628 15.9576 4.54839 16.1094C4.6091 15.9576 4.76085 15.7148 5.39824 15.7148C5.39824 15.7148 5.42859 15.7148 5.45894 15.7148C5.27683 15.9272 4.6698 16.4129 4.6698 16.8096C4.6698 17.0828 4.94296 17.447 5.33753 17.447C5.30718 17.3559 5.30718 17.2952 5.30718 17.2345C5.30718 16.931 5.58034 16.5364 5.82316 16.2936C5.82316 16.3847 5.82316 16.3543 5.82316 16.4454C5.82316 17.2042 5.88386 17.5402 6.36948 17.5402C6.6123 17.5402 6.76405 17.4188 6.82476 17.3885C6.52124 17.1153 6.49089 16.8725 6.49089 16.4476C6.49089 16.3262 6.49089 16.2351 6.49089 16.0833C6.49089 15.9923 6.49089 15.8709 6.46054 15.7798C6.64265 15.7495 6.70335 15.7495 6.82476 15.7495C6.82476 15.7495 7.49249 15.6888 7.6746 16.053C7.85671 15.8709 8.12987 15.6584 8.12987 15.3853C8.12987 15.2031 8.03882 15.021 7.70495 15.021C7.58355 15.021 7.15862 15.1121 6.79441 15.1121C6.88546 14.8996 7.31038 14.2926 7.6746 13.8655C7.7353 14.0476 7.82636 14.2297 8.00847 14.3815C8.03882 14.1083 8.19058 13.1956 8.64585 12.6796C8.70655 13.0439 8.76726 13.4081 8.76726 14.169C8.76726 16.053 8.31198 17.421 7.36892 17.6941C7.49032 17.9066 7.76349 18.1191 8.03665 18.1191C8.37052 18.1191 8.58298 17.7245 8.76509 17.3603C8.85614 17.6334 9.15966 18.3012 9.43282 18.3012C9.70598 18.3012 9.97915 17.6334 10.1006 17.3603C10.2827 17.7245 10.4951 18.1191 10.829 18.1191C11.1022 18.1191 11.3753 17.937 11.4967 17.6941C10.5558 17.421 10.0984 16.053 10.0984 14.169C10.0984 13.4102 10.1591 13.0439 10.2198 12.6796C10.6751 13.1956 10.8268 14.1083 10.8572 14.3815C11.0393 14.2297 11.1303 14.0476 11.191 13.8655C11.5553 14.3208 11.9802 14.93 12.0712 15.1121C11.7374 15.1121 11.3124 15.021 11.1607 15.021C10.8268 15.021 10.7358 15.2031 10.7358 15.3853C10.7358 15.6584 11.0089 15.8709 11.191 16.053C11.3428 15.6888 12.0409 15.7495 12.0409 15.7495C12.1623 15.7495 12.2533 15.7495 12.4051 15.7798C12.3748 15.8709 12.3748 15.9923 12.3748 16.0833C12.3748 16.2351 12.3748 16.3262 12.3748 16.4476C12.3748 16.8725 12.3444 17.0849 12.0409 17.3885C12.1016 17.4188 12.2533 17.5402 12.4962 17.5402C12.9818 17.5402 13.0425 17.2063 13.0425 16.4454C13.0425 16.3543 13.0425 16.3543 13.0425 16.2936C13.2853 16.5668 13.5585 16.931 13.5585 17.2345C13.5585 17.2952 13.5585 17.3559 13.5281 17.447C13.8923 17.447 14.1958 17.0524 14.1958 16.8096C14.1958 16.415 13.5888 15.9294 13.4067 15.7148C13.4371 15.7148 13.4674 15.7148 13.4674 15.7148C14.1351 15.7148 14.2565 15.9272 14.3172 16.1094C14.4994 15.9576 14.6511 15.7148 14.6511 15.3809C14.6511 15.1988 14.6208 14.9863 14.2565 14.9863C13.9227 14.9863 13.4067 15.0471 13.0403 15.1078C12.7672 14.7132 12.2208 13.9826 11.9758 13.4059C12.0669 13.4363 12.2187 13.4363 12.4615 13.4363C12.5829 13.4363 12.7043 13.4363 12.765 13.4059C11.6702 12.465 10.7596 11.2184 10.7596 9.85044C10.7596 9.63798 10.8203 9.39516 10.881 9.15235C10.9114 9.15235 10.9417 9.15235 10.9721 9.122L13.7362 13.5273C14.5557 14.8346 15.2256 14.8042 16.1969 14.8042C15.4077 14.1972 14.8592 13.3755 14.5861 12.981L12.004 8.84884C12.1558 8.81849 12.2772 8.75778 12.429 8.69708L14.7075 12.3739C15.527 13.6812 16.1969 13.6509 17.1681 13.6509C16.3486 13.0135 15.8305 12.2525 15.5573 11.8276L13.3395 8.27216C13.4609 8.21145 13.5823 8.1204 13.7037 8.0597L15.527 10.9778C16.3465 12.2851 17.0164 12.2547 17.9876 12.2547C17.1681 11.6173 16.65 10.8564 16.3768 10.4315L14.4929 7.42231C14.6143 7.33126 14.7053 7.20986 14.7964 7.1188L16.134 9.24557C16.9535 10.5529 17.6234 10.5225 18.5946 10.5225C17.7752 9.88513 17.257 9.12417 16.9838 8.69925L15.4338 6.23861C15.5248 6.08685 15.5855 5.93509 15.6462 5.75298L16.5004 6.97138ZM4.13214 4.114C4.13214 3.20345 4.79988 2.47285 5.04269 2.26039C5.10339 2.26039 5.1641 2.29074 5.2248 2.29074C4.98199 2.59425 4.52671 3.11023 4.52671 3.78013C4.52671 5.11777 5.9554 6.30148 7.59655 6.30148C7.59655 6.42288 7.5662 6.54429 7.5662 6.66569C7.5662 6.87815 7.5662 7.06026 7.59655 7.21202C5.77329 7.24454 4.13214 5.75515 4.13214 4.114ZM6.65349 15.175V15.2053H6.68384C7.19982 15.2053 7.44263 15.175 7.62474 15.1446C7.71579 15.1446 7.77649 15.1143 7.8372 15.1143C7.9586 15.1143 8.08001 15.1143 8.08001 15.2964C8.08001 15.4178 7.9586 15.5695 7.8372 15.6909C7.65509 15.5088 7.38193 15.4785 6.98736 15.4785C6.80525 15.4785 6.56243 15.5088 6.44103 15.5392H6.41068H6.38032V15.5999C6.38032 15.7213 6.41068 15.8427 6.41068 16.0248V16.1766V16.389C6.41068 16.8139 6.47138 17.0871 6.62314 17.2692C6.59278 17.2692 6.53208 17.2996 6.47138 17.2996C6.19822 17.2996 6.10716 17.1782 6.10716 16.389C6.10716 16.2373 6.10716 16.0855 6.10716 15.9945V15.8427L6.07681 15.873C5.68224 16.1766 5.25732 16.7229 5.22697 17.15C5.10556 17.0589 4.98415 16.9072 4.98415 16.7554C4.98415 16.5429 5.31802 16.1787 5.71259 15.8145L5.92505 15.602L5.9554 15.5717L5.8947 15.5413C5.80365 15.511 5.65189 15.4806 5.53048 15.4806C5.10556 15.4806 4.80204 15.5717 4.65029 15.7538C4.58958 15.6628 4.52888 15.4503 4.52888 15.3289C4.52888 15.2378 4.55923 15.2075 4.58958 15.1771C4.61994 15.1468 4.68064 15.1468 4.74134 15.1468C5.22697 15.1468 5.80581 15.2378 6.01827 15.2682C6.04863 15.2075 6.99169 13.9913 7.2345 13.3235C7.29521 13.2932 7.32556 13.2932 7.44696 13.2932C7.62907 13.2932 7.68978 13.4146 7.72013 13.5967C7.14128 14.2622 6.77706 14.8107 6.65349 15.175ZM11.6376 13.2303C11.7287 13.2303 11.7894 13.2606 11.8501 13.2606C12.0929 13.9284 13.0056 15.1446 13.0663 15.2053C13.2788 15.175 13.8858 15.0839 14.3433 15.0839C14.404 15.0839 14.4647 15.0839 14.495 15.1143C14.5254 15.1446 14.5557 15.2053 14.5557 15.266C14.5557 15.3874 14.495 15.5999 14.4343 15.6909C14.2522 15.5088 13.979 15.4178 13.5541 15.4178C13.4327 15.4178 13.2506 15.4481 13.1899 15.4785H13.1596H13.127L13.3698 15.7213C13.7644 16.1159 14.0983 16.4497 14.0983 16.6622C14.0983 16.7836 13.9769 16.9657 13.8555 17.0568C13.8251 16.6318 13.4002 16.0833 13.0056 15.7798L12.9753 15.7495V15.9012C12.9753 15.9923 12.9753 16.144 12.9753 16.2958C12.9753 17.0849 12.8842 17.2063 12.6111 17.2063C12.5807 17.2063 12.52 17.2063 12.4593 17.176C12.6111 16.9939 12.6718 16.7511 12.6718 16.2958V16.0833V15.9316C12.6718 15.7495 12.7021 15.6281 12.7021 15.5067V15.446H12.6718C12.5504 15.4156 12.3075 15.3853 12.1254 15.3853C11.7309 15.3853 11.4881 15.4156 11.2756 15.5977C11.1542 15.5067 11.0328 15.3246 11.0328 15.2031C11.0328 15.0514 11.1238 15.021 11.2756 15.021C11.3363 15.021 11.397 15.021 11.4881 15.0514C11.6398 15.0817 11.913 15.1121 12.429 15.1121H12.4593V15.0817C12.3379 14.7175 11.9737 14.1712 11.3948 13.4709C11.3948 13.3517 11.4555 13.2303 11.6376 13.2303ZM9.48052 2.5032C9.41981 2.26039 9.29841 2.01757 9.14665 1.83546C8.99489 1.65336 8.78243 1.47125 8.44856 1.47125C8.29681 1.47125 8.05399 1.53195 7.90224 1.59265C7.84153 1.5016 7.72013 1.22843 7.72013 1.10703C7.72013 0.985622 7.93259 0.864217 8.29681 0.864217C9.1163 0.864217 9.63444 1.22844 9.63444 1.86799C9.66263 2.10863 9.57157 2.32109 9.48052 2.5032ZM9.87509 1.68371C9.84473 1.5016 9.78403 1.34984 9.66262 1.19809C9.66262 1.04633 9.72333 0.864216 9.99649 1.01597C9.84473 1.16773 9.96614 1.41055 9.96614 1.41055C9.96614 1.41055 10.2697 1.28914 10.209 1.07668C10.636 1.19591 10.3 1.77476 9.87509 1.68371ZM11.4859 7.24454C11.5162 7.06243 11.5162 6.88032 11.5162 6.69821C11.5162 6.60716 11.5162 6.48575 11.5162 6.33399C13.127 6.30364 14.5254 5.14812 14.5254 3.81265C14.5254 3.14492 14.0701 2.62677 13.8273 2.32326C13.888 2.32326 13.9487 2.29291 14.0094 2.29291C14.2522 2.50537 14.9199 3.2338 14.9199 4.14652C14.9199 5.7248 13.3091 7.21419 11.4859 7.24454Z" fill="black"/>
<path d="M26.7099 1.31934V17.4837H25.4937H23.8525V1.31934H26.7099Z" fill="black"/>
<path d="M75.3269 1.13525C74.8412 1.13525 74.5074 1.28701 74.3534 1.62088C74.232 1.83334 74.1713 2.19756 74.1713 2.68535V3.20133H73.5036V3.7173H74.1713V7.78874H74.8998V3.7173H75.6889V3.20133H74.8998V2.53359C74.8998 2.29078 74.9301 2.07832 74.9605 1.98727C75.0515 1.83551 75.2033 1.74445 75.4157 1.74445C75.5372 1.74445 75.6282 1.74445 75.6889 1.74445V1.16778C75.5697 1.13526 75.4786 1.13525 75.3269 1.13525ZM32.6656 1.16561V7.75839H34.2764C34.9442 7.75839 35.4319 7.63698 35.7355 7.36382C36.0693 7.09066 36.2514 6.60503 36.2514 5.93513C36.2514 5.47986 36.1907 5.11564 36.039 4.87066C35.8872 4.5975 35.5837 4.38504 35.1588 4.29398C35.523 4.17258 35.7962 3.99047 35.9176 3.74765C36.0693 3.53519 36.13 3.20133 36.13 2.80676C36.13 2.23008 35.9783 1.80299 35.7051 1.52983C35.4319 1.28701 35.007 1.13525 34.3978 1.13525H32.6656V1.16561ZM48.6175 1.16561V3.5959C48.3747 3.23168 48.0408 3.04957 47.5834 3.04957C47.0371 3.04957 46.6425 3.29238 46.4279 3.80836C46.2761 4.17258 46.1851 4.68855 46.1851 5.3888C46.1851 6.11724 46.2458 6.69609 46.3975 7.02995C46.61 7.54593 47.0046 7.81909 47.6138 7.81909C48.069 7.81909 48.4332 7.60663 48.6782 7.21206V7.72804H49.3763C49.346 7.30312 49.346 7.02996 49.346 6.8782V1.16561H48.6175ZM77.1198 1.25883V2.13902H77.7875V1.25883H77.1198ZM78.5181 1.25883V2.13902H79.2162V1.25883H78.5181ZM33.4548 1.80515H34.2136C34.6081 1.80515 34.8813 1.86586 35.0634 2.01762C35.2759 2.16938 35.3669 2.47289 35.3669 2.86746C35.3669 3.6566 35.0027 4.05334 34.2417 4.05334H33.4222V1.80515H33.4548ZM69.9807 2.01762L69.2522 2.35148V3.20133H68.5541V3.7173H69.2522V6.69609C69.2522 7.12101 69.3129 7.39417 69.4343 7.54593C69.5861 7.72804 69.8593 7.81909 70.2842 7.81909C70.4056 7.81909 70.5877 7.81909 70.8305 7.78874V7.21206C70.6484 7.24241 70.527 7.24241 70.4966 7.24241C70.2842 7.24241 70.1628 7.21206 70.0717 7.12101C70.011 7.02995 69.9503 6.84784 69.9503 6.60503V3.7173H70.7698V3.20133H69.9503V2.01545H69.9807V2.01762ZM43.7873 3.07992C43.241 3.07992 42.8464 3.32273 42.6014 3.80836V3.17097H41.873C41.9033 3.44414 41.9033 3.77801 41.9033 4.17474V7.76056H42.6318V4.9964C42.6318 4.63218 42.6925 4.32867 42.8442 4.0555C43.0263 3.75199 43.2388 3.60023 43.5727 3.60023C43.8762 3.60023 44.0886 3.72164 44.21 3.9948C44.2707 4.14656 44.3011 4.41972 44.3011 4.81429V7.76273H45.0295V4.51078C45.0035 3.56771 44.6068 3.07992 43.7873 3.07992ZM52.173 3.07992C51.4749 3.07992 50.9871 3.35308 50.7746 3.89941C50.6229 4.26363 50.5622 4.84031 50.5622 5.66197C50.5622 6.39041 50.6532 6.90855 50.8354 7.21206C51.0782 7.63698 51.5031 7.84945 52.1426 7.84945C53.116 7.84945 53.632 7.33347 53.6927 6.3297H52.9946C52.9643 6.99744 52.6911 7.33347 52.1751 7.33347C51.8109 7.33347 51.5985 7.18171 51.4771 6.8782C51.386 6.66574 51.3557 6.33187 51.3557 5.87443V5.57091H53.7556V5.35845C53.7556 4.63001 53.6949 4.11187 53.5431 3.80836C53.2678 3.3249 52.8429 3.07992 52.173 3.07992ZM56.032 3.07992C55.6374 3.07992 55.3035 3.17097 55.0585 3.38343C54.7854 3.59589 54.664 3.89941 54.664 4.29398C54.664 4.6582 54.7854 4.93136 55.0282 5.14383C55.1496 5.26523 55.4228 5.41699 55.8477 5.6598C56.1512 5.84191 56.3637 5.96332 56.4547 6.05437C56.6065 6.20613 56.6672 6.38824 56.6672 6.6614C56.6672 7.14703 56.4244 7.35949 55.9691 7.35949C55.5745 7.35949 55.3317 7.11667 55.3014 6.63105C55.3014 6.54 55.3014 6.47929 55.3014 6.38824H54.5729C54.5426 7.392 55.0282 7.87763 55.9713 7.87763C56.9447 7.87763 57.3999 7.42236 57.3999 6.54C57.3999 6.20613 57.2785 5.90261 57.0661 5.69015C56.9143 5.53839 56.6715 5.38664 56.3073 5.17418C55.9734 4.99207 55.761 4.87066 55.6699 4.7796C55.4878 4.62785 55.3967 4.44574 55.3967 4.23328C55.3967 4.05117 55.4575 3.89941 55.5789 3.77801C55.7003 3.6566 55.852 3.5959 56.0341 3.5959C56.4591 3.5959 56.6715 3.86906 56.6715 4.44574H57.3999C57.3999 3.99047 57.2785 3.62625 57.0661 3.41162C56.8536 3.20349 56.5198 3.07992 56.032 3.07992ZM59.8909 3.07992C59.4357 3.07992 59.1018 3.17097 58.8265 3.35308C58.523 3.56554 58.3712 3.86906 58.3712 4.29398V4.32433H59.0996V4.29398C59.0996 4.08152 59.1603 3.89941 59.3121 3.77801C59.4639 3.6566 59.646 3.5959 59.8584 3.5959C60.1619 3.5959 60.3744 3.7173 60.4655 3.96011C60.5262 4.11187 60.5565 4.35468 60.5565 4.74925V4.96172C59.7977 4.96172 59.2492 5.05277 58.9154 5.20453C58.4297 5.41699 58.1566 5.87226 58.1566 6.51181C58.1566 6.90638 58.2476 7.24025 58.4297 7.48523C58.6422 7.72804 58.9457 7.8798 59.3403 7.8798C59.8563 7.8798 60.2508 7.66734 60.5869 7.21206V7.81909H61.2849C61.2546 7.39417 61.2242 6.90855 61.2242 6.36005V4.6582C61.2242 4.11187 61.1332 3.74765 60.9207 3.50267C60.7733 3.20349 60.4091 3.07992 59.8909 3.07992ZM64.3895 3.07992C63.9039 3.07992 63.5396 3.32273 63.2946 3.77801V3.17097H62.5662C62.5966 3.41379 62.5966 3.68695 62.5966 3.96011V7.75839H63.325V4.93353C63.325 4.56931 63.3857 4.23545 63.5071 4.02299C63.6589 3.74982 63.8713 3.62842 64.1445 3.62842C64.4177 3.62842 64.6301 3.74982 64.6908 3.96228C64.7515 4.08369 64.7515 4.29615 64.7515 4.63001V7.76056H65.48V4.87283C65.48 4.05334 65.7531 3.62625 66.2995 3.62625C66.5726 3.62625 66.7547 3.74765 66.8458 3.96011C66.9065 4.11187 66.9368 4.32433 66.9368 4.6582V7.75839H67.6653V4.62785C67.6653 4.08152 67.5742 3.7173 67.4225 3.47232C67.2403 3.19916 66.9368 3.0474 66.5423 3.0474C66.0566 3.0474 65.6621 3.29021 65.4171 3.74549C65.2697 3.3249 64.9055 3.07992 64.3895 3.07992ZM82.8931 3.07992C82.3771 3.07992 81.9825 3.32273 81.7375 3.77801V3.17097H81.0395C81.0698 3.41379 81.0698 3.68695 81.0698 3.99047V7.75839H81.7982V4.90318C81.7982 4.53896 81.8893 4.2658 82.0714 4.05334C82.2535 3.84088 82.4963 3.71947 82.8605 3.71947C82.8909 3.71947 82.9516 3.71947 83.0123 3.74982C82.9841 3.3249 82.9538 3.07992 82.8931 3.07992ZM37.4677 3.17314V6.42509C37.4677 7.36599 37.8926 7.85378 38.7142 7.85378C39.1999 7.85378 39.5944 7.64132 39.8698 7.18605V7.76273H40.5982C40.5679 7.45921 40.5679 7.12535 40.5679 6.75896V3.17314H39.8394V5.96765C39.8394 6.84785 39.5359 7.30529 38.9289 7.30529C38.595 7.30529 38.4129 7.18388 38.2915 6.91072C38.2308 6.75896 38.2004 6.4858 38.2004 6.12158V3.17314H37.4677ZM76.6038 3.17314V6.42509C76.6038 7.36599 77.0287 7.85378 77.8504 7.85378C78.336 7.85378 78.7306 7.64132 79.0059 7.18605V7.76273H79.7343C79.704 7.45921 79.704 7.12535 79.704 6.75896V3.17314H78.9756V5.96765C78.9756 6.84785 78.672 7.30529 78.065 7.30529C77.7311 7.30529 77.5187 7.18388 77.4276 6.91072C77.3669 6.75896 77.3366 6.4858 77.3366 6.12158V3.17314H76.6038ZM52.173 3.59806C52.5372 3.59806 52.78 3.78017 52.8711 4.14439C52.9318 4.3265 52.9621 4.63002 52.9621 5.08529H51.2906C51.2906 4.90318 51.2906 4.69072 51.321 4.47826C51.3838 3.90158 51.657 3.59806 52.173 3.59806ZM47.7677 3.59806C48.1319 3.59806 48.3747 3.81053 48.4961 4.17474C48.5872 4.44791 48.6479 4.87283 48.6479 5.51238C48.6479 6.08906 48.6175 6.4858 48.5265 6.72861C48.4051 7.12318 48.1319 7.30529 47.7677 7.30529C47.4338 7.30529 47.191 7.12318 47.0696 6.72861C46.9785 6.45544 46.9178 6.00017 46.9178 5.39097C46.9178 4.84465 46.9482 4.41756 47.0392 4.17474C47.191 3.81053 47.4338 3.59806 47.7677 3.59806ZM33.4548 4.66037H34.2743C34.6992 4.66037 35.0027 4.75142 35.1848 4.96388C35.3669 5.17634 35.458 5.47986 35.458 5.9373C35.458 6.42293 35.3366 6.75679 35.1241 6.94107C34.942 7.09283 34.6081 7.15353 34.1507 7.15353H33.4526L33.4548 4.66037ZM60.3787 5.45168H60.5608V5.998C60.5608 6.36222 60.5001 6.63539 60.3787 6.8782C60.227 7.18171 59.9538 7.33347 59.6199 7.33347C59.1647 7.33347 58.9522 7.02995 58.9522 6.45328C58.95 5.78554 59.4053 5.45168 60.3787 5.45168ZM32.0586 10.8911L33.7908 17.4839H34.7317L36.4639 10.8911H35.7051L34.2764 16.7555L32.8781 10.8911H32.0586ZM43.9087 10.8911V16.6037C43.9087 16.7858 43.9087 17.059 43.8783 17.4839H44.5764V16.9679C44.8192 17.3625 45.1835 17.5749 45.6713 17.5749C46.2783 17.5749 46.675 17.3018 46.8875 16.7555C47.0089 16.3912 47.0999 15.8753 47.0999 15.1447C47.0999 14.4466 47.0392 13.9284 46.9178 13.5946C46.7054 13.0786 46.3412 12.8054 45.7623 12.8054C45.307 12.8054 44.9428 12.9875 44.6675 13.3821V10.8911H43.9087ZM63.3554 10.8911V17.4839H64.0838V14.6894C64.0838 13.7788 64.3873 13.3214 65.0247 13.3214C65.3282 13.3214 65.5407 13.4428 65.6621 13.716C65.7228 13.8677 65.7531 14.1409 65.7531 14.5355V17.4839H66.4816V14.2319C66.4816 13.2585 66.087 12.7729 65.2653 12.7729C64.7797 12.7729 64.4155 12.9854 64.1098 13.4103V10.8889H63.3554V10.8911ZM82.0736 10.8911V17.4839H82.802V14.6894C82.802 13.7788 83.1055 13.3214 83.7429 13.3214C84.0464 13.3214 84.2589 13.4428 84.3803 13.716C84.441 13.8677 84.4713 14.1409 84.4713 14.5355V17.4839H85.1998V14.2319C85.1998 13.2585 84.8052 12.7729 83.9836 12.7729C83.4979 12.7729 83.1337 12.9854 82.828 13.4103V10.8889H82.0736V10.8911ZM110.242 10.8911V13.3214C109.999 12.9572 109.665 12.7751 109.208 12.7751C108.662 12.7751 108.267 13.0179 108.052 13.5339C107.901 13.8981 107.81 14.414 107.81 15.1143C107.81 15.8427 107.87 16.3912 108.022 16.7555C108.234 17.2714 108.629 17.5446 109.238 17.5446C109.693 17.5446 110.058 17.3321 110.303 16.9376V17.4839H111.001C110.97 17.059 110.97 16.7858 110.97 16.6037V10.8911H110.242ZM91.9183 11.7106L91.1899 12.0445V12.8943H90.4918V13.4406H91.1899V16.4194C91.1899 16.8443 91.2506 17.1175 91.372 17.2996C91.5237 17.4817 91.7969 17.5728 92.2218 17.5728C92.3432 17.5728 92.5253 17.5728 92.7378 17.5424V16.9657C92.5557 16.9961 92.4343 16.9961 92.4039 16.9961C92.1915 16.9961 92.0701 16.9657 91.979 16.8747C91.9183 16.7836 91.8576 16.6319 91.8576 16.3587V13.471H92.6771V12.9247H91.8576V11.7084H91.9183V11.7106ZM38.4389 12.7751C37.7408 12.7751 37.253 13.0482 37.0406 13.5946C36.8888 13.9588 36.8281 14.5355 36.8281 15.3571C36.8281 16.0856 36.9192 16.6037 37.1013 16.9072C37.3441 17.3321 37.769 17.5749 38.4086 17.5749C39.382 17.5749 39.898 17.059 39.9587 16.0248H39.2606C39.2302 16.6926 38.9571 17.0286 38.4411 17.0286C38.0769 17.0286 37.8644 16.8769 37.743 16.5733C37.6519 16.3609 37.6216 16.027 37.6216 15.5696V15.2661H40.0215V15.0536C40.0215 14.3252 39.9608 13.807 39.8091 13.5035C39.5337 13.0179 39.1067 12.7751 38.4389 12.7751ZM52.3247 12.7751C51.8695 12.7751 51.5356 12.8661 51.2603 13.0482C50.9568 13.2607 50.805 13.5642 50.805 13.9891V14.0498H51.5334V13.9891C51.5334 13.7767 51.5941 13.5946 51.7459 13.4732C51.8977 13.3517 52.0798 13.291 52.2922 13.291C52.5957 13.291 52.8082 13.4124 52.9296 13.6553C52.9903 13.807 53.0207 14.0498 53.0207 14.4444V14.6569C52.2619 14.6569 51.7134 14.7479 51.4099 14.8997C50.9242 15.1121 50.6511 15.5674 50.6511 16.207C50.6511 16.6015 50.7421 16.9354 50.9242 17.1804C51.1367 17.4232 51.4402 17.5749 51.8348 17.5749C52.3508 17.5749 52.7453 17.3625 53.0814 16.9072V17.5142H53.7794C53.7491 17.0893 53.7491 16.6037 53.7491 16.0552V14.3533C53.7491 13.807 53.658 13.4428 53.4456 13.1978C53.2375 12.8965 52.8732 12.7751 52.3247 12.7751ZM60.9251 12.7751C60.2573 12.7751 59.7999 13.0482 59.5571 13.5642C59.4053 13.8981 59.3143 14.4748 59.3143 15.2661C59.3143 16.0574 59.4053 16.634 59.5874 16.9376C59.7999 17.3625 60.2552 17.5749 60.8947 17.5749C61.8356 17.5749 62.3234 17.059 62.3234 16.0552H61.6253C61.6253 16.3587 61.5646 16.6015 61.4736 16.7533C61.3522 16.9657 61.17 17.0568 60.8665 17.0568C60.5327 17.0568 60.3202 16.905 60.1988 16.6015C60.1077 16.3284 60.047 15.8731 60.047 15.1728C60.047 14.5658 60.0774 14.1387 60.1381 13.8959C60.2595 13.5013 60.5023 13.2889 60.8665 13.2889C61.3522 13.2889 61.5646 13.6227 61.5646 14.2623H62.2627C62.2627 13.7463 62.1716 13.3821 61.9592 13.1371C61.8356 12.8965 61.4714 12.7751 60.9251 12.7751ZM69.2804 12.7751C68.5823 12.7751 68.0945 13.0482 67.8821 13.5946C67.7303 13.9588 67.6696 14.5355 67.6696 15.3571C67.6696 16.0856 67.7607 16.6037 67.9428 16.9072C68.1856 17.3321 68.6105 17.5749 69.2501 17.5749C70.2235 17.5749 70.7394 17.059 70.8002 16.0248H70.1021C70.0717 16.6926 69.7986 17.0286 69.2826 17.0286C68.9184 17.0286 68.7059 16.8769 68.5845 16.5733C68.4934 16.3609 68.4631 16.027 68.4631 15.5696V15.2661H70.863V15.0536C70.863 14.3252 70.8023 13.807 70.6506 13.5035C70.3752 13.0179 69.92 12.7751 69.2804 12.7751ZM75.7843 12.7751C75.3897 12.7751 75.0559 12.8661 74.8109 13.0786C74.5377 13.291 74.4163 13.5946 74.4163 13.9891C74.4163 14.3533 74.5377 14.6265 74.7502 14.839C74.8716 14.9604 75.1448 15.1121 75.5697 15.3549C75.8732 15.5371 76.0857 15.6585 76.1767 15.7495C76.3285 15.9013 76.3892 16.1137 76.3892 16.3565C76.3892 16.8422 76.1464 17.0546 75.6911 17.0546C75.2965 17.0546 75.0537 16.8118 75.0233 16.3262C75.0233 16.2351 75.0233 16.1744 75.0233 16.0834H74.2949C74.2646 17.0871 74.7502 17.5728 75.6932 17.5728C76.6667 17.5728 77.1219 17.1175 77.1219 16.2351C77.1219 15.9013 77.0005 15.5978 76.7881 15.3853C76.6363 15.2335 76.3935 15.0818 76.0293 14.8693C75.6954 14.6872 75.483 14.5658 75.3919 14.4748C75.2098 14.323 75.1187 14.1409 75.1187 13.9588C75.1187 13.7767 75.1794 13.6249 75.3008 13.5035C75.4223 13.3821 75.574 13.3214 75.7561 13.3214C76.181 13.3214 76.3935 13.5946 76.3935 14.1712H77.1219C77.1219 13.716 77.0005 13.3821 76.7881 13.1371C76.6038 12.8965 76.2699 12.7751 75.7843 12.7751ZM79.6433 12.7751C78.9755 12.7751 78.4878 13.0482 78.2753 13.5642C78.1235 13.8981 78.0628 14.4748 78.0628 15.2661C78.0628 16.0574 78.1539 16.634 78.3056 16.9376C78.5181 17.3625 78.9734 17.5749 79.6433 17.5749C80.5842 17.5749 81.072 17.059 81.072 16.0552H80.3739C80.3739 16.3587 80.3132 16.6015 80.2221 16.7533C80.1007 16.9657 79.9186 17.0568 79.6151 17.0568C79.2812 17.0568 79.0688 16.905 78.9474 16.6015C78.8563 16.3284 78.7956 15.8731 78.7956 15.1728C78.7956 14.5658 78.826 14.1387 78.8867 13.8959C79.0081 13.5013 79.2509 13.2889 79.6151 13.2889C80.1007 13.2889 80.3132 13.6227 80.3132 14.2623H81.0113C81.0113 13.7463 80.9202 13.3821 80.7078 13.1371C80.5538 12.8965 80.1896 12.7751 79.6433 12.7751ZM105.41 12.7751C104.863 12.7751 104.469 13.0179 104.224 13.5035V12.8661H103.526C103.556 13.1393 103.556 13.4732 103.556 13.8699V17.4557H104.284V14.6915C104.284 14.3273 104.345 14.0238 104.497 13.7507C104.679 13.4471 104.891 13.2954 105.225 13.2954C105.529 13.2954 105.741 13.4168 105.863 13.6899C105.923 13.8417 105.954 14.1149 105.954 14.5094V17.4579H106.682V14.1712C106.595 13.2607 106.199 12.7751 105.41 12.7751ZM42.9656 12.7751C42.4497 12.7751 42.0551 13.0179 41.8101 13.4732V12.8661H41.112C41.1424 13.1089 41.1424 13.3821 41.1424 13.716V17.4839H41.8708V14.6287C41.8708 14.2645 41.9619 13.9913 42.144 13.7788C42.3261 13.5664 42.5689 13.4753 42.9331 13.4753C42.9635 13.4753 43.0242 13.4753 43.0849 13.5057C43.0263 13.0179 42.996 12.7751 42.9656 12.7751ZM50.1069 12.7751C49.5909 12.7751 49.1964 13.0179 48.9514 13.4732V12.8661H48.2533C48.2837 13.1089 48.2837 13.3821 48.2837 13.716V17.4839H49.0121V14.6287C49.0121 14.2645 49.1031 13.9913 49.2853 13.7788C49.4674 13.5664 49.7102 13.4753 50.0744 13.4753C50.1047 13.4753 50.1654 13.4753 50.2262 13.5057C50.1676 13.0179 50.1373 12.7751 50.1069 12.7751ZM73.7789 12.7751C73.263 12.7751 72.8684 13.0179 72.6234 13.4732V12.8661H71.9253C71.9557 13.1089 71.9557 13.3821 71.9557 13.716V17.4839H72.6841V14.6287C72.6841 14.2645 72.7752 13.9913 72.9573 13.7788C73.1394 13.5664 73.3822 13.4753 73.7464 13.4753C73.7768 13.4753 73.8375 13.4753 73.8982 13.5057C73.8396 13.0179 73.8396 12.7751 73.7789 12.7751ZM55.0911 12.8661V16.1181C55.0911 17.059 55.4856 17.5468 56.3073 17.5468C56.7929 17.5468 57.1875 17.3343 57.4628 16.879V17.4557H58.1913C58.1609 17.1522 58.1609 16.788 58.1609 16.4519V12.8661H57.4325V15.6606C57.4325 16.5408 57.129 16.9983 56.5219 16.9983C56.1881 16.9983 55.9756 16.8769 55.8845 16.6037C55.8238 16.4519 55.7935 16.1788 55.7935 15.8146V12.8661H55.0911ZM86.5396 12.8661V16.1181C86.5396 17.059 86.9645 17.5468 87.7862 17.5468C88.2718 17.5468 88.6664 17.3343 88.9417 16.879V17.4557H89.6701C89.6398 17.1522 89.6398 16.788 89.6398 16.4519V12.8661H88.9113V15.6606C88.9113 16.5408 88.6078 16.9983 88.0008 16.9983C87.6669 16.9983 87.4545 16.8769 87.3634 16.6037C87.3027 16.4519 87.2724 16.1788 87.2724 15.8146V12.8661H86.5396ZM93.4077 12.8661V13.4124H95.1096L93.3166 16.9072V17.4839H95.8987V16.9376H94.0754L95.8683 13.4428V12.8661H93.4077ZM99.0899 12.8661V16.1181C99.0899 17.059 99.5149 17.5468 100.337 17.5468C100.822 17.5468 101.217 17.3343 101.492 16.879V17.4557H102.22C102.19 17.1522 102.19 16.788 102.19 16.4519V12.8661H101.431V15.6606C101.431 16.5408 101.128 16.9983 100.521 16.9983C100.187 16.9983 100.005 16.8769 99.8834 16.6037C99.8227 16.4519 99.7924 16.1788 99.7924 15.8146V12.8661H99.0899ZM38.4389 13.291C38.8031 13.291 39.0459 13.4731 39.137 13.8374C39.1977 14.0195 39.2281 14.323 39.2281 14.7783H37.5566C37.5566 14.5962 37.5566 14.3837 37.5869 14.1712C37.6498 13.5946 37.9533 13.291 38.4389 13.291ZM69.2501 13.291C69.6143 13.291 69.8571 13.4731 69.9481 13.8374C70.0088 14.0195 70.0392 14.323 70.0392 14.7783H68.3677C68.3677 14.5962 68.3677 14.3837 68.398 14.1712C68.4913 13.5946 68.7644 13.291 69.2501 13.291ZM45.5195 13.291C45.8837 13.291 46.1265 13.5035 46.2479 13.9588C46.3086 14.2016 46.339 14.5658 46.339 15.0536C46.339 15.8427 46.2479 16.3609 46.0658 16.634C45.9141 16.8769 45.732 16.9679 45.4891 16.9679C45.1553 16.9679 44.9125 16.8162 44.7607 16.5126C44.6393 16.2698 44.5786 15.8146 44.5786 15.1447C44.5786 14.3555 44.6697 13.8374 44.8518 13.5946C45.0339 13.4124 45.2463 13.291 45.5195 13.291ZM109.39 13.291C109.754 13.291 109.997 13.4731 110.118 13.8677C110.209 14.1409 110.27 14.5962 110.27 15.2054C110.27 15.782 110.24 16.1788 110.149 16.4216C110.027 16.8162 109.754 16.9983 109.36 16.9983C109.026 16.9983 108.813 16.8162 108.662 16.4216C108.57 16.1484 108.51 15.6931 108.51 15.1143C108.51 14.568 108.54 14.1409 108.631 13.8981C108.783 13.5035 109.026 13.291 109.39 13.291ZM52.8429 15.1447H53.025V15.691C53.025 16.0552 52.9643 16.3587 52.8429 16.5712C52.6911 16.8747 52.418 16.9961 52.0841 16.9961C51.6288 16.9961 51.4164 16.6926 51.4164 16.1159C51.4142 15.4785 51.8695 15.1447 52.8429 15.1447ZM32.6656 20.5841V27.1769H35.5208V26.5395H33.4548V20.5537H32.6656V20.5841ZM40.5657 20.5841V26.2967C40.5657 26.4788 40.5657 26.7519 40.5353 27.1769H41.2334V26.6305C41.4762 27.0251 41.8405 27.2376 42.3282 27.2376C42.9353 27.2376 43.332 26.9644 43.5445 26.4181C43.6659 26.0539 43.7569 25.5075 43.7569 24.7769C43.7569 24.0788 43.6962 23.5607 43.5748 23.2572C43.3624 22.7412 42.9981 22.468 42.4193 22.468C41.964 22.468 41.5998 22.6502 41.3245 23.0447V20.5841H40.5657ZM75.1144 20.5841V27.1769H75.8428V20.5841H75.4786H75.1144ZM86.752 20.5841V27.1769H87.4805V24.3824C87.4805 23.4718 87.784 23.0144 88.391 23.0144C88.6945 23.0144 88.907 23.1661 89.0284 23.4089C89.0891 23.5607 89.1195 23.8339 89.1195 24.2284V27.1769H89.8479V23.9249C89.8479 22.9515 89.4533 22.4962 88.6317 22.4962C88.146 22.4962 87.7818 22.7087 87.4761 23.1336V20.6123H86.752V20.5841ZM98.1165 20.5841V27.1769H98.845V24.3824C98.845 23.4718 99.1485 23.0144 99.7859 23.0144C100.089 23.0144 100.302 23.1661 100.423 23.4089C100.484 23.5607 100.514 23.8339 100.514 24.2284V27.1769H101.243V23.9249C101.243 22.9515 100.848 22.4962 100.027 22.4962C99.5409 22.4962 99.1767 22.7087 98.871 23.1336V20.6123H98.1122V20.5841H98.1165ZM63.5071 20.6751V21.4643H64.2963V20.6751H63.5071ZM80.7966 20.6751V21.4643H81.5858V20.6751H80.7966ZM106.656 20.6751V21.4643H107.445V20.6751H106.656ZM66.577 21.4036L65.8485 21.7374V22.5873H65.1504V23.1033H65.8485V26.082C65.8485 26.507 65.9092 26.7801 66.0306 26.9319C66.1824 27.114 66.4555 27.2051 66.8805 27.2051C67.0019 27.2051 67.184 27.205 67.4268 27.1747V26.598C67.2447 26.6284 67.1233 26.6284 67.0929 26.6284C66.8805 26.6284 66.7591 26.598 66.6984 26.507C66.6377 26.4159 66.577 26.2338 66.577 25.991V23.1033H67.3964V22.5873H66.577V21.4036ZM69.2501 21.4036L68.5216 21.7374V22.5873H67.8235V23.1033H68.5216V26.082C68.5216 26.507 68.5823 26.7801 68.7037 26.9319C68.8555 27.114 69.1287 27.2051 69.5536 27.2051C69.675 27.2051 69.8571 27.205 70.0695 27.1747V26.598C69.8874 26.6284 69.766 26.6284 69.7357 26.6284C69.5232 26.6284 69.4018 26.598 69.3108 26.507C69.25 26.4159 69.1894 26.2338 69.1894 25.991V23.1033H70.0088V22.5873H69.1894V21.4014H69.2501V21.4036ZM109.693 21.4036L108.965 21.7374V22.5873H108.267V23.1033H108.965V26.082C108.965 26.507 109.026 26.7801 109.147 26.9319C109.299 27.114 109.572 27.2051 109.997 27.2051C110.118 27.2051 110.3 27.205 110.543 27.1747V26.598C110.361 26.6284 110.24 26.6284 110.209 26.6284C109.997 26.6284 109.876 26.598 109.785 26.507C109.724 26.4159 109.663 26.2338 109.663 25.991V23.1033H110.483V22.5873H109.663V21.4014H109.693V21.4036ZM37.9229 22.468C37.2249 22.468 36.7371 22.7412 36.5246 23.2875C36.3728 23.6518 36.3121 24.2284 36.3121 25.0501C36.3121 25.7785 36.4032 26.2967 36.5853 26.6002C36.8281 27.0251 37.253 27.2376 37.8926 27.2376C38.866 27.2376 39.382 26.7216 39.4427 25.7178H38.7446C38.7142 26.3856 38.4411 26.7216 37.9251 26.7216C37.5609 26.7216 37.3484 26.5698 37.227 26.2663C37.136 26.0539 37.1056 25.72 37.1056 25.2626V24.959H39.5056V24.7466C39.5056 24.0181 39.4449 23.5 39.2931 23.1965C39.0156 22.7109 38.5603 22.468 37.9229 22.468ZM46.3693 22.468C45.6713 22.468 45.2138 22.7412 44.971 23.2875C44.8192 23.6518 44.7282 24.2284 44.7282 25.0501C44.7282 25.7785 44.8192 26.2967 45.0014 26.6002C45.2442 27.0251 45.6691 27.2376 46.3086 27.2376C47.2821 27.2376 47.798 26.7216 47.8587 25.7178H47.1606C47.1303 26.3856 46.8571 26.7216 46.3412 26.7216C45.9769 26.7216 45.7645 26.5698 45.6431 26.2663C45.552 26.0539 45.5217 25.72 45.5217 25.2626V24.959H47.9216V24.7466C47.9216 24.0181 47.8609 23.5 47.7091 23.1965C47.4642 22.7109 47.0392 22.468 46.3693 22.468ZM50.9286 22.468C50.3822 22.468 49.9877 22.7109 49.7427 23.1965V22.5591H49.0446C49.075 22.8323 49.075 23.1358 49.075 23.5629V27.1487H49.8034V24.3824C49.8034 24.0181 49.8641 23.7146 50.0159 23.4415C50.198 23.1379 50.4104 22.9862 50.7443 22.9862C51.0478 22.9862 51.2603 23.1379 51.3817 23.3808C51.4424 23.5325 51.4727 23.8057 51.4727 24.2002V27.1487H52.2012V23.8664C52.1426 22.9537 51.7177 22.468 50.9286 22.468ZM54.6965 22.468C54.3019 22.468 53.9681 22.5591 53.7231 22.7716C53.4499 22.984 53.3285 23.2875 53.3285 23.6821C53.3285 24.0463 53.4499 24.3195 53.6927 24.5319C53.8141 24.6534 54.0873 24.8051 54.5122 25.0479C54.8157 25.23 55.0282 25.3514 55.1192 25.4425C55.271 25.5943 55.3317 25.7764 55.3317 26.0495C55.3317 26.5351 55.0889 26.7476 54.6336 26.7476C54.2391 26.7476 53.9962 26.5048 53.9659 26.0192C53.9659 25.9281 53.9659 25.8674 53.9659 25.7764H53.2375C53.2071 26.7801 53.6927 27.2658 54.6358 27.2658C55.6092 27.2658 56.0948 26.8105 56.0948 25.9281C56.0948 25.5942 55.9734 25.2907 55.761 25.0479C55.6092 24.8962 55.3664 24.7444 55.0022 24.5319C54.6683 24.3498 54.4255 24.1981 54.3344 24.1374C54.1523 23.9856 54.0613 23.8035 54.0613 23.6214C54.0613 23.4393 54.122 23.2875 54.213 23.1661C54.3344 23.0447 54.4862 22.984 54.6683 22.984C55.0932 22.984 55.3057 23.2572 55.3057 23.8339H56.0341C56.0341 23.3786 55.9127 23.0144 55.7003 22.7997C55.4856 22.5895 55.1518 22.468 54.6965 22.468ZM58.8893 22.468C58.4037 22.468 58.0395 22.7109 57.7945 23.1661V22.5591H57.0661C57.0964 22.8019 57.0964 23.0751 57.0964 23.3482V27.1465H57.8249V24.3217C57.8249 23.9574 57.8856 23.6236 58.007 23.4111C58.1587 23.1379 58.3712 23.0165 58.6444 23.0165C58.9175 23.0165 59.13 23.1379 59.1907 23.3504C59.2514 23.4718 59.2514 23.6843 59.2514 24.0181V27.1487H59.9798V24.261C59.9798 23.4415 60.253 23.0144 60.7993 23.0144C61.0725 23.0144 61.2546 23.1358 61.3456 23.3482C61.4064 23.5 61.4367 23.7125 61.4367 24.0463V27.1465H62.1651V24.016C62.1651 23.4696 62.0741 23.1054 61.9223 22.8604C61.7402 22.5873 61.4671 22.4355 61.0421 22.4355C60.5565 22.4355 60.1619 22.6783 59.8866 23.1336C59.7695 22.7109 59.4357 22.468 58.8893 22.468ZM72.4717 22.468C71.7736 22.468 71.2858 22.7412 71.0733 23.2875C70.9216 23.6518 70.8609 24.2284 70.8609 25.0501C70.8609 25.7785 70.9519 26.2967 71.134 26.6002C71.3768 27.0251 71.8017 27.2376 72.4413 27.2376C73.4147 27.2376 73.9307 26.7216 73.9914 25.7178H73.2933C73.263 26.3856 72.9898 26.7216 72.4738 26.7216C72.1096 26.7216 71.8971 26.5698 71.7757 26.2663C71.6847 26.0539 71.6543 25.72 71.6543 25.2626V24.959H74.0543V24.7466C74.0543 24.0181 73.9936 23.5 73.8418 23.1965C73.5643 22.7109 73.109 22.468 72.4717 22.468ZM78.3967 22.468C78.0021 22.468 77.6683 22.5591 77.4233 22.7716C77.1501 22.984 77.0287 23.2875 77.0287 23.6821C77.0287 24.0463 77.1501 24.3195 77.3929 24.5319C77.5143 24.6534 77.7875 24.8051 78.2124 25.0479C78.5159 25.23 78.7284 25.3514 78.8195 25.4425C78.9712 25.5943 79.0319 25.7764 79.0319 26.0495C79.0319 26.5351 78.7891 26.7476 78.3338 26.7476C77.9393 26.7476 77.6964 26.5048 77.6661 26.0192C77.6661 25.9281 77.6661 25.8674 77.6661 25.7764H76.9377C76.9073 26.7801 77.3929 27.2658 78.336 27.2658C79.3094 27.2658 79.7647 26.8105 79.7647 25.9281C79.7647 25.5942 79.6433 25.2907 79.4308 25.0479C79.2791 24.8962 79.0363 24.7444 78.672 24.5319C78.3382 24.3498 78.1257 24.1981 78.0347 24.1374C77.8525 23.9856 77.7615 23.8035 77.7615 23.6214C77.7615 23.4393 77.8222 23.2875 77.9436 23.1661C78.065 23.0447 78.2168 22.984 78.3989 22.984C78.8238 22.984 79.0363 23.2572 79.0363 23.8339H79.7647C79.7647 23.3786 79.6433 23.0144 79.4308 22.7997C79.2162 22.5895 78.8823 22.468 78.3967 22.468ZM84.3521 22.468C83.6844 22.468 83.2269 22.7109 82.9841 23.2268C82.8324 23.5607 82.7413 24.1374 82.7413 24.9287C82.7413 25.7178 82.8324 26.2967 82.9841 26.6002C83.1966 27.0251 83.6519 27.2376 84.3218 27.2376C85.2627 27.2376 85.7504 26.7216 85.7504 25.7178H85.0524C85.0524 26.0213 84.9917 26.2642 84.9006 26.4159C84.7792 26.6284 84.5971 26.7194 84.2936 26.7194C83.9597 26.7194 83.7472 26.5677 83.6258 26.2945C83.5348 26.0213 83.4741 25.5661 83.4741 24.8658C83.4741 24.2588 83.5044 23.8317 83.5651 23.5889C83.6865 23.1943 83.9294 22.9819 84.2936 22.9819C84.7792 22.9819 84.9917 23.3157 84.9917 23.9553H85.6897C85.6897 23.4393 85.5987 23.0751 85.3862 22.8301C85.2345 22.5895 84.8681 22.468 84.3521 22.468ZM92.6771 22.468C91.979 22.468 91.5216 22.7412 91.2788 23.2875C91.127 23.6518 91.0359 24.2284 91.0359 25.0501C91.0359 25.7785 91.127 26.2967 91.3091 26.6002C91.5519 27.0251 91.9768 27.2376 92.6164 27.2376C93.5898 27.2376 94.1058 26.7216 94.1665 25.7178H93.4684C93.4381 26.3856 93.1649 26.7216 92.6489 26.7216C92.2847 26.7216 92.0722 26.5698 91.9508 26.2663C91.8598 26.0539 91.8294 25.72 91.8294 25.2626V24.959H94.2294V24.7466C94.2294 24.0181 94.1687 23.5 94.0169 23.1965C93.7719 22.7109 93.3166 22.468 92.6771 22.468ZM104.011 22.468C103.313 22.468 102.825 22.7412 102.613 23.2875C102.461 23.6518 102.4 24.2284 102.4 25.0501C102.4 25.7785 102.491 26.2967 102.674 26.6002C102.916 27.0251 103.341 27.2376 103.981 27.2376C104.954 27.2376 105.47 26.7216 105.531 25.7178H104.833C104.803 26.3856 104.529 26.7216 104.013 26.7216C103.649 26.7216 103.437 26.5698 103.315 26.2663C103.224 26.0539 103.194 25.72 103.194 25.2626V24.959H105.594V24.7466C105.594 24.0181 105.533 23.5 105.381 23.1965C105.106 22.7109 104.681 22.468 104.011 22.468ZM97.1756 22.468C96.6596 22.468 96.2651 22.7109 96.0201 23.1661V22.5591H95.322C95.3524 22.8019 95.3524 23.0751 95.3524 23.4089V27.1769H96.0808V24.3217C96.0808 23.9574 96.1719 23.6843 96.354 23.4718C96.5361 23.2593 96.7789 23.1379 97.1431 23.1379C97.1735 23.1379 97.2342 23.1379 97.2949 23.1683C97.2667 22.7109 97.2363 22.468 97.1756 22.468ZM63.5678 22.5591V27.1769H64.2963V22.5591H63.5678ZM80.8573 22.5591V27.1769H81.5858V22.5591H80.8573ZM106.687 22.5591V27.1769H107.415V22.5591H106.687ZM37.8926 22.984C38.2568 22.984 38.4996 23.1661 38.5907 23.5303C38.6514 23.7125 38.6817 24.016 38.6817 24.4712H37.0102C37.0102 24.2891 37.0102 24.0767 37.0406 23.8642C37.1316 23.2875 37.407 22.984 37.8926 22.984ZM46.3693 22.984C46.7336 22.984 46.9764 23.1661 47.0674 23.5303C47.1281 23.7125 47.1585 24.016 47.1585 24.4712H45.487C45.487 24.2891 45.487 24.0767 45.5173 23.8642C45.5802 23.2875 45.8837 22.984 46.3693 22.984ZM72.4413 22.984C72.8055 22.984 73.0483 23.1661 73.1394 23.5303C73.2001 23.7125 73.2304 24.016 73.2304 24.4712H71.5589C71.5589 24.2891 71.5589 24.0767 71.5893 23.8642C71.6803 23.2875 71.9557 22.984 72.4413 22.984ZM92.6467 22.984C93.011 22.984 93.2538 23.1661 93.3448 23.5303C93.4055 23.7125 93.4359 24.016 93.4359 24.4712H91.7644C91.7644 24.2891 91.7644 24.0767 91.7947 23.8642C91.888 23.2875 92.1611 22.984 92.6467 22.984ZM104.011 22.984C104.375 22.984 104.618 23.1661 104.709 23.5303C104.77 23.7125 104.8 24.016 104.8 24.4712H103.129C103.129 24.2891 103.129 24.0767 103.159 23.8642C103.222 23.2875 103.495 22.984 104.011 22.984ZM42.2068 23.0144C42.5711 23.0144 42.8139 23.2268 42.9353 23.6821C42.996 23.9249 43.0263 24.2891 43.0263 24.7769C43.0263 25.5661 42.9353 26.0842 42.7835 26.3574C42.6318 26.6002 42.4497 26.7216 42.2068 26.7216C41.873 26.7216 41.6302 26.5698 41.4784 26.2663C41.357 26.0235 41.2963 25.5682 41.2963 24.8983C41.2963 24.1092 41.3874 23.5911 41.5695 23.3482C41.7212 23.1054 41.9337 23.0144 42.2068 23.0144Z" fill="black"/>
</svg>
