<svg width="302" height="94" viewBox="0 0 302 94" fill="none" xmlns="http://www.w3.org/2000/svg">
<g clip-path="url(#clip0_1_109)">
<path d="M7.62939e-06 0H94V94H7.62939e-06V0Z" fill="#932826"/>
<path d="M14.6834 36.2134H36.1273V14.2528H57.8726V36.2134H79.3165V57.9157H57.8726V79.7471H36.1273V57.9157H14.6834V36.2134Z" fill="white"/>
<path d="M14.6834 36.2134H36.1273V14.2528H57.8726V36.2134H79.3165V57.9157H57.8726V79.7471H36.1273V57.9157H14.6834V36.2134Z" stroke="#932826" stroke-width="0.5" stroke-miterlimit="10"/>
</g>
<path d="M138.457 17H134.075V4.63636H138.494C139.737 4.63636 140.808 4.88388 141.705 5.37891C142.603 5.86991 143.293 6.57623 143.776 7.49787C144.263 8.41951 144.506 9.52225 144.506 10.8061C144.506 12.094 144.263 13.2008 143.776 14.1264C143.293 15.0521 142.599 15.7624 141.693 16.2575C140.792 16.7525 139.713 17 138.457 17ZM136.689 14.7603H138.349C139.121 14.7603 139.771 14.6235 140.299 14.3498C140.83 14.0721 141.228 13.6435 141.494 13.0639C141.764 12.4804 141.898 11.7277 141.898 10.8061C141.898 9.89252 141.764 9.14595 141.494 8.56641C141.228 7.98686 140.832 7.56025 140.305 7.28658C139.777 7.0129 139.127 6.87607 138.355 6.87607H136.689V14.7603ZM149.039 17.1751C148.447 17.1751 147.92 17.0724 147.457 16.8672C146.994 16.6579 146.628 16.35 146.358 15.9435C146.093 15.533 145.96 15.0219 145.96 14.4102C145.96 13.895 146.054 13.4624 146.244 13.1122C146.433 12.7621 146.69 12.4804 147.016 12.267C147.342 12.0537 147.713 11.8928 148.127 11.7841C148.546 11.6754 148.984 11.599 149.443 11.5547C149.982 11.4983 150.417 11.446 150.747 11.3977C151.077 11.3454 151.317 11.2689 151.465 11.1683C151.614 11.0677 151.689 10.9188 151.689 10.7216V10.6854C151.689 10.303 151.568 10.0072 151.327 9.79794C151.089 9.58866 150.751 9.48402 150.312 9.48402C149.85 9.48402 149.481 9.58665 149.208 9.7919C148.934 9.99313 148.753 10.2467 148.664 10.5526L146.286 10.3594C146.407 9.79593 146.644 9.30895 146.998 8.89844C147.352 8.4839 147.809 8.16596 148.369 7.9446C148.932 7.71922 149.584 7.60653 150.324 7.60653C150.84 7.60653 151.333 7.6669 151.804 7.78764C152.278 7.90838 152.699 8.09553 153.065 8.34908C153.436 8.60263 153.727 8.92862 153.941 9.32706C154.154 9.72147 154.261 10.1944 154.261 10.7457V17H151.822V15.7141H151.749C151.6 16.0039 151.401 16.2595 151.152 16.4808C150.902 16.6982 150.602 16.8692 150.252 16.994C149.902 17.1147 149.497 17.1751 149.039 17.1751ZM149.775 15.4002C150.153 15.4002 150.487 15.3258 150.777 15.1768C151.067 15.0239 151.294 14.8187 151.459 14.5611C151.624 14.3035 151.707 14.0117 151.707 13.6857V12.7017C151.626 12.754 151.516 12.8023 151.375 12.8466C151.238 12.8868 151.083 12.9251 150.91 12.9613C150.737 12.9935 150.564 13.0237 150.391 13.0518C150.218 13.076 150.061 13.0981 149.92 13.1183C149.618 13.1625 149.355 13.233 149.129 13.3295C148.904 13.4261 148.729 13.5569 148.604 13.7219C148.479 13.8829 148.417 14.0842 148.417 14.3256C148.417 14.6758 148.544 14.9434 148.797 15.1286C149.055 15.3097 149.381 15.4002 149.775 15.4002ZM163.971 10.3714L161.617 10.5163C161.576 10.3151 161.49 10.134 161.357 9.97301C161.224 9.808 161.049 9.6772 160.832 9.58061C160.618 9.48 160.363 9.42969 160.065 9.42969C159.667 9.42969 159.331 9.5142 159.057 9.68324C158.783 9.84825 158.646 10.0696 158.646 10.3473C158.646 10.5687 158.735 10.7558 158.912 10.9087C159.089 11.0617 159.393 11.1844 159.824 11.277L161.502 11.6151C162.403 11.8002 163.075 12.098 163.518 12.5085C163.961 12.919 164.182 13.4583 164.182 14.1264C164.182 14.7341 164.003 15.2674 163.645 15.7262C163.291 16.185 162.804 16.5432 162.184 16.8008C161.568 17.0543 160.858 17.1811 160.053 17.1811C158.825 17.1811 157.848 16.9255 157.119 16.4144C156.395 15.8993 155.97 15.199 155.845 14.3136L158.375 14.1808C158.451 14.555 158.636 14.8408 158.93 15.038C159.224 15.2312 159.6 15.3278 160.059 15.3278C160.51 15.3278 160.872 15.2412 161.146 15.0682C161.423 14.8911 161.564 14.6637 161.568 14.386C161.564 14.1526 161.466 13.9614 161.272 13.8125C161.079 13.6596 160.781 13.5429 160.379 13.4624L158.773 13.1424C157.868 12.9613 157.194 12.6474 156.751 12.2006C156.312 11.7539 156.093 11.1844 156.093 10.4922C156.093 9.89654 156.254 9.3834 156.576 8.95277C156.902 8.52214 157.359 8.1901 157.946 7.95668C158.538 7.72325 159.23 7.60653 160.023 7.60653C161.194 7.60653 162.116 7.85405 162.788 8.34908C163.464 8.8441 163.858 9.51823 163.971 10.3714ZM177.451 10.3714L175.097 10.5163C175.057 10.3151 174.97 10.134 174.837 9.97301C174.705 9.808 174.53 9.6772 174.312 9.58061C174.099 9.48 173.843 9.42969 173.546 9.42969C173.147 9.42969 172.811 9.5142 172.537 9.68324C172.264 9.84825 172.127 10.0696 172.127 10.3473C172.127 10.5687 172.215 10.7558 172.392 10.9087C172.57 11.0617 172.873 11.1844 173.304 11.277L174.982 11.6151C175.884 11.8002 176.556 12.098 176.999 12.5085C177.441 12.919 177.663 13.4583 177.663 14.1264C177.663 14.7341 177.484 15.2674 177.125 15.7262C176.771 16.185 176.284 16.5432 175.665 16.8008C175.049 17.0543 174.338 17.1811 173.533 17.1811C172.306 17.1811 171.328 16.9255 170.6 16.4144C169.875 15.8993 169.45 15.199 169.326 14.3136L171.855 14.1808C171.932 14.555 172.117 14.8408 172.411 15.038C172.704 15.2312 173.081 15.3278 173.54 15.3278C173.99 15.3278 174.352 15.2412 174.626 15.0682C174.904 14.8911 175.045 14.6637 175.049 14.386C175.045 14.1526 174.946 13.9614 174.753 13.8125C174.56 13.6596 174.262 13.5429 173.859 13.4624L172.254 13.1424C171.348 12.9613 170.674 12.6474 170.231 12.2006C169.793 11.7539 169.573 11.1844 169.573 10.4922C169.573 9.89654 169.734 9.3834 170.056 8.95277C170.382 8.52214 170.839 8.1901 171.427 7.95668C172.018 7.72325 172.71 7.60653 173.503 7.60653C174.674 7.60653 175.596 7.85405 176.268 8.34908C176.944 8.8441 177.339 9.51823 177.451 10.3714ZM179.282 17V7.72727H181.854V17H179.282ZM180.574 6.53196C180.192 6.53196 179.864 6.40518 179.59 6.15163C179.32 5.89406 179.186 5.58617 179.186 5.22798C179.186 4.87382 179.32 4.56996 179.59 4.31641C179.864 4.05883 180.192 3.93004 180.574 3.93004C180.956 3.93004 181.282 4.05883 181.552 4.31641C181.826 4.56996 181.963 4.87382 181.963 5.22798C181.963 5.58617 181.826 5.89406 181.552 6.15163C181.282 6.40518 180.956 6.53196 180.574 6.53196ZM188.104 17.1811C187.154 17.1811 186.337 16.9799 185.653 16.5774C184.972 16.1709 184.449 15.6075 184.083 14.8871C183.721 14.1667 183.54 13.3376 183.54 12.3999C183.54 11.45 183.723 10.617 184.089 9.90057C184.459 9.18016 184.985 8.61873 185.665 8.21626C186.345 7.80978 187.154 7.60653 188.092 7.60653C188.9 7.60653 189.609 7.75343 190.217 8.04723C190.824 8.34103 191.305 8.75355 191.659 9.2848C192.014 9.81605 192.209 10.4399 192.245 11.1562H189.818C189.75 10.6934 189.569 10.3211 189.275 10.0394C188.985 9.75367 188.605 9.6108 188.134 9.6108C187.735 9.6108 187.387 9.71946 187.089 9.93679C186.796 10.1501 186.566 10.462 186.401 10.8725C186.236 11.283 186.154 11.7801 186.154 12.3636C186.154 12.9553 186.234 13.4583 186.395 13.8729C186.56 14.2874 186.792 14.6033 187.089 14.8207C187.387 15.038 187.735 15.1467 188.134 15.1467C188.428 15.1467 188.691 15.0863 188.925 14.9656C189.162 14.8448 189.357 14.6697 189.51 14.4403C189.667 14.2069 189.77 13.9272 189.818 13.6012H192.245C192.205 14.3095 192.012 14.9334 191.665 15.4727C191.323 16.0079 190.85 16.4265 190.247 16.7283C189.643 17.0302 188.929 17.1811 188.104 17.1811ZM196.463 11.6392V17H193.892V4.63636H196.391V9.36328H196.499C196.709 8.81593 197.047 8.38731 197.514 8.07741C197.981 7.76349 198.566 7.60653 199.27 7.60653C199.914 7.60653 200.476 7.7474 200.955 8.02912C201.438 8.30682 201.812 8.70727 202.078 9.23047C202.347 9.74964 202.48 10.3714 202.476 11.0959V17H199.904V11.5547C199.908 10.9832 199.763 10.5385 199.47 10.2205C199.18 9.90258 198.773 9.74361 198.25 9.74361C197.9 9.74361 197.59 9.81806 197.32 9.96697C197.055 10.1159 196.846 10.3332 196.693 10.619C196.544 10.9007 196.467 11.2408 196.463 11.6392ZM208.726 17.1811C207.772 17.1811 206.951 16.9879 206.263 16.6016C205.579 16.2112 205.051 15.6598 204.681 14.9474C204.311 14.2311 204.126 13.3839 204.126 12.4059C204.126 11.4521 204.311 10.6149 204.681 9.89453C205.051 9.17412 205.572 8.61269 206.245 8.21023C206.921 7.80776 207.714 7.60653 208.623 7.60653C209.235 7.60653 209.804 7.70514 210.332 7.90234C210.863 8.09553 211.326 8.38731 211.72 8.7777C212.119 9.16809 212.428 9.65909 212.65 10.2507C212.871 10.8383 212.982 11.5265 212.982 12.3153V13.0217H205.152V11.4279H210.561C210.561 11.0576 210.48 10.7296 210.32 10.4439C210.159 10.1581 209.935 9.93478 209.649 9.77379C209.368 9.60878 209.04 9.52628 208.665 9.52628C208.275 9.52628 207.929 9.61683 207.627 9.79794C207.329 9.97502 207.096 10.2145 206.927 10.5163C206.758 10.8142 206.671 11.1462 206.667 11.5124V13.0277C206.667 13.4865 206.752 13.8829 206.921 14.217C207.094 14.551 207.337 14.8086 207.651 14.9897C207.965 15.1708 208.337 15.2614 208.768 15.2614C209.054 15.2614 209.315 15.2211 209.553 15.1406C209.79 15.0601 209.994 14.9394 210.163 14.7784C210.332 14.6174 210.46 14.4202 210.549 14.1868L212.927 14.3438C212.807 14.9152 212.559 15.4143 212.185 15.8409C211.815 16.2635 211.336 16.5935 210.748 16.831C210.165 17.0644 209.49 17.1811 208.726 17.1811ZM214.66 17V7.72727H217.153V9.34517H217.25C217.419 8.76965 217.703 8.33499 218.101 8.04119C218.5 7.74337 218.958 7.59446 219.478 7.59446C219.606 7.59446 219.745 7.60251 219.894 7.61861C220.043 7.63471 220.174 7.65684 220.286 7.68501V9.96697C220.166 9.93075 219.999 9.89856 219.785 9.87038C219.572 9.84221 219.377 9.82812 219.2 9.82812C218.822 9.82812 218.483 9.91063 218.186 10.0756C217.892 10.2366 217.658 10.462 217.485 10.7518C217.316 11.0415 217.232 11.3756 217.232 11.7539V17H214.66ZM229.331 10.3714L226.977 10.5163C226.937 10.3151 226.85 10.134 226.717 9.97301C226.585 9.808 226.409 9.6772 226.192 9.58061C225.979 9.48 225.723 9.42969 225.425 9.42969C225.027 9.42969 224.691 9.5142 224.417 9.68324C224.144 9.84825 224.007 10.0696 224.007 10.3473C224.007 10.5687 224.095 10.7558 224.272 10.9087C224.449 11.0617 224.753 11.1844 225.184 11.277L226.862 11.6151C227.764 11.8002 228.436 12.098 228.879 12.5085C229.321 12.919 229.543 13.4583 229.543 14.1264C229.543 14.7341 229.364 15.2674 229.005 15.7262C228.651 16.185 228.164 16.5432 227.544 16.8008C226.929 17.0543 226.218 17.1811 225.413 17.1811C224.186 17.1811 223.208 16.9255 222.479 16.4144C221.755 15.8993 221.33 15.199 221.206 14.3136L223.735 14.1808C223.812 14.555 223.997 14.8408 224.29 15.038C224.584 15.2312 224.961 15.3278 225.419 15.3278C225.87 15.3278 226.232 15.2412 226.506 15.0682C226.784 14.8911 226.925 14.6637 226.929 14.386C226.925 14.1526 226.826 13.9614 226.633 13.8125C226.44 13.6596 226.142 13.5429 225.739 13.4624L224.134 13.1424C223.228 12.9613 222.554 12.6474 222.111 12.2006C221.672 11.7539 221.453 11.1844 221.453 10.4922C221.453 9.89654 221.614 9.3834 221.936 8.95277C222.262 8.52214 222.719 8.1901 223.306 7.95668C223.898 7.72325 224.59 7.60653 225.383 7.60653C226.554 7.60653 227.476 7.85405 228.148 8.34908C228.824 8.8441 229.219 9.51823 229.331 10.3714ZM236.094 7.72727V9.65909H230.51V7.72727H236.094ZM231.778 5.50568H234.35V14.1506C234.35 14.388 234.386 14.5732 234.458 14.706C234.531 14.8348 234.631 14.9253 234.76 14.9776C234.893 15.0299 235.046 15.0561 235.219 15.0561C235.34 15.0561 235.46 15.046 235.581 15.0259C235.702 15.0018 235.794 14.9837 235.859 14.9716L236.263 16.8853C236.134 16.9255 235.953 16.9718 235.72 17.0241C235.486 17.0805 235.203 17.1147 234.869 17.1268C234.249 17.1509 233.706 17.0684 233.239 16.8793C232.776 16.6901 232.416 16.3963 232.158 15.9979C231.901 15.5994 231.774 15.0964 231.778 14.4886V5.50568ZM241.896 17.1811C240.942 17.1811 240.121 16.9879 239.433 16.6016C238.748 16.2112 238.221 15.6598 237.851 14.9474C237.481 14.2311 237.296 13.3839 237.296 12.4059C237.296 11.4521 237.481 10.6149 237.851 9.89453C238.221 9.17412 238.742 8.61269 239.415 8.21023C240.091 7.80776 240.883 7.60653 241.793 7.60653C242.405 7.60653 242.974 7.70514 243.502 7.90234C244.033 8.09553 244.496 8.38731 244.89 8.7777C245.288 9.16809 245.598 9.65909 245.82 10.2507C246.041 10.8383 246.152 11.5265 246.152 12.3153V13.0217H238.322V11.4279H243.731C243.731 11.0576 243.65 10.7296 243.489 10.4439C243.328 10.1581 243.105 9.93478 242.819 9.77379C242.538 9.60878 242.21 9.52628 241.835 9.52628C241.445 9.52628 241.099 9.61683 240.797 9.79794C240.499 9.97502 240.266 10.2145 240.097 10.5163C239.928 10.8142 239.841 11.1462 239.837 11.5124V13.0277C239.837 13.4865 239.922 13.8829 240.091 14.217C240.264 14.551 240.507 14.8086 240.821 14.9897C241.135 15.1708 241.507 15.2614 241.938 15.2614C242.224 15.2614 242.485 15.2211 242.723 15.1406C242.96 15.0601 243.163 14.9394 243.332 14.7784C243.502 14.6174 243.63 14.4202 243.719 14.1868L246.097 14.3438C245.977 14.9152 245.729 15.4143 245.355 15.8409C244.985 16.2635 244.506 16.5935 243.918 16.831C243.334 17.0644 242.66 17.1811 241.896 17.1811ZM251.813 17V4.63636H254.427V14.8448H259.727V17H251.813ZM264.054 17.1751C263.463 17.1751 262.935 17.0724 262.473 16.8672C262.01 16.6579 261.643 16.35 261.374 15.9435C261.108 15.533 260.975 15.0219 260.975 14.4102C260.975 13.895 261.07 13.4624 261.259 13.1122C261.448 12.7621 261.706 12.4804 262.032 12.267C262.358 12.0537 262.728 11.8928 263.143 11.7841C263.561 11.6754 264 11.599 264.459 11.5547C264.998 11.4983 265.433 11.446 265.763 11.3977C266.093 11.3454 266.332 11.2689 266.481 11.1683C266.63 11.0677 266.704 10.9188 266.704 10.7216V10.6854C266.704 10.303 266.584 10.0072 266.342 9.79794C266.105 9.58866 265.767 9.48402 265.328 9.48402C264.865 9.48402 264.497 9.58665 264.223 9.7919C263.95 9.99313 263.768 10.2467 263.68 10.5526L261.301 10.3594C261.422 9.79593 261.66 9.30895 262.014 8.89844C262.368 8.4839 262.825 8.16596 263.384 7.9446C263.948 7.71922 264.6 7.60653 265.34 7.60653C265.855 7.60653 266.348 7.6669 266.819 7.78764C267.294 7.90838 267.715 8.09553 268.081 8.34908C268.451 8.60263 268.743 8.92862 268.956 9.32706C269.17 9.72147 269.276 10.1944 269.276 10.7457V17H266.837V15.7141H266.765C266.616 16.0039 266.417 16.2595 266.167 16.4808C265.918 16.6982 265.618 16.8692 265.268 16.994C264.918 17.1147 264.513 17.1751 264.054 17.1751ZM264.791 15.4002C265.169 15.4002 265.503 15.3258 265.793 15.1768C266.083 15.0239 266.31 14.8187 266.475 14.5611C266.64 14.3035 266.723 14.0117 266.723 13.6857V12.7017C266.642 12.754 266.531 12.8023 266.391 12.8466C266.254 12.8868 266.099 12.9251 265.926 12.9613C265.753 12.9935 265.58 13.0237 265.407 13.0518C265.233 13.076 265.076 13.0981 264.936 13.1183C264.634 13.1625 264.37 13.233 264.145 13.3295C263.919 13.4261 263.744 13.5569 263.62 13.7219C263.495 13.8829 263.432 14.0842 263.432 14.3256C263.432 14.6758 263.559 14.9434 263.813 15.1286C264.07 15.3097 264.396 15.4002 264.791 15.4002ZM273.843 11.6392V17H271.271V7.72727H273.722V9.36328H273.831C274.036 8.82398 274.38 8.39737 274.863 8.08345C275.346 7.76551 275.932 7.60653 276.62 7.60653C277.264 7.60653 277.825 7.7474 278.304 8.02912C278.783 8.31084 279.156 8.7133 279.421 9.23651C279.687 9.75568 279.82 10.3755 279.82 11.0959V17H277.248V11.5547C277.252 10.9872 277.107 10.5445 276.813 10.2266C276.52 9.90459 276.115 9.74361 275.6 9.74361C275.254 9.74361 274.948 9.81806 274.682 9.96697C274.421 10.1159 274.215 10.3332 274.066 10.619C273.922 10.9007 273.847 11.2408 273.843 11.6392ZM285.263 17.1509C284.559 17.1509 283.921 16.9698 283.35 16.6076C282.782 16.2414 282.332 15.7041 281.998 14.9957C281.667 14.2834 281.502 13.41 281.502 12.3757C281.502 11.3132 281.674 10.4298 282.016 9.7255C282.358 9.01716 282.813 8.48793 283.38 8.13778C283.951 7.78362 284.577 7.60653 285.257 7.60653C285.777 7.60653 286.209 7.69508 286.555 7.87216C286.906 8.04522 287.187 8.26255 287.401 8.52415C287.618 8.78172 287.783 9.03527 287.896 9.2848H287.974V4.63636H290.54V17H288.004V15.5149H287.896C287.775 15.7725 287.604 16.0281 287.382 16.2816C287.165 16.5311 286.881 16.7384 286.531 16.9034C286.185 17.0684 285.763 17.1509 285.263 17.1509ZM286.078 15.1044C286.493 15.1044 286.843 14.9917 287.129 14.7663C287.419 14.5369 287.64 14.217 287.793 13.8065C287.95 13.396 288.028 12.915 288.028 12.3636C288.028 11.8123 287.952 11.3333 287.799 10.9268C287.646 10.5204 287.425 10.2064 287.135 9.98508C286.845 9.76373 286.493 9.65305 286.078 9.65305C285.656 9.65305 285.3 9.76776 285.01 9.99716C284.72 10.2266 284.501 10.5445 284.352 10.951C284.203 11.3575 284.129 11.8284 284.129 12.3636C284.129 12.9029 284.203 13.3799 284.352 13.7944C284.505 14.2049 284.724 14.5269 285.01 14.7603C285.3 14.9897 285.656 15.1044 286.078 15.1044ZM133.978 38V36.4666L138.518 30.8462V30.7798H134.135V28.7273H141.615V30.3995L137.353 35.881V35.9474H141.772V38H133.978ZM149.685 34.0518V28.7273H152.256V38H149.787V36.3157H149.691C149.481 36.859 149.133 37.2957 148.646 37.6257C148.163 37.9557 147.574 38.1207 146.877 38.1207C146.258 38.1207 145.712 37.9799 145.241 37.6982C144.771 37.4164 144.402 37.016 144.137 36.4968C143.875 35.9776 143.742 35.3558 143.738 34.6314V28.7273H146.31V34.1726C146.314 34.7199 146.461 35.1526 146.751 35.4705C147.04 35.7885 147.429 35.9474 147.916 35.9474C148.226 35.9474 148.515 35.877 148.785 35.7362C149.055 35.5913 149.272 35.378 149.437 35.0962C149.606 34.8145 149.689 34.4664 149.685 34.0518ZM154.313 38V28.7273H156.764V30.3633H156.873C157.066 29.82 157.388 29.3913 157.839 29.0774C158.29 28.7635 158.829 28.6065 159.457 28.6065C160.093 28.6065 160.634 28.7655 161.081 29.0835C161.528 29.3974 161.825 29.824 161.974 30.3633H162.071C162.26 29.832 162.602 29.4074 163.097 29.0895C163.596 28.7675 164.186 28.6065 164.866 28.6065C165.731 28.6065 166.434 28.8822 166.973 29.4336C167.516 29.9809 167.788 30.7577 167.788 31.7638V38H165.222V32.271C165.222 31.7558 165.085 31.3694 164.812 31.1119C164.538 30.8543 164.196 30.7255 163.785 30.7255C163.318 30.7255 162.954 30.8744 162.693 31.1722C162.431 31.466 162.3 31.8544 162.3 32.3374V38H159.807V32.2166C159.807 31.7618 159.676 31.3996 159.415 31.13C159.157 30.8603 158.817 30.7255 158.394 30.7255C158.109 30.7255 157.851 30.7979 157.622 30.9428C157.396 31.0837 157.217 31.2829 157.084 31.5405C156.952 31.794 156.885 32.0919 156.885 32.4339V38H154.313ZM173.802 38V25.6364H176.416V35.8448H181.717V38H173.802ZM186.044 38.1751C185.452 38.1751 184.925 38.0724 184.462 37.8672C183.999 37.6579 183.633 37.35 183.363 36.9435C183.097 36.533 182.965 36.0219 182.965 35.4102C182.965 34.895 183.059 34.4624 183.248 34.1122C183.438 33.7621 183.695 33.4804 184.021 33.267C184.347 33.0537 184.717 32.8928 185.132 32.7841C185.55 32.6754 185.989 32.599 186.448 32.5547C186.987 32.4983 187.422 32.446 187.752 32.3977C188.082 32.3454 188.321 32.2689 188.47 32.1683C188.619 32.0677 188.694 31.9188 188.694 31.7216V31.6854C188.694 31.303 188.573 31.0072 188.331 30.7979C188.094 30.5887 187.756 30.484 187.317 30.484C186.854 30.484 186.486 30.5866 186.213 30.7919C185.939 30.9931 185.758 31.2467 185.669 31.5526L183.291 31.3594C183.411 30.7959 183.649 30.3089 184.003 29.8984C184.357 29.4839 184.814 29.166 185.373 28.9446C185.937 28.7192 186.589 28.6065 187.329 28.6065C187.845 28.6065 188.338 28.6669 188.808 28.7876C189.283 28.9084 189.704 29.0955 190.07 29.3491C190.44 29.6026 190.732 29.9286 190.945 30.3271C191.159 30.7215 191.265 31.1944 191.265 31.7457V38H188.827V36.7141H188.754C188.605 37.0039 188.406 37.2595 188.156 37.4808C187.907 37.6982 187.607 37.8692 187.257 37.994C186.907 38.1147 186.502 38.1751 186.044 38.1751ZM186.78 36.4002C187.158 36.4002 187.492 36.3258 187.782 36.1768C188.072 36.0239 188.299 35.8187 188.464 35.5611C188.629 35.3035 188.712 35.0117 188.712 34.6857V33.7017C188.631 33.754 188.521 33.8023 188.38 33.8466C188.243 33.8868 188.088 33.9251 187.915 33.9613C187.742 33.9935 187.569 34.0237 187.396 34.0518C187.223 34.076 187.066 34.0981 186.925 34.1183C186.623 34.1625 186.359 34.233 186.134 34.3295C185.909 34.4261 185.734 34.5569 185.609 34.7219C185.484 34.8829 185.422 35.0842 185.422 35.3256C185.422 35.6758 185.548 35.9434 185.802 36.1286C186.06 36.3097 186.386 36.4002 186.78 36.4002ZM197.438 41.6705C196.605 41.6705 195.891 41.5558 195.295 41.3263C194.703 41.101 194.233 40.7931 193.882 40.4027C193.532 40.0123 193.305 39.5736 193.2 39.0866L195.579 38.7667C195.651 38.9518 195.766 39.1249 195.923 39.2859C196.08 39.4469 196.287 39.5756 196.545 39.6722C196.806 39.7728 197.124 39.8232 197.499 39.8232C198.058 39.8232 198.519 39.6863 198.881 39.4126C199.247 39.143 199.43 38.6902 199.43 38.0543V36.358H199.322C199.209 36.6155 199.04 36.859 198.815 37.0884C198.589 37.3178 198.299 37.505 197.945 37.6499C197.591 37.7947 197.169 37.8672 196.678 37.8672C195.981 37.8672 195.347 37.7062 194.776 37.3842C194.208 37.0582 193.756 36.5612 193.418 35.8931C193.084 35.221 192.917 34.3718 192.917 33.3455C192.917 32.2951 193.088 31.4177 193.43 30.7134C193.772 30.0091 194.227 29.4819 194.794 29.1317C195.366 28.7816 195.991 28.6065 196.672 28.6065C197.191 28.6065 197.625 28.6951 197.975 28.8722C198.326 29.0452 198.607 29.2625 198.821 29.5241C199.038 29.7817 199.205 30.0353 199.322 30.2848H199.418V28.7273H201.972V38.0906C201.972 38.8794 201.779 39.5394 201.392 40.0707C201.006 40.6019 200.471 41.0004 199.787 41.266C199.106 41.5356 198.324 41.6705 197.438 41.6705ZM197.493 35.9354C197.907 35.9354 198.257 35.8327 198.543 35.6275C198.833 35.4182 199.054 35.1204 199.207 34.734C199.364 34.3436 199.442 33.8768 199.442 33.3335C199.442 32.7901 199.366 32.3192 199.213 31.9208C199.06 31.5183 198.839 31.2064 198.549 30.9851C198.259 30.7637 197.907 30.6531 197.493 30.6531C197.07 30.6531 196.714 30.7678 196.424 30.9972C196.134 31.2225 195.915 31.5365 195.766 31.9389C195.617 32.3414 195.543 32.8062 195.543 33.3335C195.543 33.8687 195.617 34.3316 195.766 34.7219C195.919 35.1083 196.138 35.4081 196.424 35.6214C196.714 35.8307 197.07 35.9354 197.493 35.9354ZM208.244 38.1811C207.29 38.1811 206.469 37.9879 205.781 37.6016C205.097 37.2112 204.57 36.6598 204.2 35.9474C203.829 35.2311 203.644 34.3839 203.644 33.4059C203.644 32.4521 203.829 31.6149 204.2 30.8945C204.57 30.1741 205.091 29.6127 205.763 29.2102C206.439 28.8078 207.232 28.6065 208.142 28.6065C208.753 28.6065 209.323 28.7051 209.85 28.9023C210.381 29.0955 210.844 29.3873 211.239 29.7777C211.637 30.1681 211.947 30.6591 212.168 31.2507C212.39 31.8383 212.5 32.5265 212.5 33.3153V34.0217H204.67V32.4279H210.08C210.08 32.0576 209.999 31.7296 209.838 31.4439C209.677 31.1581 209.454 30.9348 209.168 30.7738C208.886 30.6088 208.558 30.5263 208.184 30.5263C207.794 30.5263 207.447 30.6168 207.146 30.7979C206.848 30.975 206.614 31.2145 206.445 31.5163C206.276 31.8142 206.19 32.1462 206.186 32.5124V34.0277C206.186 34.4865 206.27 34.8829 206.439 35.217C206.612 35.551 206.856 35.8086 207.17 35.9897C207.484 36.1708 207.856 36.2614 208.287 36.2614C208.572 36.2614 208.834 36.2211 209.071 36.1406C209.309 36.0601 209.512 35.9394 209.681 35.7784C209.85 35.6174 209.979 35.4202 210.067 35.1868L212.446 35.3438C212.325 35.9152 212.078 36.4143 211.703 36.8409C211.333 37.2635 210.854 37.5935 210.267 37.831C209.683 38.0644 209.009 38.1811 208.244 38.1811ZM214.179 38V28.7273H216.672V30.3452H216.768C216.938 29.7696 217.221 29.335 217.62 29.0412C218.018 28.7434 218.477 28.5945 218.996 28.5945C219.125 28.5945 219.264 28.6025 219.413 28.6186C219.562 28.6347 219.692 28.6568 219.805 28.685V30.967C219.684 30.9308 219.517 30.8986 219.304 30.8704C219.091 30.8422 218.895 30.8281 218.718 30.8281C218.34 30.8281 218.002 30.9106 217.704 31.0756C217.41 31.2366 217.177 31.462 217.004 31.7518C216.835 32.0415 216.75 32.3756 216.75 32.7539V38H214.179ZM223.706 32.6392V38H221.135V28.7273H223.586V30.3633H223.694C223.9 29.824 224.244 29.3974 224.727 29.0835C225.21 28.7655 225.795 28.6065 226.483 28.6065C227.127 28.6065 227.689 28.7474 228.168 29.0291C228.647 29.3108 229.019 29.7133 229.285 30.2365C229.55 30.7557 229.683 31.3755 229.683 32.0959V38H227.111V32.5547C227.115 31.9872 226.97 31.5445 226.677 31.2266C226.383 30.9046 225.978 30.7436 225.463 30.7436C225.117 30.7436 224.811 30.8181 224.546 30.967C224.284 31.1159 224.079 31.3332 223.93 31.619C223.785 31.9007 223.71 32.2408 223.706 32.6392Z" fill="white"/>
<path d="M142.716 70.0909C142.631 69.3712 142.285 68.8125 141.679 68.4148C141.073 68.017 140.33 67.8182 139.449 67.8182C138.805 67.8182 138.241 67.9223 137.759 68.1307C137.28 68.339 136.906 68.6255 136.636 68.9901C136.371 69.3546 136.239 69.7689 136.239 70.233C136.239 70.6212 136.331 70.955 136.516 71.2344C136.705 71.509 136.946 71.7386 137.24 71.9233C137.534 72.1032 137.841 72.2524 138.163 72.3707C138.485 72.4844 138.781 72.5767 139.051 72.6477L140.528 73.0455C140.907 73.1449 141.329 73.2822 141.793 73.4574C142.261 73.6326 142.709 73.8717 143.135 74.1747C143.566 74.473 143.921 74.8565 144.2 75.3253C144.48 75.794 144.619 76.3693 144.619 77.0511C144.619 77.8371 144.413 78.5473 144.001 79.1818C143.594 79.8163 142.998 80.3205 142.212 80.6946C141.43 81.0687 140.481 81.2557 139.364 81.2557C138.322 81.2557 137.42 81.0876 136.658 80.7514C135.9 80.4152 135.304 79.9465 134.868 79.3452C134.437 78.7438 134.193 78.0455 134.136 77.25H135.955C136.002 77.7992 136.187 78.2538 136.509 78.6136C136.835 78.9687 137.247 79.2339 137.744 79.4091C138.246 79.5795 138.786 79.6648 139.364 79.6648C140.036 79.6648 140.64 79.5559 141.175 79.3381C141.71 79.1155 142.134 78.8078 142.446 78.4148C142.759 78.017 142.915 77.553 142.915 77.0227C142.915 76.5398 142.78 76.1468 142.51 75.8438C142.24 75.5407 141.885 75.2945 141.445 75.1051C141.004 74.9157 140.528 74.75 140.017 74.608L138.227 74.0966C137.091 73.7699 136.191 73.3035 135.528 72.6974C134.866 72.0914 134.534 71.2983 134.534 70.3182C134.534 69.5038 134.754 68.7936 135.195 68.1875C135.64 67.5767 136.236 67.1032 136.984 66.767C137.737 66.4261 138.578 66.2557 139.506 66.2557C140.443 66.2557 141.277 66.4238 142.006 66.7599C142.735 67.0914 143.313 67.5459 143.739 68.1236C144.17 68.7012 144.397 69.357 144.42 70.0909H142.716ZM151.72 81.2273C150.697 81.2273 149.816 80.9858 149.078 80.5028C148.339 80.0199 147.771 79.3546 147.373 78.5071C146.975 77.6596 146.777 76.6913 146.777 75.6023C146.777 74.4943 146.98 73.5166 147.387 72.669C147.799 71.8168 148.372 71.1515 149.106 70.6733C149.845 70.1903 150.707 69.9489 151.691 69.9489C152.458 69.9489 153.15 70.0909 153.765 70.375C154.381 70.6591 154.885 71.0568 155.278 71.5682C155.671 72.0795 155.915 72.6761 156.01 73.358H154.333C154.206 72.8608 153.922 72.4205 153.481 72.0369C153.046 71.6487 152.458 71.4545 151.72 71.4545C151.066 71.4545 150.493 71.625 150.001 71.9659C149.513 72.3021 149.132 72.7779 148.858 73.3935C148.588 74.0043 148.453 74.7216 148.453 75.5455C148.453 76.3883 148.585 77.1222 148.85 77.7472C149.12 78.3722 149.499 78.8575 149.987 79.2031C150.479 79.5488 151.057 79.7216 151.72 79.7216C152.155 79.7216 152.551 79.6458 152.906 79.4943C153.261 79.3428 153.562 79.125 153.808 78.8409C154.054 78.5568 154.229 78.2159 154.333 77.8182H156.01C155.915 78.4621 155.681 79.0421 155.306 79.5582C154.937 80.0696 154.447 80.4768 153.836 80.7798C153.23 81.0781 152.525 81.2273 151.72 81.2273ZM160.136 74.4375V81H158.46V66.4545H160.136V71.7955H160.278C160.534 71.232 160.917 70.7846 161.429 70.4531C161.945 70.117 162.631 69.9489 163.488 69.9489C164.232 69.9489 164.883 70.098 165.441 70.3963C166 70.6899 166.433 71.142 166.741 71.7528C167.054 72.3589 167.21 73.1307 167.21 74.0682V81H165.534V74.1818C165.534 73.3153 165.309 72.6454 164.859 72.1719C164.414 71.6937 163.796 71.4545 163.005 71.4545C162.456 71.4545 161.964 71.5705 161.528 71.8026C161.097 72.0346 160.756 72.3731 160.505 72.8182C160.259 73.2633 160.136 73.803 160.136 74.4375ZM172.748 81L169.424 70.0909H171.185L173.543 78.4432H173.657L175.987 70.0909H177.776L180.077 78.4148H180.191L182.549 70.0909H184.31L180.987 81H179.339L176.952 72.6193H176.782L174.396 81H172.748ZM190.729 81.2273C189.678 81.2273 188.771 80.9953 188.009 80.5312C187.251 80.0625 186.667 79.4091 186.255 78.571C185.847 77.7282 185.644 76.7481 185.644 75.6307C185.644 74.5133 185.847 73.5284 186.255 72.6761C186.667 71.8191 187.239 71.1515 187.973 70.6733C188.712 70.1903 189.574 69.9489 190.559 69.9489C191.127 69.9489 191.688 70.0436 192.242 70.233C192.796 70.4223 193.3 70.7301 193.755 71.1562C194.209 71.5777 194.571 72.1364 194.841 72.8324C195.111 73.5284 195.246 74.3854 195.246 75.4034V76.1136H186.837V74.6648H193.542C193.542 74.0492 193.418 73.5 193.172 73.017C192.931 72.5341 192.585 72.1529 192.135 71.8736C191.69 71.5942 191.165 71.4545 190.559 71.4545C189.891 71.4545 189.313 71.6203 188.826 71.9517C188.343 72.2784 187.971 72.7045 187.711 73.2301C187.45 73.7557 187.32 74.3191 187.32 74.9205V75.8864C187.32 76.7102 187.462 77.4086 187.746 77.9815C188.035 78.5497 188.435 78.983 188.946 79.2812C189.458 79.5748 190.052 79.7216 190.729 79.7216C191.169 79.7216 191.567 79.66 191.922 79.5369C192.282 79.4091 192.592 79.2197 192.853 78.9688C193.113 78.7131 193.314 78.3958 193.456 78.017L195.076 78.4716C194.905 79.0208 194.619 79.5038 194.216 79.9205C193.814 80.3324 193.317 80.6544 192.725 80.8864C192.133 81.1136 191.468 81.2273 190.729 81.2273ZM197.796 81V70.0909H199.472V81H197.796ZM198.648 68.2727C198.321 68.2727 198.04 68.1615 197.803 67.9389C197.571 67.7164 197.455 67.4489 197.455 67.1364C197.455 66.8239 197.571 66.5563 197.803 66.3338C198.04 66.1113 198.321 66 198.648 66C198.975 66 199.254 66.1113 199.486 66.3338C199.723 66.5563 199.841 66.8239 199.841 67.1364C199.841 67.4489 199.723 67.7164 199.486 67.9389C199.254 68.1615 198.975 68.2727 198.648 68.2727ZM202.229 81V79.7216L208.423 71.767V71.6534H202.428V70.0909H210.582V71.4261L204.559 79.3239V79.4375H210.781V81H202.229Z" fill="white"/>
<defs>
<clipPath id="clip0_1_109">
<rect width="94" height="94" fill="white" transform="matrix(-1 0 0 1 94 0)"/>
</clipPath>
</defs>
</svg>
