<svg width="153" height="42" viewBox="0 0 153 42" fill="none" xmlns="http://www.w3.org/2000/svg">
<g clip-path="url(#clip0_1097_1937)">
<path d="M0 0H41V41H0V0Z" fill="#932826"/>
<path d="M6.40273 15.7951H15.7559V6.21655H25.2406V15.7951H34.5938V25.261H25.2406V34.7832H15.7559V25.261H6.40273V15.7951Z" fill="white"/>
<path d="M6.40273 15.7951H15.7559V6.21655H25.2406V15.7951H34.5938V25.261H25.2406V34.7832H15.7559V25.261H6.40273V15.7951Z" stroke="#932826" stroke-width="0.5" stroke-miterlimit="10"/>
</g>
<path d="M54.2102 10H51.6321V2.72727H54.2315C54.9631 2.72727 55.5928 2.87287 56.1207 3.16406C56.6487 3.45289 57.0547 3.86837 57.3388 4.41051C57.6252 4.95265 57.7685 5.60133 57.7685 6.35653C57.7685 7.11411 57.6252 7.76515 57.3388 8.30966C57.0547 8.85417 56.6463 9.27202 56.1136 9.56321C55.5833 9.8544 54.9489 10 54.2102 10ZM53.1697 8.68253H54.1463C54.6009 8.68253 54.9832 8.60204 55.2933 8.44105C55.6058 8.2777 55.8402 8.02557 55.9964 7.68466C56.1551 7.34138 56.2344 6.89867 56.2344 6.35653C56.2344 5.81913 56.1551 5.37997 55.9964 5.03906C55.8402 4.69815 55.607 4.44721 55.2969 4.28622C54.9867 4.12524 54.6044 4.04474 54.1499 4.04474H53.1697V8.68253ZM60.4345 10.103C60.0865 10.103 59.7763 10.0426 59.5041 9.92188C59.2318 9.79877 59.0164 9.61766 58.8578 9.37855C58.7015 9.13707 58.6234 8.83641 58.6234 8.47656C58.6234 8.17353 58.679 7.91903 58.7903 7.71307C58.9016 7.5071 59.0531 7.34138 59.2449 7.21591C59.4366 7.09044 59.6544 6.99574 59.8983 6.93182C60.1445 6.8679 60.4025 6.82292 60.6724 6.79688C60.9896 6.76373 61.2453 6.73295 61.4395 6.70455C61.6336 6.67377 61.7744 6.62879 61.862 6.5696C61.9496 6.51042 61.9934 6.42282 61.9934 6.30682V6.28551C61.9934 6.06061 61.9224 5.8866 61.7804 5.76349C61.6407 5.64039 61.4418 5.57884 61.1838 5.57884C60.9115 5.57884 60.6949 5.6392 60.5339 5.75994C60.3729 5.87831 60.2664 6.02746 60.2143 6.20739L58.8152 6.09375C58.8862 5.76231 59.0259 5.47585 59.2342 5.23438C59.4425 4.99053 59.7112 4.8035 60.0403 4.6733C60.3717 4.54072 60.7553 4.47443 61.1909 4.47443C61.4939 4.47443 61.7839 4.50994 62.0609 4.58097C62.3403 4.65199 62.5877 4.76207 62.8031 4.91122C63.0209 5.06037 63.1925 5.25213 63.318 5.48651C63.4435 5.71851 63.5062 5.99669 63.5062 6.32102V10H62.0716V9.24361H62.0289C61.9413 9.41406 61.8242 9.56439 61.6774 9.6946C61.5306 9.82244 61.3542 9.92306 61.1483 9.99645C60.9423 10.0675 60.7044 10.103 60.4345 10.103ZM60.8677 9.05895C61.0903 9.05895 61.2868 9.01515 61.4572 8.92756C61.6277 8.83759 61.7614 8.71686 61.8585 8.56534C61.9556 8.41383 62.0041 8.24219 62.0041 8.05043V7.47159C61.9567 7.50237 61.8916 7.53078 61.8088 7.55682C61.7283 7.58049 61.6371 7.60298 61.5353 7.62429C61.4335 7.64323 61.3317 7.66098 61.2299 7.67756C61.1281 7.69176 61.0358 7.70478 60.9529 7.71662C60.7754 7.74266 60.6203 7.78409 60.4877 7.84091C60.3552 7.89773 60.2522 7.97467 60.1788 8.07173C60.1054 8.16643 60.0687 8.2848 60.0687 8.42685C60.0687 8.63281 60.1433 8.79025 60.2924 8.89915C60.444 9.00568 60.6357 9.05895 60.8677 9.05895ZM69.2182 6.10085L67.8333 6.18608C67.8096 6.06771 67.7587 5.96117 67.6806 5.86648C67.6025 5.76941 67.4995 5.69247 67.3716 5.63565C67.2462 5.57647 67.0958 5.54688 66.9206 5.54688C66.6863 5.54688 66.4886 5.59659 66.3276 5.69602C66.1666 5.79309 66.0861 5.9233 66.0861 6.08665C66.0861 6.21686 66.1382 6.32694 66.2424 6.4169C66.3465 6.50687 66.5253 6.57907 66.7786 6.63352L67.7658 6.83239C68.2961 6.94129 68.6915 7.11648 68.9519 7.35795C69.2123 7.59943 69.3425 7.91667 69.3425 8.30966C69.3425 8.66714 69.2372 8.98082 69.0265 9.25071C68.8181 9.5206 68.5317 9.7313 68.1671 9.88281C67.8049 10.032 67.387 10.1065 66.9135 10.1065C66.1915 10.1065 65.6162 9.9562 65.1877 9.65554C64.7615 9.35251 64.5118 8.94058 64.4384 8.41974L65.9263 8.34162C65.9713 8.56179 66.0802 8.72988 66.253 8.84588C66.4258 8.95952 66.6472 9.01634 66.9171 9.01634C67.1822 9.01634 67.3953 8.96544 67.5563 8.86364C67.7196 8.75947 67.8025 8.62571 67.8049 8.46236C67.8025 8.32505 67.7445 8.21259 67.6309 8.125C67.5172 8.03504 67.342 7.96638 67.1053 7.91903L66.1607 7.73082C65.628 7.62429 65.2315 7.43963 64.9711 7.17685C64.713 6.91406 64.584 6.57907 64.584 6.17188C64.584 5.8215 64.6787 5.51965 64.8681 5.26634C65.0598 5.01302 65.3285 4.81771 65.6742 4.6804C66.0222 4.54309 66.4294 4.47443 66.8958 4.47443C67.5847 4.47443 68.1268 4.62003 68.5222 4.91122C68.9199 5.20241 69.1519 5.59896 69.2182 6.10085ZM77.1479 6.10085L75.763 6.18608C75.7393 6.06771 75.6884 5.96117 75.6103 5.86648C75.5321 5.76941 75.4292 5.69247 75.3013 5.63565C75.1758 5.57647 75.0255 5.54688 74.8503 5.54688C74.6159 5.54688 74.4183 5.59659 74.2573 5.69602C74.0963 5.79309 74.0158 5.9233 74.0158 6.08665C74.0158 6.21686 74.0679 6.32694 74.1721 6.4169C74.2762 6.50687 74.455 6.57907 74.7083 6.63352L75.6955 6.83239C76.2258 6.94129 76.6212 7.11648 76.8816 7.35795C77.142 7.59943 77.2722 7.91667 77.2722 8.30966C77.2722 8.66714 77.1668 8.98082 76.9561 9.25071C76.7478 9.5206 76.4614 9.7313 76.0968 9.88281C75.7346 10.032 75.3167 10.1065 74.8432 10.1065C74.1212 10.1065 73.5459 9.9562 73.1174 9.65554C72.6912 9.35251 72.4415 8.94058 72.3681 8.41974L73.856 8.34162C73.901 8.56179 74.0099 8.72988 74.1827 8.84588C74.3555 8.95952 74.5769 9.01634 74.8468 9.01634C75.1119 9.01634 75.325 8.96544 75.486 8.86364C75.6493 8.75947 75.7322 8.62571 75.7346 8.46236C75.7322 8.32505 75.6742 8.21259 75.5605 8.125C75.4469 8.03504 75.2717 7.96638 75.035 7.91903L74.0904 7.73082C73.5577 7.62429 73.1612 7.43963 72.9007 7.17685C72.6427 6.91406 72.5137 6.57907 72.5137 6.17188C72.5137 5.8215 72.6084 5.51965 72.7978 5.26634C72.9895 5.01302 73.2582 4.81771 73.6039 4.6804C73.9519 4.54309 74.3591 4.47443 74.8255 4.47443C75.5144 4.47443 76.0565 4.62003 76.4519 4.91122C76.8496 5.20241 77.0816 5.59896 77.1479 6.10085ZM78.2248 10V4.54545H79.7376V10H78.2248ZM78.9847 3.84233C78.7598 3.84233 78.5669 3.76776 78.4059 3.61861C78.2473 3.46709 78.168 3.28598 78.168 3.07528C78.168 2.86695 78.2473 2.68821 78.4059 2.53906C78.5669 2.38755 78.7598 2.31179 78.9847 2.31179C79.2096 2.31179 79.4014 2.38755 79.56 2.53906C79.721 2.68821 79.8015 2.86695 79.8015 3.07528C79.8015 3.28598 79.721 3.46709 79.56 3.61861C79.4014 3.76776 79.2096 3.84233 78.9847 3.84233ZM83.4139 10.1065C82.8552 10.1065 82.3746 9.98816 81.9721 9.75142C81.572 9.51231 81.2643 9.18087 81.0488 8.7571C80.8358 8.33333 80.7292 7.84564 80.7292 7.29403C80.7292 6.73532 80.8369 6.24527 81.0524 5.82386C81.2702 5.40009 81.5791 5.06984 81.9792 4.8331C82.3793 4.59399 82.8552 4.47443 83.4068 4.47443C83.8826 4.47443 84.2993 4.56084 84.6568 4.73366C85.0143 4.90649 85.2972 5.14915 85.5055 5.46165C85.7138 5.77415 85.8287 6.1411 85.85 6.5625H84.4224C84.3822 6.29025 84.2756 6.07126 84.1028 5.90554C83.9324 5.73745 83.7086 5.65341 83.4316 5.65341C83.1973 5.65341 82.9925 5.71733 82.8173 5.84517C82.6445 5.97064 82.5095 6.15412 82.4125 6.3956C82.3154 6.63707 82.2669 6.92945 82.2669 7.27273C82.2669 7.62074 82.3142 7.91667 82.4089 8.16051C82.506 8.40436 82.6421 8.5902 82.8173 8.71804C82.9925 8.84588 83.1973 8.9098 83.4316 8.9098C83.6045 8.9098 83.7595 8.87429 83.8968 8.80327C84.0365 8.73224 84.1513 8.62926 84.2413 8.49432C84.3336 8.35701 84.394 8.19247 84.4224 8.00071H85.85C85.8263 8.41738 85.7127 8.78433 85.5091 9.10156C85.3078 9.41643 85.0297 9.66264 84.6745 9.8402C84.3194 10.0178 83.8992 10.1065 83.4139 10.1065ZM88.3313 6.84659V10H86.8185V2.72727H88.2887V5.50781H88.3526C88.4757 5.18584 88.6746 4.93371 88.9492 4.75142C89.2238 4.56676 89.5683 4.47443 89.9826 4.47443C90.3614 4.47443 90.6916 4.55729 90.9734 4.72301C91.2575 4.88636 91.4776 5.12192 91.6339 5.42969C91.7925 5.73509 91.8706 6.10085 91.8683 6.52699V10H90.3555V6.79688C90.3578 6.4607 90.2726 6.1991 90.0998 6.01207C89.9293 5.82505 89.6902 5.73153 89.3825 5.73153C89.1765 5.73153 88.9942 5.77533 88.8356 5.86293C88.6793 5.95052 88.5562 6.07836 88.4663 6.24645C88.3787 6.41217 88.3337 6.61222 88.3313 6.84659ZM95.5446 10.1065C94.9835 10.1065 94.5005 9.9929 94.0957 9.76562C93.6932 9.53598 93.3831 9.21165 93.1653 8.79261C92.9475 8.37121 92.8386 7.87287 92.8386 7.29759C92.8386 6.73651 92.9475 6.24408 93.1653 5.82031C93.3831 5.39654 93.6897 5.06629 94.085 4.82955C94.4828 4.5928 94.9492 4.47443 95.4842 4.47443C95.844 4.47443 96.179 4.53243 96.4892 4.64844C96.8017 4.76207 97.0739 4.93371 97.3059 5.16335C97.5403 5.39299 97.7226 5.68182 97.8528 6.02983C97.983 6.37547 98.0481 6.7803 98.0481 7.24432V7.6598H93.4423V6.7223H96.6241C96.6241 6.5045 96.5768 6.31155 96.4821 6.14347C96.3874 5.97538 96.256 5.84399 96.0879 5.74929C95.9222 5.65223 95.7292 5.60369 95.5091 5.60369C95.2794 5.60369 95.0758 5.65696 94.8983 5.76349C94.7231 5.86766 94.5858 6.00852 94.4863 6.18608C94.3869 6.36127 94.336 6.55658 94.3336 6.77202V7.66335C94.3336 7.93324 94.3833 8.16643 94.4828 8.36293C94.5846 8.55942 94.7278 8.71094 94.9125 8.81747C95.0971 8.92401 95.3161 8.97727 95.5694 8.97727C95.7375 8.97727 95.8914 8.9536 96.0311 8.90625C96.1708 8.8589 96.2903 8.78788 96.3897 8.69318C96.4892 8.59848 96.5649 8.48248 96.617 8.34517L98.0162 8.4375C97.9451 8.77367 97.7995 9.06723 97.5794 9.31818C97.3616 9.56676 97.0798 9.76089 96.7342 9.90057C96.3909 10.0379 95.9944 10.1065 95.5446 10.1065ZM99.0353 10V4.54545H100.502V5.49716H100.559C100.658 5.15862 100.825 4.90294 101.059 4.73011C101.294 4.55492 101.564 4.46733 101.869 4.46733C101.945 4.46733 102.027 4.47206 102.114 4.48153C102.202 4.491 102.279 4.50402 102.345 4.5206V5.86293C102.274 5.84162 102.176 5.82268 102.05 5.80611C101.925 5.78954 101.81 5.78125 101.706 5.78125C101.483 5.78125 101.284 5.82978 101.109 5.92685C100.936 6.02154 100.799 6.15412 100.697 6.32457C100.598 6.49503 100.548 6.69152 100.548 6.91406V10H99.0353ZM107.665 6.10085L106.281 6.18608C106.257 6.06771 106.206 5.96117 106.128 5.86648C106.05 5.76941 105.947 5.69247 105.819 5.63565C105.693 5.57647 105.543 5.54688 105.368 5.54688C105.134 5.54688 104.936 5.59659 104.775 5.69602C104.614 5.79309 104.533 5.9233 104.533 6.08665C104.533 6.21686 104.585 6.32694 104.69 6.4169C104.794 6.50687 104.973 6.57907 105.226 6.63352L106.213 6.83239C106.743 6.94129 107.139 7.11648 107.399 7.35795C107.66 7.59943 107.79 7.91667 107.79 8.30966C107.79 8.66714 107.684 8.98082 107.474 9.25071C107.265 9.5206 106.979 9.7313 106.614 9.88281C106.252 10.032 105.834 10.1065 105.361 10.1065C104.639 10.1065 104.063 9.9562 103.635 9.65554C103.209 9.35251 102.959 8.94058 102.886 8.41974L104.374 8.34162C104.419 8.56179 104.527 8.72988 104.7 8.84588C104.873 8.95952 105.094 9.01634 105.364 9.01634C105.629 9.01634 105.843 8.96544 106.004 8.86364C106.167 8.75947 106.25 8.62571 106.252 8.46236C106.25 8.32505 106.192 8.21259 106.078 8.125C105.964 8.03504 105.789 7.96638 105.553 7.91903L104.608 7.73082C104.075 7.62429 103.679 7.43963 103.418 7.17685C103.16 6.91406 103.031 6.57907 103.031 6.17188C103.031 5.8215 103.126 5.51965 103.315 5.26634C103.507 5.01302 103.776 4.81771 104.121 4.6804C104.469 4.54309 104.877 4.47443 105.343 4.47443C106.032 4.47443 106.574 4.62003 106.969 4.91122C107.367 5.20241 107.599 5.59896 107.665 6.10085ZM111.644 4.54545V5.68182H108.359V4.54545H111.644ZM109.105 3.23864H110.617V8.32386C110.617 8.46354 110.639 8.57244 110.681 8.65057C110.724 8.72633 110.783 8.77959 110.859 8.81037C110.937 8.84115 111.027 8.85653 111.129 8.85653C111.2 8.85653 111.271 8.85062 111.342 8.83878C111.413 8.82457 111.467 8.81392 111.505 8.80682L111.743 9.93253C111.667 9.9562 111.561 9.98343 111.423 10.0142C111.286 10.0473 111.119 10.0675 110.923 10.0746C110.558 10.0888 110.239 10.0402 109.964 9.92898C109.692 9.81771 109.48 9.64489 109.328 9.41051C109.177 9.17614 109.102 8.88021 109.105 8.52273V3.23864ZM115.056 10.1065C114.495 10.1065 114.012 9.9929 113.607 9.76562C113.205 9.53598 112.895 9.21165 112.677 8.79261C112.459 8.37121 112.35 7.87287 112.35 7.29759C112.35 6.73651 112.459 6.24408 112.677 5.82031C112.895 5.39654 113.201 5.06629 113.597 4.82955C113.994 4.5928 114.461 4.47443 114.996 4.47443C115.356 4.47443 115.691 4.53243 116.001 4.64844C116.313 4.76207 116.586 4.93371 116.818 5.16335C117.052 5.39299 117.234 5.68182 117.365 6.02983C117.495 6.37547 117.56 6.7803 117.56 7.24432V7.6598H112.954V6.7223H116.136C116.136 6.5045 116.088 6.31155 115.994 6.14347C115.899 5.97538 115.768 5.84399 115.6 5.74929C115.434 5.65223 115.241 5.60369 115.021 5.60369C114.791 5.60369 114.588 5.65696 114.41 5.76349C114.235 5.86766 114.097 6.00852 113.998 6.18608C113.899 6.36127 113.848 6.55658 113.845 6.77202V7.66335C113.845 7.93324 113.895 8.16643 113.994 8.36293C114.096 8.55942 114.24 8.71094 114.424 8.81747C114.609 8.92401 114.828 8.97727 115.081 8.97727C115.249 8.97727 115.403 8.9536 115.543 8.90625C115.682 8.8589 115.802 8.78788 115.901 8.69318C116.001 8.59848 116.077 8.48248 116.129 8.34517L117.528 8.4375C117.457 8.77367 117.311 9.06723 117.091 9.31818C116.873 9.56676 116.592 9.76089 116.246 9.90057C115.903 10.0379 115.506 10.1065 115.056 10.1065ZM120.89 10V2.72727H122.428V8.73224H125.545V10H120.89ZM128.091 10.103C127.743 10.103 127.433 10.0426 127.16 9.92188C126.888 9.79877 126.673 9.61766 126.514 9.37855C126.358 9.13707 126.28 8.83641 126.28 8.47656C126.28 8.17353 126.335 7.91903 126.447 7.71307C126.558 7.5071 126.709 7.34138 126.901 7.21591C127.093 7.09044 127.311 6.99574 127.555 6.93182C127.801 6.8679 128.059 6.82292 128.329 6.79688C128.646 6.76373 128.902 6.73295 129.096 6.70455C129.29 6.67377 129.431 6.62879 129.518 6.5696C129.606 6.51042 129.65 6.42282 129.65 6.30682V6.28551C129.65 6.06061 129.579 5.8866 129.437 5.76349C129.297 5.64039 129.098 5.57884 128.84 5.57884C128.568 5.57884 128.351 5.6392 128.19 5.75994C128.029 5.87831 127.923 6.02746 127.871 6.20739L126.471 6.09375C126.542 5.76231 126.682 5.47585 126.89 5.23438C127.099 4.99053 127.367 4.8035 127.697 4.6733C128.028 4.54072 128.412 4.47443 128.847 4.47443C129.15 4.47443 129.44 4.50994 129.717 4.58097C129.997 4.65199 130.244 4.76207 130.459 4.91122C130.677 5.06037 130.849 5.25213 130.974 5.48651C131.1 5.71851 131.162 5.99669 131.162 6.32102V10H129.728V9.24361H129.685C129.598 9.41406 129.48 9.56439 129.334 9.6946C129.187 9.82244 129.01 9.92306 128.805 9.99645C128.599 10.0675 128.361 10.103 128.091 10.103ZM128.524 9.05895C128.747 9.05895 128.943 9.01515 129.113 8.92756C129.284 8.83759 129.418 8.71686 129.515 8.56534C129.612 8.41383 129.66 8.24219 129.66 8.05043V7.47159C129.613 7.50237 129.548 7.53078 129.465 7.55682C129.385 7.58049 129.293 7.60298 129.192 7.62429C129.09 7.64323 128.988 7.66098 128.886 7.67756C128.784 7.69176 128.692 7.70478 128.609 7.71662C128.432 7.74266 128.277 7.78409 128.144 7.84091C128.011 7.89773 127.908 7.97467 127.835 8.07173C127.762 8.16643 127.725 8.2848 127.725 8.42685C127.725 8.63281 127.8 8.79025 127.949 8.89915C128.1 9.00568 128.292 9.05895 128.524 9.05895ZM133.849 6.84659V10H132.336V4.54545H133.778V5.50781H133.842C133.963 5.19058 134.165 4.93963 134.449 4.75497C134.733 4.56795 135.078 4.47443 135.482 4.47443C135.861 4.47443 136.191 4.55729 136.473 4.72301C136.755 4.88873 136.974 5.12547 137.13 5.43324C137.286 5.73864 137.365 6.10322 137.365 6.52699V10H135.852V6.79688C135.854 6.46307 135.769 6.20265 135.596 6.01562C135.423 5.82623 135.185 5.73153 134.882 5.73153C134.679 5.73153 134.499 5.77533 134.343 5.86293C134.189 5.95052 134.068 6.07836 133.98 6.24645C133.895 6.41217 133.851 6.61222 133.849 6.84659ZM140.567 10.0888C140.152 10.0888 139.777 9.98224 139.441 9.76918C139.107 9.55374 138.842 9.23769 138.646 8.82102C138.451 8.40199 138.354 7.88826 138.354 7.27983C138.354 6.65483 138.455 6.13518 138.656 5.72088C138.857 5.30421 139.125 4.9929 139.459 4.78693C139.795 4.5786 140.163 4.47443 140.563 4.47443C140.869 4.47443 141.123 4.52652 141.327 4.63068C141.533 4.73248 141.698 4.86032 141.824 5.0142C141.952 5.16572 142.049 5.31487 142.115 5.46165H142.161V2.72727H143.67V10H142.179V9.12642H142.115C142.044 9.27794 141.943 9.42827 141.813 9.57741C141.685 9.7242 141.518 9.84612 141.312 9.94318C141.109 10.0402 140.86 10.0888 140.567 10.0888ZM141.046 8.88494C141.29 8.88494 141.496 8.81866 141.664 8.68608C141.835 8.55114 141.965 8.36293 142.055 8.12145C142.147 7.87997 142.193 7.59706 142.193 7.27273C142.193 6.94839 142.148 6.66667 142.058 6.42756C141.968 6.18845 141.838 6.00379 141.668 5.87358C141.497 5.74337 141.29 5.67827 141.046 5.67827C140.798 5.67827 140.588 5.74574 140.418 5.88068C140.247 6.01562 140.118 6.20265 140.031 6.44176C139.943 6.68087 139.899 6.95786 139.899 7.27273C139.899 7.58996 139.943 7.8705 140.031 8.11435C140.121 8.35582 140.25 8.54522 140.418 8.68253C140.588 8.81747 140.798 8.88494 141.046 8.88494ZM51.5753 22V21.098L54.2457 17.7919V17.7528H51.6676V16.5455H56.0675V17.5291L53.5604 20.7536V20.7926H56.1598V22H51.5753ZM60.8145 19.6776V16.5455H62.3272V22H60.8748V21.0092H60.818C60.6949 21.3288 60.4901 21.5857 60.2037 21.7798C59.9196 21.974 59.5727 22.071 59.1632 22.071C58.7986 22.071 58.4778 21.9882 58.2008 21.8224C57.9238 21.6567 57.7072 21.4212 57.551 21.1158C57.3971 20.8104 57.319 20.4446 57.3166 20.0185V16.5455H58.8294V19.7486C58.8317 20.0705 58.9181 20.325 59.0886 20.5121C59.2591 20.6991 59.4875 20.7926 59.774 20.7926C59.9563 20.7926 60.1267 20.7512 60.2853 20.6683C60.444 20.5831 60.5718 20.4576 60.6689 20.2919C60.7683 20.1262 60.8168 19.9214 60.8145 19.6776ZM63.5373 22V16.5455H64.979V17.5078H65.043C65.1566 17.1882 65.346 16.9361 65.6112 16.7514C65.8763 16.5668 66.1935 16.4744 66.5629 16.4744C66.9369 16.4744 67.2553 16.5679 67.5181 16.755C67.7809 16.9396 67.9561 17.1906 68.0437 17.5078H68.1005C68.2118 17.1953 68.413 16.9455 68.7042 16.7585C68.9978 16.5691 69.3446 16.4744 69.7447 16.4744C70.2537 16.4744 70.6668 16.6366 70.984 16.9609C71.3036 17.2829 71.4634 17.7398 71.4634 18.3317V22H69.9542V18.63C69.9542 18.3269 69.8737 18.0997 69.7127 17.9482C69.5517 17.7966 69.3505 17.7209 69.109 17.7209C68.8344 17.7209 68.6201 17.8085 68.4663 17.9837C68.3124 18.1565 68.2354 18.3849 68.2354 18.669V22H66.7688V18.598C66.7688 18.3305 66.6919 18.1174 66.538 17.9588C66.3865 17.8002 66.1864 17.7209 65.9379 17.7209C65.7698 17.7209 65.6183 17.7635 65.4833 17.8487C65.3507 17.9316 65.2454 18.0488 65.1673 18.2003C65.0891 18.3494 65.0501 18.5246 65.0501 18.7259V22H63.5373ZM75.0012 22V14.7273H76.5389V20.7322H79.6568V22H75.0012ZM82.2021 22.103C81.854 22.103 81.5439 22.0426 81.2717 21.9219C80.9994 21.7988 80.784 21.6177 80.6254 21.3786C80.4691 21.1371 80.391 20.8364 80.391 20.4766C80.391 20.1735 80.4466 19.919 80.5579 19.7131C80.6692 19.5071 80.8207 19.3414 81.0124 19.2159C81.2042 19.0904 81.422 18.9957 81.6658 18.9318C81.9121 18.8679 82.1701 18.8229 82.44 18.7969C82.7572 18.7637 83.0129 18.733 83.207 18.7045C83.4012 18.6738 83.542 18.6288 83.6296 18.5696C83.7172 18.5104 83.761 18.4228 83.761 18.3068V18.2855C83.761 18.0606 83.69 17.8866 83.5479 17.7635C83.4083 17.6404 83.2094 17.5788 82.9513 17.5788C82.6791 17.5788 82.4625 17.6392 82.3015 17.7599C82.1405 17.8783 82.034 18.0275 81.9819 18.2074L80.5827 18.0938C80.6538 17.7623 80.7934 17.4759 81.0018 17.2344C81.2101 16.9905 81.4788 16.8035 81.8079 16.6733C82.1393 16.5407 82.5228 16.4744 82.9585 16.4744C83.2615 16.4744 83.5515 16.5099 83.8285 16.581C84.1078 16.652 84.3552 16.7621 84.5707 16.9112C84.7885 17.0604 84.9601 17.2521 85.0856 17.4865C85.2111 17.7185 85.2738 17.9967 85.2738 18.321V22H83.8391V21.2436H83.7965C83.7089 21.4141 83.5917 21.5644 83.445 21.6946C83.2982 21.8224 83.1218 21.9231 82.9158 21.9964C82.7099 22.0675 82.4719 22.103 82.2021 22.103ZM82.6353 21.0589C82.8578 21.0589 83.0543 21.0152 83.2248 20.9276C83.3952 20.8376 83.529 20.7169 83.6261 20.5653C83.7231 20.4138 83.7717 20.2422 83.7717 20.0504V19.4716C83.7243 19.5024 83.6592 19.5308 83.5763 19.5568C83.4959 19.5805 83.4047 19.603 83.3029 19.6243C83.2011 19.6432 83.0993 19.661 82.9975 19.6776C82.8957 19.6918 82.8034 19.7048 82.7205 19.7166C82.543 19.7427 82.3879 19.7841 82.2553 19.8409C82.1228 19.8977 82.0198 19.9747 81.9464 20.0717C81.873 20.1664 81.8363 20.2848 81.8363 20.4268C81.8363 20.6328 81.9109 20.7902 82.06 20.8991C82.2115 21.0057 82.4033 21.0589 82.6353 21.0589ZM88.9048 24.1591C88.4148 24.1591 87.9946 24.0916 87.6442 23.9567C87.2962 23.8241 87.0192 23.643 86.8132 23.4134C86.6072 23.1837 86.4735 22.9257 86.4119 22.6392L87.8111 22.451C87.8537 22.5599 87.9212 22.6617 88.0135 22.7564C88.1058 22.8511 88.2277 22.9268 88.3793 22.9837C88.5331 23.0429 88.7202 23.0724 88.9403 23.0724C89.2694 23.0724 89.5405 22.992 89.7536 22.831C89.969 22.6723 90.0767 22.406 90.0767 22.032V21.0341H90.0128C89.9465 21.1856 89.8471 21.3288 89.7145 21.4638C89.5819 21.5987 89.4115 21.7088 89.2031 21.794C88.9948 21.8793 88.7462 21.9219 88.4574 21.9219C88.0478 21.9219 87.675 21.8272 87.3388 21.6378C87.005 21.446 86.7386 21.1536 86.5398 20.7607C86.3433 20.3653 86.245 19.8658 86.245 19.2621C86.245 18.6442 86.3456 18.1281 86.5469 17.7138C86.7481 17.2995 87.0156 16.9893 87.3494 16.7834C87.6856 16.5774 88.0537 16.4744 88.4538 16.4744C88.7592 16.4744 89.0149 16.5265 89.2209 16.6307C89.4268 16.7325 89.5926 16.8603 89.718 17.0142C89.8459 17.1657 89.9441 17.3149 90.0128 17.4616H90.0696V16.5455H91.5717V22.0533C91.5717 22.5173 91.4581 22.9055 91.2308 23.218C91.0036 23.5305 90.6887 23.7649 90.2862 23.9212C89.8861 24.0798 89.4257 24.1591 88.9048 24.1591ZM88.9368 20.7855C89.1806 20.7855 89.3866 20.7251 89.5547 20.6044C89.7251 20.4813 89.8554 20.3061 89.9453 20.0788C90.0376 19.8492 90.0838 19.5746 90.0838 19.255C90.0838 18.9354 90.0388 18.6584 89.9489 18.424C89.8589 18.1873 89.7287 18.0038 89.5582 17.8736C89.3878 17.7434 89.1806 17.6783 88.9368 17.6783C88.6882 17.6783 88.4787 17.7457 88.3082 17.8807C88.1378 18.0133 88.0088 18.1979 87.9212 18.4347C87.8336 18.6714 87.7898 18.9448 87.7898 19.255C87.7898 19.5698 87.8336 19.8421 87.9212 20.0717C88.0111 20.299 88.1402 20.4754 88.3082 20.6009C88.4787 20.724 88.6882 20.7855 88.9368 20.7855ZM95.2614 22.1065C94.7003 22.1065 94.2173 21.9929 93.8125 21.7656C93.41 21.536 93.0999 21.2116 92.8821 20.7926C92.6643 20.3712 92.5554 19.8729 92.5554 19.2976C92.5554 18.7365 92.6643 18.2441 92.8821 17.8203C93.0999 17.3965 93.4065 17.0663 93.8018 16.8295C94.1996 16.5928 94.666 16.4744 95.201 16.4744C95.5608 16.4744 95.8958 16.5324 96.206 16.6484C96.5185 16.7621 96.7907 16.9337 97.0227 17.1634C97.2571 17.393 97.4394 17.6818 97.5696 18.0298C97.6998 18.3755 97.7649 18.7803 97.7649 19.2443V19.6598H93.1591V18.7223H96.3409C96.3409 18.5045 96.2936 18.3116 96.1989 18.1435C96.1042 17.9754 95.9728 17.844 95.8047 17.7493C95.639 17.6522 95.446 17.6037 95.2259 17.6037C94.9962 17.6037 94.7926 17.657 94.6151 17.7635C94.4399 17.8677 94.3026 18.0085 94.2031 18.1861C94.1037 18.3613 94.0528 18.5566 94.0504 18.772V19.6634C94.0504 19.9332 94.1001 20.1664 94.1996 20.3629C94.3014 20.5594 94.4446 20.7109 94.6293 20.8175C94.8139 20.924 95.0329 20.9773 95.2862 20.9773C95.4543 20.9773 95.6082 20.9536 95.7479 20.9062C95.8875 20.8589 96.0071 20.7879 96.1065 20.6932C96.206 20.5985 96.2817 20.4825 96.3338 20.3452L97.733 20.4375C97.6619 20.7737 97.5163 21.0672 97.2962 21.3182C97.0784 21.5668 96.7966 21.7609 96.451 21.9006C96.1077 22.0379 95.7112 22.1065 95.2614 22.1065ZM98.7521 22V16.5455H100.219V17.4972H100.276C100.375 17.1586 100.542 16.9029 100.776 16.7301C101.011 16.5549 101.281 16.4673 101.586 16.4673C101.662 16.4673 101.743 16.4721 101.831 16.4815C101.919 16.491 101.996 16.504 102.062 16.5206V17.8629C101.991 17.8416 101.893 17.8227 101.767 17.8061C101.642 17.7895 101.527 17.7812 101.423 17.7812C101.2 17.7812 101.001 17.8298 100.826 17.9268C100.653 18.0215 100.516 18.1541 100.414 18.3246C100.315 18.495 100.265 18.6915 100.265 18.9141V22H98.7521ZM104.357 18.8466V22H102.844V16.5455H104.286V17.5078H104.35C104.47 17.1906 104.673 16.9396 104.957 16.755C105.241 16.5679 105.585 16.4744 105.99 16.4744C106.369 16.4744 106.699 16.5573 106.981 16.723C107.263 16.8887 107.482 17.1255 107.638 17.4332C107.794 17.7386 107.872 18.1032 107.872 18.527V22H106.36V18.7969C106.362 18.4631 106.277 18.2027 106.104 18.0156C105.931 17.8262 105.693 17.7315 105.39 17.7315C105.186 17.7315 105.007 17.7753 104.85 17.8629C104.696 17.9505 104.576 18.0784 104.488 18.2464C104.403 18.4122 104.359 18.6122 104.357 18.8466Z" fill="white"/>
<path d="M56.3438 34C56.2969 33.6042 56.1068 33.2969 55.7734 33.0781C55.4401 32.8594 55.0313 32.75 54.5469 32.75C54.1927 32.75 53.8828 32.8073 53.6172 32.9219C53.3542 33.0365 53.1484 33.194 53 33.3945C52.8542 33.5951 52.7813 33.8229 52.7813 34.0781C52.7813 34.2917 52.832 34.4753 52.9336 34.6289C53.0378 34.7799 53.1706 34.9062 53.332 35.0078C53.4935 35.1068 53.6628 35.1888 53.8398 35.2539C54.0169 35.3164 54.1797 35.3672 54.3281 35.4062L55.1406 35.625C55.349 35.6797 55.5807 35.7552 55.8359 35.8516C56.0938 35.9479 56.3398 36.0794 56.5742 36.2461C56.8112 36.4102 57.0065 36.6211 57.1602 36.8789C57.3138 37.1367 57.3906 37.4531 57.3906 37.8281C57.3906 38.2604 57.2773 38.651 57.0508 39C56.8268 39.349 56.4987 39.6263 56.0664 39.832C55.6367 40.0378 55.1146 40.1406 54.5 40.1406C53.9271 40.1406 53.431 40.0482 53.0117 39.8633C52.5951 39.6784 52.2669 39.4206 52.0273 39.0898C51.7904 38.7591 51.6563 38.375 51.625 37.9375H52.625C52.651 38.2396 52.7526 38.4896 52.9297 38.6875C53.1094 38.8828 53.3359 39.0286 53.6094 39.125C53.8854 39.2187 54.1823 39.2656 54.5 39.2656C54.8698 39.2656 55.2018 39.2057 55.4961 39.0859C55.7904 38.9635 56.0234 38.7943 56.1953 38.5781C56.3672 38.3594 56.4531 38.1042 56.4531 37.8125C56.4531 37.5469 56.3789 37.3307 56.2305 37.1641C56.082 36.9974 55.8867 36.862 55.6445 36.7578C55.4023 36.6536 55.1406 36.5625 54.8594 36.4844L53.875 36.2031C53.25 36.0234 52.7552 35.7669 52.3906 35.4336C52.026 35.1003 51.8438 34.6641 51.8438 34.125C51.8438 33.6771 51.9648 33.2865 52.207 32.9531C52.4518 32.6172 52.7799 32.3568 53.1914 32.1719C53.6055 31.9844 54.0677 31.8906 54.5781 31.8906C55.0938 31.8906 55.5521 31.9831 55.9531 32.168C56.3542 32.3503 56.6719 32.6003 56.9062 32.918C57.1432 33.2357 57.2682 33.5964 57.2813 34H56.3438ZM61.2959 40.125C60.7334 40.125 60.249 39.9922 59.8428 39.7266C59.4365 39.4609 59.124 39.0951 58.9053 38.6289C58.6865 38.1628 58.5771 37.6302 58.5771 37.0312C58.5771 36.4219 58.6891 35.8841 58.9131 35.418C59.1396 34.9492 59.4548 34.5833 59.8584 34.3203C60.2646 34.0547 60.7386 33.9219 61.2803 33.9219C61.7021 33.9219 62.0824 34 62.4209 34.1562C62.7594 34.3125 63.0368 34.5312 63.2529 34.8125C63.4691 35.0937 63.6032 35.4219 63.6553 35.7969H62.7334C62.6631 35.5234 62.5068 35.2812 62.2646 35.0703C62.0251 34.8568 61.7021 34.75 61.2959 34.75C60.9365 34.75 60.6214 34.8437 60.3506 35.0312C60.0824 35.2161 59.8727 35.4779 59.7217 35.8164C59.5732 36.1523 59.499 36.5469 59.499 37C59.499 37.4635 59.5719 37.8672 59.7178 38.2109C59.8662 38.5547 60.0745 38.8216 60.3428 39.0117C60.6136 39.2018 60.9313 39.2969 61.2959 39.2969C61.5355 39.2969 61.7529 39.2552 61.9482 39.1719C62.1436 39.0885 62.3089 38.9688 62.4443 38.8125C62.5798 38.6562 62.6761 38.4687 62.7334 38.25H63.6553C63.6032 38.6042 63.4743 38.9232 63.2686 39.207C63.0654 39.4883 62.7959 39.7122 62.46 39.8789C62.1266 40.043 61.7386 40.125 61.2959 40.125ZM65.9248 36.3906V40H65.0029V32H65.9248V34.9375H66.0029C66.1436 34.6276 66.3545 34.3815 66.6357 34.1992C66.9196 34.0143 67.2972 33.9219 67.7686 33.9219C68.1774 33.9219 68.5355 34.0039 68.8428 34.168C69.1501 34.3294 69.3883 34.5781 69.5576 34.9141C69.7295 35.2474 69.8154 35.6719 69.8154 36.1875V40H68.8936V36.25C68.8936 35.7734 68.7699 35.4049 68.5225 35.1445C68.2777 34.8815 67.9378 34.75 67.5029 34.75C67.2008 34.75 66.93 34.8138 66.6904 34.9414C66.4535 35.069 66.266 35.2552 66.1279 35.5C65.9925 35.7448 65.9248 36.0417 65.9248 36.3906ZM72.8613 40L71.0332 34H72.002L73.2988 38.5938H73.3613L74.6426 34H75.627L76.8926 38.5781H76.9551L78.252 34H79.2207L77.3926 40H76.4863L75.1738 35.3906H75.0801L73.7676 40H72.8613ZM82.751 40.125C82.1729 40.125 81.6742 39.9974 81.2549 39.7422C80.8382 39.4844 80.5166 39.125 80.29 38.6641C80.0661 38.2005 79.9541 37.6615 79.9541 37.0469C79.9541 36.4323 80.0661 35.8906 80.29 35.4219C80.5166 34.9505 80.8317 34.5833 81.2354 34.3203C81.6416 34.0547 82.1156 33.9219 82.6572 33.9219C82.9697 33.9219 83.2783 33.974 83.583 34.0781C83.8877 34.1823 84.165 34.3516 84.415 34.5859C84.665 34.8177 84.8643 35.125 85.0127 35.5078C85.1611 35.8906 85.2354 36.362 85.2354 36.9219V37.3125H80.6104V36.5156H84.2979C84.2979 36.1771 84.2301 35.875 84.0947 35.6094C83.9619 35.3437 83.7718 35.1341 83.5244 34.9805C83.2796 34.8268 82.9906 34.75 82.6572 34.75C82.29 34.75 81.9723 34.8411 81.7041 35.0234C81.4385 35.2031 81.234 35.4375 81.0908 35.7266C80.9476 36.0156 80.876 36.3255 80.876 36.6562V37.1875C80.876 37.6406 80.9541 38.0247 81.1104 38.3398C81.2692 38.6523 81.4893 38.8906 81.7705 39.0547C82.0518 39.2161 82.3786 39.2969 82.751 39.2969C82.9932 39.2969 83.2119 39.263 83.4072 39.1953C83.6051 39.125 83.7757 39.0208 83.9189 38.8828C84.0622 38.7422 84.1729 38.5677 84.251 38.3594L85.1416 38.6094C85.0479 38.9115 84.8903 39.1771 84.6689 39.4062C84.4476 39.6328 84.1742 39.8099 83.8486 39.9375C83.5231 40.0625 83.1572 40.125 82.751 40.125ZM86.6377 40V34H87.5596V40H86.6377ZM87.1064 33C86.9268 33 86.7718 32.9388 86.6416 32.8164C86.514 32.694 86.4502 32.5469 86.4502 32.375C86.4502 32.2031 86.514 32.056 86.6416 31.9336C86.7718 31.8112 86.9268 31.75 87.1064 31.75C87.2861 31.75 87.4398 31.8112 87.5674 31.9336C87.6976 32.056 87.7627 32.2031 87.7627 32.375C87.7627 32.5469 87.6976 32.694 87.5674 32.8164C87.4398 32.9388 87.2861 33 87.1064 33ZM89.0762 40V39.2969L92.4824 34.9219V34.8594H89.1855V34H93.6699V34.7344L90.3574 39.0781V39.1406H93.7793V40H89.0762Z" fill="white"/>
<defs>
<clipPath id="clip0_1097_1937">
<rect width="41" height="41" fill="white" transform="matrix(-1 0 0 1 41 0)"/>
</clipPath>
</defs>
</svg>
