<svg width="116" height="72" viewBox="0 0 116 72" fill="none" xmlns="http://www.w3.org/2000/svg">
<path d="M78.7332 71.6475C78.7442 67.1892 78.7422 62.0499 78.7332 57.5917H80.9066C82.6859 59.8434 87.5544 65.9906 87.758 66.2384C87.758 63.43 87.77 60.2606 87.746 57.5917H90.4239C90.4119 62.0329 90.4149 67.2063 90.4239 71.6475H88.75C86.6617 68.9595 81.5506 62.3518 81.4051 62.1713C81.3931 62.4421 81.4051 62.6878 81.4051 62.8583C81.4051 65.6296 81.3941 68.8762 81.4142 71.6475H78.7332Z" fill="#020202"/>
<path d="M8.92266 60.5478C8.84543 60.4876 8.77221 60.4275 8.68897 60.3562C7.43022 59.259 5.87059 59.1888 4.30293 59.7314C4.11618 59.8043 3.94192 59.9058 3.7864 60.0323C2.81852 60.7614 2.94891 62.0232 4.04617 62.5257C4.73722 62.8416 5.48344 62.9349 6.22865 63.0272C7.18851 63.1495 8.14334 63.297 9.06007 63.6219C10.9266 64.2829 11.8634 65.4785 11.9005 67.2457C11.9426 69.2898 11.042 70.693 9.20851 71.4332C8.15638 71.8584 7.05511 71.9998 5.92876 71.9998C4.44435 71.9738 3.00307 71.7782 1.73229 70.9206C0.952973 70.3951 0.404343 69.6769 0.00315033 68.8354V68.8284C-0.0971478 68.6158 2.23077 67.6248 2.23278 67.6248C3.09434 69.1995 4.56972 69.5907 6.20659 69.6037C6.8426 69.6192 7.47406 69.4928 8.05508 69.2336C8.79528 68.8906 9.26668 68.356 9.25866 67.5005C9.25264 66.683 8.74012 66.2397 8.05508 65.9348C7.12532 65.5186 6.1113 65.4985 5.12838 65.333C4.24175 65.1936 3.36615 64.999 2.55273 64.5918C-0.0159063 63.308 -0.263643 59.7715 2.11844 58.1637C3.63494 57.1407 5.34904 56.9792 7.1173 57.1698C8.47333 57.3132 9.71803 57.7365 10.6919 58.7605C10.8484 58.924 10.9798 59.0614 11.0851 59.1828L8.92266 60.5478Z" fill="#020202"/>
<path d="M67.5795 57.5918C67.5604 59.0281 67.5714 60.8896 67.5714 62.3259H67.5373C67.5373 63.6107 67.5785 64.8975 67.5293 66.1814C67.3749 70.2294 64.4873 72.2364 60.7672 71.8984C58.4794 71.6978 56.7092 70.6607 55.7523 68.4772C55.4088 67.678 55.2343 66.8165 55.2398 65.9467C55.2328 63.3249 55.2478 60.2096 55.2267 57.5878H57.8867C57.8716 60.0762 57.8806 63.0531 57.8776 65.5415C57.8776 66.4762 58.006 67.3829 58.5797 68.1492C59.5496 69.4531 60.9126 69.6898 62.391 69.3979C63.7952 69.1201 64.5234 68.1281 64.8052 66.7751C64.8853 66.3655 64.9229 65.9488 64.9175 65.5314C64.9125 63.043 64.9236 60.0742 64.9065 57.5858L67.5795 57.5918Z" fill="#020202"/>
<path d="M112.387 71.6475C111.183 68.9053 109.821 65.776 108.62 63.0318C108.28 62.2555 107.942 61.4792 107.551 60.5856C106.897 62.09 106.298 63.4752 105.69 64.8593C104.754 66.9916 103.639 69.5111 102.712 71.6475H99.7943C100.245 70.6334 100.677 69.6505 101.116 68.6696C102.715 65.102 104.48 61.1633 106.072 57.5917H109.027C111.026 62.074 113.314 67.1691 115.322 71.6475H112.387Z" fill="#020202"/>
<path d="M45.7914 71.6475C43.0543 71.6314 39.8789 71.6475 37.1417 71.6475H35.892C35.881 69.7107 35.887 66.5152 35.887 64.5794C35.887 62.426 35.903 59.7451 35.874 57.5917H38.57C38.5559 61.1302 38.57 65.6296 38.5519 69.1671H39.0624C41.1486 69.144 43.7052 69.1861 45.7914 69.1671V71.6475Z" fill="#020202"/>
<path d="M22.3852 71.6564C22.3982 69.4498 22.3922 66.8341 22.3922 64.6355C22.3922 62.437 22.4012 59.7972 22.3832 57.5946H25.025C25.012 62.0498 25.014 67.2062 25.025 71.6604L22.3852 71.6564Z" fill="#020202"/>
<path d="M27.0167 31.0212C31.6855 36.1675 37.4477 38.7351 44.4023 38.2276C50.0551 37.8144 54.7902 35.3721 58.43 31.0202C62.5112 26.1407 64.0186 20.4819 62.9013 14.2183C61.784 7.95464 58.2876 3.28577 52.8715 0C53.8814 0.196191 54.8656 0.506777 55.8052 0.925752C63.3687 4.26869 67.9674 9.97465 69.4327 18.1439C69.8283 20.4178 69.8385 22.7421 69.4628 25.0194C69.4277 25.239 69.4518 25.3834 69.6313 25.5389C70.3227 26.1324 70.7799 26.9527 70.9212 27.8528C70.9813 28.2109 71.1438 28.265 71.4608 28.2419C72.7717 28.1416 73.892 28.5589 74.7786 29.5458C74.888 29.6672 75.0143 29.7785 75.0344 30.0152C74.6412 29.6561 74.3032 29.2951 73.8579 29.0664C72.9552 28.602 72.0064 28.4786 71.0495 28.8177C70.6173 28.9711 70.517 28.8377 70.4568 28.4566C70.3734 27.8578 70.1352 27.2912 69.7657 26.8127C68.161 24.7766 64.7127 25.3012 63.6144 27.7435C63.2132 28.6461 63.113 29.5749 63.4349 30.5177C63.5723 30.9189 63.4931 30.9329 63.1009 30.8768C61.9184 30.7083 60.772 30.9179 59.9024 31.7564C59.0679 32.5588 58.5785 33.5898 58.6657 34.8105C58.6748 34.9419 58.6657 35.0742 58.6657 35.2448C58.0178 35.0803 57.3889 34.9439 56.733 34.9519C54.0139 34.9729 51.6228 37.1494 51.365 39.8665C51.351 40.0159 51.2768 40.1804 51.3179 40.3108C51.5837 41.1664 51.0682 41.5144 50.4493 41.9587C48.3842 43.4461 48.4173 46.103 50.4493 47.6356C50.8766 47.9585 51.361 48.1802 51.8154 48.458C50.932 48.2925 50.1121 47.8844 49.4473 47.2795C49.0533 46.9397 48.7385 46.5176 48.5252 46.0429C48.3119 45.5683 48.2052 45.0527 48.2127 44.5324C48.2127 44.1131 48.0662 44.0409 47.6941 44.0439C43.5659 44.084 39.6893 43.1192 36.1177 41.035C32.0958 38.695 29.0868 35.4052 27.0748 31.2017C27.0514 31.1429 27.032 31.0826 27.0167 31.0212Z" fill="url(#paint0_linear_1_169)"/>
<path d="M71.9235 31.5754L72.2806 32.6727H73.434L72.5013 33.3507L72.8573 34.448L71.9235 33.77L70.9908 34.448L71.3468 33.3507L70.4141 32.6727H71.5675L71.9235 31.5754Z" fill="url(#paint1_linear_1_169)"/>
<path d="M58.6678 38.0225L59.0239 39.1197H60.1773L59.2446 39.7977L59.6006 40.895L58.6678 40.217L57.7341 40.895L58.0901 39.7977L57.1573 39.1197H58.3108L58.6678 38.0225Z" fill="url(#paint2_linear_1_169)"/>
<path d="M55.0656 43.8918L55.2542 44.4716H55.864L55.3706 44.8306L55.5591 45.4104L55.0656 45.0523L54.5722 45.4104L54.7607 44.8306L54.2673 44.4716H54.8771L55.0656 43.8918Z" fill="url(#paint3_linear_1_169)"/>
<path d="M61.9807 33.6128L62.1692 34.1935H62.7791L62.2856 34.5516L62.4742 35.1313L61.9807 34.7732L61.4872 35.1313L61.6758 34.5516L61.1823 34.1935H61.7921L61.9807 33.6128Z" fill="url(#paint4_linear_1_169)"/>
<path d="M67.3045 27.7552L67.493 28.336H68.1029L67.6104 28.694L67.7979 29.2748L67.3045 28.9157L66.811 29.2748L66.9996 28.694L66.5061 28.336H67.1169L67.3045 27.7552Z" fill="url(#paint5_linear_1_169)"/>
<defs>
<linearGradient id="paint0_linear_1_169" x1="28.1811" y1="33.9539" x2="69.8911" y2="17.166" gradientUnits="userSpaceOnUse">
<stop stop-color="#F7941E"/>
<stop offset="1" stop-color="#FDBE38"/>
</linearGradient>
<linearGradient id="paint1_linear_1_169" x1="70.4141" y1="33.0117" x2="73.434" y2="33.0117" gradientUnits="userSpaceOnUse">
<stop stop-color="#F7941E"/>
<stop offset="1" stop-color="#FDBE38"/>
</linearGradient>
<linearGradient id="paint2_linear_1_169" x1="57.1573" y1="39.4587" x2="60.1773" y2="39.4587" gradientUnits="userSpaceOnUse">
<stop stop-color="#F7941E"/>
<stop offset="1" stop-color="#FDBE38"/>
</linearGradient>
<linearGradient id="paint3_linear_1_169" x1="54.2673" y1="44.6511" x2="55.864" y2="44.6511" gradientUnits="userSpaceOnUse">
<stop stop-color="#F7941E"/>
<stop offset="1" stop-color="#FDBE38"/>
</linearGradient>
<linearGradient id="paint4_linear_1_169" x1="61.1823" y1="34.372" x2="62.7791" y2="34.372" gradientUnits="userSpaceOnUse">
<stop stop-color="#F7941E"/>
<stop offset="1" stop-color="#FDBE38"/>
</linearGradient>
<linearGradient id="paint5_linear_1_169" x1="66.5061" y1="28.5145" x2="68.1029" y2="28.5145" gradientUnits="userSpaceOnUse">
<stop stop-color="#F7941E"/>
<stop offset="1" stop-color="#FDBE38"/>
</linearGradient>
</defs>
</svg>
