<svg width="77" height="49" viewBox="0 0 77 49" fill="none" xmlns="http://www.w3.org/2000/svg">
<path d="M52.5682 47.8388C52.5756 44.862 52.5743 41.4305 52.5682 38.4537H54.0195C55.2075 39.9572 58.4582 44.0617 58.5941 44.2272C58.5941 42.352 58.6022 40.2358 58.5861 38.4537H60.3742C60.3661 41.4191 60.3681 44.8734 60.3742 47.8388H59.2565C57.8622 46.044 54.4494 41.6321 54.3523 41.5115C54.3443 41.6924 54.3523 41.8564 54.3523 41.9703C54.3523 43.8207 54.3449 45.9884 54.3583 47.8388H52.5682Z" fill="#020202"/>
<path d="M5.95768 40.428C5.90611 40.3878 5.85723 40.3476 5.80164 40.3001C4.96118 39.5674 3.9198 39.5205 2.87308 39.8828C2.74838 39.9315 2.63203 39.9993 2.52818 40.0838C1.88193 40.5706 1.96899 41.4131 2.70163 41.7486C3.16305 41.9596 3.6613 42.0218 4.15889 42.0835C4.79978 42.1652 5.43733 42.2636 6.04943 42.4806C7.29573 42.9219 7.92122 43.7202 7.946 44.9002C7.97412 46.265 7.37274 47.2019 6.14854 47.6962C5.44603 47.9801 4.71071 48.0745 3.95865 48.0745C2.9675 48.0571 2.00515 47.9265 1.15665 47.3539C0.636302 47.003 0.26998 46.5235 0.00210348 45.9616V45.957C-0.0648658 45.815 1.48949 45.1533 1.49083 45.1533C2.0661 46.2047 3.05121 46.4659 4.14415 46.4746C4.56882 46.485 4.99045 46.4006 5.3784 46.2275C5.87263 45.9985 6.18738 45.6415 6.18203 45.0703C6.17801 44.5245 5.8358 44.2285 5.3784 44.0249C4.75759 43.747 4.08053 43.7336 3.42423 43.6231C2.83222 43.53 2.24758 43.4001 1.70446 43.1282C-0.0106207 42.271 -0.176035 39.9096 1.41449 38.8361C2.42706 38.153 3.57156 38.0452 4.75223 38.1725C5.65766 38.2682 6.48875 38.5508 7.13902 39.2346C7.24349 39.3437 7.33122 39.4355 7.40154 39.5165L5.95768 40.428Z" fill="#020202"/>
<path d="M45.1198 38.4537C45.107 39.4127 45.1144 40.6557 45.1144 41.6147H45.0916C45.0916 42.4726 45.1191 43.3318 45.0863 44.189C44.9831 46.8919 43.0551 48.2319 40.5712 48.0062C39.0436 47.8723 37.8616 47.1798 37.2227 45.7219C36.9934 45.1883 36.8769 44.613 36.8805 44.0323C36.8758 42.2817 36.8859 40.2016 36.8718 38.451H38.6479C38.6378 40.1126 38.6438 42.1002 38.6418 43.7617C38.6418 44.3859 38.7275 44.9913 39.1106 45.5029C39.7582 46.3735 40.6683 46.5316 41.6554 46.3367C42.593 46.1512 43.0792 45.4888 43.2674 44.5854C43.3209 44.3119 43.346 44.0337 43.3424 43.755C43.339 42.0935 43.3464 40.1112 43.335 38.4497L45.1198 38.4537Z" fill="#020202"/>
<path d="M75.0398 47.8388C74.2361 46.0079 73.3267 43.9184 72.5251 42.0861C72.298 41.5678 72.0724 41.0495 71.8112 40.4528C71.3745 41.4573 70.9741 42.3821 70.5682 43.3063C69.9434 44.7301 69.1987 46.4124 68.5799 47.8388H66.6318C66.9325 47.1617 67.2211 46.5054 67.5144 45.8505C68.5819 43.4684 69.7606 40.8385 70.8234 38.4537H72.7963C74.131 41.4466 75.6592 44.8486 77 47.8388H75.0398Z" fill="#020202"/>
<path d="M30.5765 47.8388C28.7489 47.8281 26.6287 47.8388 24.8011 47.8388H23.9666C23.9593 46.5456 23.9633 44.412 23.9633 43.1195C23.9633 41.6817 23.974 39.8916 23.9546 38.4537H25.7547C25.7453 40.8164 25.7547 43.8206 25.7427 46.1827H26.0835C27.4765 46.1673 29.1835 46.1954 30.5765 46.1827V47.8388Z" fill="#020202"/>
<path d="M14.9454 47.8455C14.9541 46.3722 14.9501 44.6256 14.9501 43.1577C14.9501 41.6897 14.9561 39.9271 14.9441 38.4564H16.7081C16.6994 41.4312 16.7007 44.8741 16.7081 47.8482L14.9454 47.8455Z" fill="#020202"/>
<path d="M18.0362 20.7129C21.1536 24.1491 25.001 25.8635 29.6446 25.5247C33.419 25.2487 36.5807 23.618 39.011 20.7123C41.7359 17.4542 42.7425 13.6758 41.9965 9.49356C41.2504 5.31133 38.9159 2.19391 35.2995 0C35.9738 0.130997 36.631 0.338376 37.2584 0.618126C42.3085 2.85021 45.3791 6.66009 46.3575 12.1147C46.6216 13.633 46.6284 15.1849 46.3776 16.7055C46.3541 16.8521 46.3702 16.9486 46.4901 17.0524C46.9517 17.4486 47.257 17.9964 47.3513 18.5974C47.3915 18.8364 47.5 18.8726 47.7116 18.8572C48.5869 18.7902 49.3349 19.0688 49.927 19.7278C49.9999 19.8088 50.0843 19.8832 50.0977 20.0412C49.8352 19.8015 49.6095 19.5604 49.3122 19.4077C48.7095 19.0976 48.0759 19.0153 47.437 19.2416C47.1484 19.3441 47.0814 19.255 47.0412 19.0005C46.9856 18.6007 46.8265 18.2224 46.5798 17.9029C45.5083 16.5434 43.2059 16.8937 42.4726 18.5244C42.2047 19.1271 42.1378 19.7472 42.3527 20.3767C42.4445 20.6446 42.3916 20.654 42.1297 20.6165C41.3402 20.504 40.5747 20.6439 39.9941 21.2038C39.4369 21.7396 39.1101 22.428 39.1683 23.243C39.1744 23.3307 39.1683 23.4191 39.1683 23.533C38.7357 23.4232 38.3158 23.3321 37.8778 23.3374C36.0623 23.3515 34.4658 24.8047 34.2937 26.6189C34.2843 26.7187 34.2347 26.8286 34.2622 26.9156C34.4396 27.4869 34.0954 27.7192 33.6822 28.0159C32.3033 29.0091 32.3254 30.7831 33.6822 31.8064C33.9675 32.022 34.291 32.17 34.5943 32.3555C34.0045 32.245 33.457 31.9725 33.0132 31.5686C32.7501 31.3417 32.5399 31.0599 32.3975 30.743C32.2551 30.426 32.1838 30.0818 32.1888 29.7343C32.1888 29.4544 32.091 29.4062 31.8426 29.4082C29.0861 29.435 26.4978 28.7908 24.113 27.3991C21.4275 25.8367 19.4184 23.6401 18.075 20.8335C18.0594 20.7942 18.0464 20.7539 18.0362 20.7129V20.7129Z" fill="url(#paint0_linear_1_156)"/>
<path d="M48.0208 21.0833L48.2592 21.8159H49.0294L48.4066 22.2686L48.6443 23.0013L48.0208 22.5485L47.398 23.0013L47.6358 22.2686L47.0129 21.8159H47.7831L48.0208 21.0833Z" fill="url(#paint1_linear_1_156)"/>
<path d="M39.1763 25.3881L39.4141 26.1207H40.1842L39.5614 26.5734L39.7992 27.3061L39.1763 26.8533L38.5529 27.3061L38.7906 26.5734L38.1678 26.1207H38.9379L39.1763 25.3881Z" fill="url(#paint2_linear_1_156)"/>
<path d="M36.7697 29.3071L36.8956 29.6942H37.3028L36.9733 29.934L37.0992 30.321L36.7697 30.082L36.4402 30.321L36.5661 29.934L36.2366 29.6942H36.6438L36.7697 29.3071Z" fill="url(#paint3_linear_1_156)"/>
<path d="M41.3843 22.4434L41.5102 22.8311H41.9174L41.5879 23.0702L41.7138 23.4573L41.3843 23.2182L41.0548 23.4573L41.1807 23.0702L40.8513 22.8311H41.2584L41.3843 22.4434Z" fill="url(#paint4_linear_1_156)"/>
<path d="M44.9384 18.5323L45.0643 18.9201H45.4715L45.1427 19.1592L45.2679 19.5469L44.9384 19.3072L44.6089 19.5469L44.7348 19.1592L44.4053 18.9201H44.8132L44.9384 18.5323Z" fill="url(#paint5_linear_1_156)"/>
<defs>
<linearGradient id="paint0_linear_1_156" x1="18.8137" y1="22.6711" x2="46.6635" y2="11.4618" gradientUnits="userSpaceOnUse">
<stop stop-color="#F7941E"/>
<stop offset="1" stop-color="#FDBE38"/>
</linearGradient>
<linearGradient id="paint1_linear_1_156" x1="47.0129" y1="22.0423" x2="49.0294" y2="22.0423" gradientUnits="userSpaceOnUse">
<stop stop-color="#F7941E"/>
<stop offset="1" stop-color="#FDBE38"/>
</linearGradient>
<linearGradient id="paint2_linear_1_156" x1="38.1678" y1="26.3471" x2="40.1842" y2="26.3471" gradientUnits="userSpaceOnUse">
<stop stop-color="#F7941E"/>
<stop offset="1" stop-color="#FDBE38"/>
</linearGradient>
<linearGradient id="paint3_linear_1_156" x1="36.2366" y1="29.8141" x2="37.3028" y2="29.8141" gradientUnits="userSpaceOnUse">
<stop stop-color="#F7941E"/>
<stop offset="1" stop-color="#FDBE38"/>
</linearGradient>
<linearGradient id="paint4_linear_1_156" x1="40.8513" y1="22.9503" x2="41.9174" y2="22.9503" gradientUnits="userSpaceOnUse">
<stop stop-color="#F7941E"/>
<stop offset="1" stop-color="#FDBE38"/>
</linearGradient>
<linearGradient id="paint5_linear_1_156" x1="44.4053" y1="19.0393" x2="45.4715" y2="19.0393" gradientUnits="userSpaceOnUse">
<stop stop-color="#F7941E"/>
<stop offset="1" stop-color="#FDBE38"/>
</linearGradient>
</defs>
</svg>
