<svg width="48" height="51" viewBox="0 0 48 51" fill="none" xmlns="http://www.w3.org/2000/svg">
<path d="M15.5974 38.1098H41.3809V32.66H15.5974V38.1098ZM25.3152 21.9776H41.3816V16.5278H25.3152V21.9776ZM7.48633 0.5V13.9125H12.8355V5.9498H41.3809V0.5H7.48633ZM22.5555 16.5626H7.48633V38.0772H12.8355V22.0124H22.5555V16.5626Z" fill="#9DBC78"/>
<path d="M0.521484 50.3694V44.626H4.72707V45.6698H1.62512V47.2393H4.5596V48.2416H1.62512V50.3694H0.521484Z" fill="#9DBC78"/>
<path d="M9.85131 50.3678H5.4707V44.6162H9.85131V45.6682H6.56604V46.9908H9.73438V48.0013H6.56604V49.2995H9.85131V50.3678Z" fill="#9DBC78"/>
<path d="M12.3926 50.3694V44.626H16.5982V45.6698H13.4962V47.2393H16.4307V48.2416H13.4962V50.3694H12.3926Z" fill="#9DBC78"/>
<path d="M17.4512 50.3678V44.6162H18.5465V50.3678H17.4512Z" fill="#9DBC78"/>
<path d="M23.428 44.6084H24.5317V50.3681H23.846V50.3763L20.7697 46.49V50.3681H19.666V44.6166H20.5607L23.428 48.1826V44.6084Z" fill="#9DBC78"/>
<path d="M29.6984 49.2832H26.6387L26.1371 50.3678H24.9414L27.5666 44.6162H28.7706L31.3958 50.3678H30.1918L29.6984 49.2832ZM28.1686 45.8239L27.0815 48.2727H29.2549L28.1686 45.8239Z" fill="#9DBC78"/>
<path d="M35.7425 44.6084H36.8461V50.3681H36.1604V50.3763L33.0841 46.49V50.3681H31.9805V44.6166H32.8751L35.7425 48.1826V44.6084Z" fill="#9DBC78"/>
<path d="M43.0153 49.6449C42.4133 50.2283 41.6356 50.4997 40.7915 50.4997C38.6181 50.4997 37.6978 49.0288 37.6895 47.5334C37.6812 46.0299 38.6762 44.502 40.7915 44.502C41.5858 44.502 42.3379 44.7978 42.9399 45.3812L42.2044 46.0796C41.8197 45.7097 41.3014 45.5376 40.7915 45.5376C39.3785 45.5376 38.7682 46.5726 38.7765 47.5342C38.7848 48.4876 39.3453 49.4818 40.7915 49.4818C41.3014 49.4818 41.8785 49.2764 42.2625 48.8983L43.0146 49.6456L43.0153 49.6449Z" fill="#9DBC78"/>
<path d="M47.9997 50.3678H43.6191V44.6162H47.9997V45.6682H44.7145V46.9908H47.8828V48.0013H44.7145V49.2995H47.9997V50.3678Z" fill="#9DBC78"/>
</svg>
